ISO-10303-21;
HEADER;
FILE_DESCRIPTION((''),'2;1');
FILE_NAME('Untitled', '2026-08-15T15:01:49', (''), (''), 'ImageToStl.com STEP Converter','', '');
FILE_SCHEMA(('AUTOMOTIVE_DESIGN_CC2'));
ENDSEC;
DATA;
#1=PRODUCT_DEFINITION_CONTEXT('',#4,'design');
#2=APPLICATION_PROTOCOL_DEFINITION('INTERNATIONAL STANDARD','automotive_design',1994,#4);
#3=(GEOMETRIC_REPRESENTATION_CONTEXT(3)GLOBAL_UNCERTAINTY_ASSIGNED_CONTEXT((#5))GLOBAL_UNIT_ASSIGNED_CONTEXT((#6,#7,#8))REPRESENTATION_CONTEXT('NONE','WORKSPACE'));
#4=APPLICATION_CONTEXT(' ');
#5=UNCERTAINTY_MEASURE_WITH_UNIT(LENGTH_MEASURE(1.0E-006),#6,'','');
#6=(CONVERSION_BASED_UNIT('METRE',#10)LENGTH_UNIT()NAMED_UNIT(#11));
#7=(NAMED_UNIT(#12)PLANE_ANGLE_UNIT()SI_UNIT($,.RADIAN.));
#8=(NAMED_UNIT(#12)SOLID_ANGLE_UNIT()SI_UNIT($,.STERADIAN.));
#9=AXIS2_PLACEMENT_3D('',#14,#15,#16);
#10=LENGTH_MEASURE_WITH_UNIT(LENGTH_MEASURE(1.0),#17);
#11=DIMENSIONAL_EXPONENTS(1.0,0.0,0.0,0.0,0.0,0.0,0.0);
#12=DIMENSIONAL_EXPONENTS(0.0,0.0,0.0,0.0,0.0,0.0,0.0);
#13=PRODUCT_CONTEXT('',#4,'mechanical');
#14=CARTESIAN_POINT('',(0.0,0.0,0.0));
#15=DIRECTION('',(0.0,0.0,1.0));
#16=DIRECTION('',(1.0,0.0,0.0));
#17=(NAMED_UNIT(#11)LENGTH_UNIT()SI_UNIT(.MILLI.,.METRE.));
#18=PRESENTATION_STYLE_ASSIGNMENT((#19));
#19=SURFACE_STYLE_USAGE(.BOTH.,#20);
#20=SURFACE_SIDE_STYLE('',(#21));
#21=SURFACE_STYLE_FILL_AREA(#22);
#22=FILL_AREA_STYLE('',(#23));
#23=FILL_AREA_STYLE_COLOUR('',#24);
#24=COLOUR_RGB('',0.9,0.9,0.9);
#25=SHAPE_DEFINITION_REPRESENTATION(#26,#27);
#26=PRODUCT_DEFINITION_SHAPE('productshape0','',#30);
#27=MANIFOLD_SURFACE_SHAPE_REPRESENTATION('',(#28,#9),#3);
#28=SHELL_BASED_SURFACE_MODEL('shell0',(#33));
#29=PRODUCT('product0','','',(#13));
#30=PRODUCT_DEFINITION('mesh0','',#31,#2);
#31=PRODUCT_DEFINITION_FORMATION_WITH_SPECIFIED_SOURCE('prodsource0','',#29,.NOT_KNOWN.);
#32=STYLED_ITEM('',(#18),#33);
#33=CLOSED_SHELL('',(#210,#232,#254,#276,#298,#320,#342,#364,#386,#408,#430,#452,#474,#496,#518,#540,#562,#584,#606,#628,#650,#672,#694,#716,#738,#760,#782,#804,#826,#848,#870,#892,#914,#936,#958,#980,#1002,#1024,#1046,#1068,#1090,#1112,#1134,#1156,#1178,#1200,#1222,#1244,#1266,#1288,#1310,#1332,#1354,#1376,#1398,#1420,#1442,#1464,#1486,#1508,#1530,#1552,#1574,#1596,#1618,#1640,#1662,#1684,#1706,#1728,#1750,#1772,#1794,#1816,#1838,#1860,#1882,#1904,#1926,#1948,#1970,#1992,#2014,#2036,#2058,#2080));
#34=CARTESIAN_POINT('',(-14.00001,2.000002,5.750003));
#35=VERTEX_POINT('',#34);
#36=CARTESIAN_POINT('',(16.000008,2.000002,5.750003));
#37=VERTEX_POINT('',#36);
#38=CARTESIAN_POINT('',(16.000008,2.000002,-5.750003));
#39=VERTEX_POINT('',#38);
#40=CARTESIAN_POINT('',(-14.00001,2.000002,-5.750003));
#41=VERTEX_POINT('',#40);
#42=CARTESIAN_POINT('',(-14.00001,0.600001,5.750003));
#43=VERTEX_POINT('',#42);
#44=CARTESIAN_POINT('',(-14.00001,0.600001,-5.750003));
#45=VERTEX_POINT('',#44);
#46=CARTESIAN_POINT('',(16.000008,0.600001,-5.750003));
#47=VERTEX_POINT('',#46);
#48=CARTESIAN_POINT('',(16.000008,0.600001,5.750003));
#49=VERTEX_POINT('',#48);
#50=CARTESIAN_POINT('',(16.000008,1.579838,5.61308));
#51=VERTEX_POINT('',#50);
#52=CARTESIAN_POINT('',(16.000008,1.579838,-3.34194));
#53=VERTEX_POINT('',#52);
#54=CARTESIAN_POINT('',(16.000008,0.600001,-3.34194));
#55=VERTEX_POINT('',#54);
#56=CARTESIAN_POINT('',(16.000008,0.600001,5.61308));
#57=VERTEX_POINT('',#56);
#58=CARTESIAN_POINT('',(20.500011,1.579838,5.61308));
#59=VERTEX_POINT('',#58);
#60=CARTESIAN_POINT('',(20.500011,0.600001,5.61308));
#61=VERTEX_POINT('',#60);
#62=CARTESIAN_POINT('',(20.500011,0.600001,-3.34194));
#63=VERTEX_POINT('',#62);
#64=CARTESIAN_POINT('',(20.500011,1.579838,-3.34194));
#65=VERTEX_POINT('',#64);
#66=CARTESIAN_POINT('',(-19.000013,0.600001,6.000007));
#67=VERTEX_POINT('',#66);
#68=CARTESIAN_POINT('',(19.000011,0.600001,6.000007));
#69=VERTEX_POINT('',#68);
#70=CARTESIAN_POINT('',(19.000011,0.600001,-6.000001));
#71=VERTEX_POINT('',#70);
#72=CARTESIAN_POINT('',(-19.000013,0.600001,-6.000001));
#73=VERTEX_POINT('',#72);
#74=CARTESIAN_POINT('',(-19.000013,-0.6,6.000007));
#75=VERTEX_POINT('',#74);
#76=CARTESIAN_POINT('',(-19.000013,-0.6,-6.000001));
#77=VERTEX_POINT('',#76);
#78=CARTESIAN_POINT('',(19.000011,-0.6,-6.000001));
#79=VERTEX_POINT('',#78);
#80=CARTESIAN_POINT('',(19.000011,-0.6,6.000007));
#81=VERTEX_POINT('',#80);
#82=CARTESIAN_POINT('',(-19.000013,0.600001,-6.000001));
#83=VERTEX_POINT('',#82);
#84=CARTESIAN_POINT('',(-19.000013,-0.6,-6.000001));
#85=VERTEX_POINT('',#84);
#86=CARTESIAN_POINT('',(-19.000013,-0.6,6.000007));
#87=VERTEX_POINT('',#86);
#88=CARTESIAN_POINT('',(-19.000013,0.600001,6.000007));
#89=VERTEX_POINT('',#88);
#90=CARTESIAN_POINT('',(-12.200009,2.010003,3.800007));
#91=VERTEX_POINT('',#90);
#92=CARTESIAN_POINT('',(12.200006,2.010003,3.800007));
#93=VERTEX_POINT('',#92);
#94=CARTESIAN_POINT('',(12.200006,2.010003,-2.799997));
#95=VERTEX_POINT('',#94);
#96=CARTESIAN_POINT('',(-12.200009,2.010003,-2.799997));
#97=VERTEX_POINT('',#96);
#98=CARTESIAN_POINT('',(-17.772039,-9.989996,4.082024));
#99=VERTEX_POINT('',#98);
#100=CARTESIAN_POINT('',(-17.772039,2.010003,4.082024));
#101=VERTEX_POINT('',#100);
#102=CARTESIAN_POINT('',(-17.772039,2.010003,3.537971));
#103=VERTEX_POINT('',#102);
#104=CARTESIAN_POINT('',(-17.772039,-9.989996,3.537971));
#105=VERTEX_POINT('',#104);
#106=CARTESIAN_POINT('',(-17.227985,2.010003,3.537971));
#107=VERTEX_POINT('',#106);
#108=CARTESIAN_POINT('',(-17.227985,-9.989996,3.537971));
#109=VERTEX_POINT('',#108);
#110=CARTESIAN_POINT('',(-17.227985,2.010003,4.082024));
#111=VERTEX_POINT('',#110);
#112=CARTESIAN_POINT('',(-17.227985,-9.989996,4.082024));
#113=VERTEX_POINT('',#112);
#114=CARTESIAN_POINT('',(-17.772039,2.010003,4.082024));
#115=VERTEX_POINT('',#114);
#116=CARTESIAN_POINT('',(-17.772039,-9.989996,4.082024));
#117=VERTEX_POINT('',#116);
#118=CARTESIAN_POINT('',(-17.772039,-9.989996,3.537971));
#119=VERTEX_POINT('',#118);
#120=CARTESIAN_POINT('',(-17.772039,-9.989996,4.082024));
#121=VERTEX_POINT('',#120);
#122=CARTESIAN_POINT('',(-17.772039,2.010003,3.537971));
#123=VERTEX_POINT('',#122);
#124=CARTESIAN_POINT('',(-17.772039,2.010003,4.082024));
#125=VERTEX_POINT('',#124);
#126=CARTESIAN_POINT('',(-17.772039,-9.989996,1.542025));
#127=VERTEX_POINT('',#126);
#128=CARTESIAN_POINT('',(-17.772039,2.010003,1.542025));
#129=VERTEX_POINT('',#128);
#130=CARTESIAN_POINT('',(-17.772039,2.010003,0.997972));
#131=VERTEX_POINT('',#130);
#132=CARTESIAN_POINT('',(-17.772039,-9.989996,0.997972));
#133=VERTEX_POINT('',#132);
#134=CARTESIAN_POINT('',(-17.227985,2.010003,0.997972));
#135=VERTEX_POINT('',#134);
#136=CARTESIAN_POINT('',(-17.227985,-9.989996,0.997972));
#137=VERTEX_POINT('',#136);
#138=CARTESIAN_POINT('',(-17.227985,2.010003,1.542025));
#139=VERTEX_POINT('',#138);
#140=CARTESIAN_POINT('',(-17.227985,-9.989996,1.542025));
#141=VERTEX_POINT('',#140);
#142=CARTESIAN_POINT('',(-17.772039,2.010003,1.542025));
#143=VERTEX_POINT('',#142);
#144=CARTESIAN_POINT('',(-17.772039,-9.989996,1.542025));
#145=VERTEX_POINT('',#144);
#146=CARTESIAN_POINT('',(-17.772039,-9.989996,0.997972));
#147=VERTEX_POINT('',#146);
#148=CARTESIAN_POINT('',(-17.772039,-9.989996,1.542025));
#149=VERTEX_POINT('',#148);
#150=CARTESIAN_POINT('',(-17.772039,2.010003,0.997972));
#151=VERTEX_POINT('',#150);
#152=CARTESIAN_POINT('',(-17.772039,2.010003,1.542025));
#153=VERTEX_POINT('',#152);
#154=CARTESIAN_POINT('',(-17.772039,-9.989995,-0.997975));
#155=VERTEX_POINT('',#154);
#156=CARTESIAN_POINT('',(-17.772039,2.010003,-0.997975));
#157=VERTEX_POINT('',#156);
#158=CARTESIAN_POINT('',(-17.772039,2.010003,-1.542028));
#159=VERTEX_POINT('',#158);
#160=CARTESIAN_POINT('',(-17.772039,-9.989995,-1.542028));
#161=VERTEX_POINT('',#160);
#162=CARTESIAN_POINT('',(-17.227985,2.010003,-1.542028));
#163=VERTEX_POINT('',#162);
#164=CARTESIAN_POINT('',(-17.227985,-9.989995,-1.542028));
#165=VERTEX_POINT('',#164);
#166=CARTESIAN_POINT('',(-17.227985,2.010003,-0.997975));
#167=VERTEX_POINT('',#166);
#168=CARTESIAN_POINT('',(-17.227985,-9.989995,-0.997975));
#169=VERTEX_POINT('',#168);
#170=CARTESIAN_POINT('',(-17.772039,2.010003,-0.997975));
#171=VERTEX_POINT('',#170);
#172=CARTESIAN_POINT('',(-17.772039,-9.989995,-0.997975));
#173=VERTEX_POINT('',#172);
#174=CARTESIAN_POINT('',(-17.772039,-9.989995,-1.542028));
#175=VERTEX_POINT('',#174);
#176=CARTESIAN_POINT('',(-17.772039,-9.989995,-0.997975));
#177=VERTEX_POINT('',#176);
#178=CARTESIAN_POINT('',(-17.772039,2.010003,-1.542028));
#179=VERTEX_POINT('',#178);
#180=CARTESIAN_POINT('',(-17.772039,2.010003,-0.997975));
#181=VERTEX_POINT('',#180);
#182=CARTESIAN_POINT('',(-17.772039,-9.989996,-3.537975));
#183=VERTEX_POINT('',#182);
#184=CARTESIAN_POINT('',(-17.772039,2.010003,-3.537975));
#185=VERTEX_POINT('',#184);
#186=CARTESIAN_POINT('',(-17.772039,2.010003,-4.082028));
#187=VERTEX_POINT('',#186);
#188=CARTESIAN_POINT('',(-17.772039,-9.989996,-4.082028));
#189=VERTEX_POINT('',#188);
#190=CARTESIAN_POINT('',(-17.227985,2.010003,-4.082028));
#191=VERTEX_POINT('',#190);
#192=CARTESIAN_POINT('',(-17.227985,-9.989996,-4.082028));
#193=VERTEX_POINT('',#192);
#194=CARTESIAN_POINT('',(-17.227985,2.010003,-3.537975));
#195=VERTEX_POINT('',#194);
#196=CARTESIAN_POINT('',(-17.227985,-9.989996,-3.537975));
#197=VERTEX_POINT('',#196);
#198=CARTESIAN_POINT('',(-17.772039,2.010003,-3.537975));
#199=VERTEX_POINT('',#198);
#200=CARTESIAN_POINT('',(-17.772039,-9.989996,-3.537975));
#201=VERTEX_POINT('',#200);
#202=CARTESIAN_POINT('',(-17.772039,-9.989996,-4.082028));
#203=VERTEX_POINT('',#202);
#204=CARTESIAN_POINT('',(-17.772039,-9.989996,-3.537975));
#205=VERTEX_POINT('',#204);
#206=CARTESIAN_POINT('',(-17.772039,2.010003,-4.082028));
#207=VERTEX_POINT('',#206);
#208=CARTESIAN_POINT('',(-17.772039,2.010003,-3.537975));
#209=VERTEX_POINT('',#208);
#210=FACE_SURFACE('',(#215),#211,.T.);
#211=PLANE('',#212);
#212=AXIS2_PLACEMENT_3D('',#34,#213,#214);
#213=DIRECTION('',(-0,1,0));
#214=DIRECTION('',(1,0,0));
#215=FACE_BOUND('',#216,.T.);
#216=EDGE_LOOP('',(#217,#218,#219));
#217=ORIENTED_EDGE('',*,*,#220,.T.);
#218=ORIENTED_EDGE('',*,*,#221,.T.);
#219=ORIENTED_EDGE('',*,*,#222,.T.);
#220=EDGE_CURVE('',#35,#37,#223,.F.);
#221=EDGE_CURVE('',#37,#39,#224,.T.);
#222=EDGE_CURVE('',#39,#35,#225,.T.);
#223=LINE('',#34,#226);
#224=LINE('',#36,#227);
#225=LINE('',#38,#228);
#226=VECTOR('',#229,1.0);
#227=VECTOR('',#230,1.0);
#228=VECTOR('',#231,1.0);
#229=DIRECTION('',(1,0,0));
#230=DIRECTION('',(0,0,-1));
#231=DIRECTION('',(-0.9337461266643807,0,0.35793598720897896));
#232=FACE_SURFACE('',(#237),#233,.T.);
#233=PLANE('',#234);
#234=AXIS2_PLACEMENT_3D('',#34,#235,#236);
#235=DIRECTION('',(0,1,0));
#236=DIRECTION('',(0.9337461266643807,0,-0.35793598720897896));
#237=FACE_BOUND('',#238,.T.);
#238=EDGE_LOOP('',(#239,#240,#241));
#239=ORIENTED_EDGE('',*,*,#242,.T.);
#240=ORIENTED_EDGE('',*,*,#243,.T.);
#241=ORIENTED_EDGE('',*,*,#244,.T.);
#242=EDGE_CURVE('',#35,#39,#245,.F.);
#243=EDGE_CURVE('',#39,#41,#246,.T.);
#244=EDGE_CURVE('',#41,#35,#247,.T.);
#245=LINE('',#34,#248);
#246=LINE('',#38,#249);
#247=LINE('',#40,#250);
#248=VECTOR('',#251,1.0);
#249=VECTOR('',#252,1.0);
#250=VECTOR('',#253,1.0);
#251=DIRECTION('',(0.9337461266643807,0,-0.35793598720897896));
#252=DIRECTION('',(-1,0,0));
#253=DIRECTION('',(0,0,1));
#254=FACE_SURFACE('',(#259),#255,.T.);
#255=PLANE('',#256);
#256=AXIS2_PLACEMENT_3D('',#42,#257,#258);
#257=DIRECTION('',(0,-1,0));
#258=DIRECTION('',(0,0,-1));
#259=FACE_BOUND('',#260,.T.);
#260=EDGE_LOOP('',(#261,#262,#263));
#261=ORIENTED_EDGE('',*,*,#264,.T.);
#262=ORIENTED_EDGE('',*,*,#265,.T.);
#263=ORIENTED_EDGE('',*,*,#266,.T.);
#264=EDGE_CURVE('',#43,#45,#267,.F.);
#265=EDGE_CURVE('',#45,#47,#268,.T.);
#266=EDGE_CURVE('',#47,#43,#269,.T.);
#267=LINE('',#42,#270);
#268=LINE('',#44,#271);
#269=LINE('',#46,#272);
#270=VECTOR('',#273,1.0);
#271=VECTOR('',#274,1.0);
#272=VECTOR('',#275,1.0);
#273=DIRECTION('',(0,0,-1));
#274=DIRECTION('',(1,0,0));
#275=DIRECTION('',(-0.9337461266643807,0,0.35793598720897896));
#276=FACE_SURFACE('',(#281),#277,.T.);
#277=PLANE('',#278);
#278=AXIS2_PLACEMENT_3D('',#42,#279,#280);
#279=DIRECTION('',(0,-1,0));
#280=DIRECTION('',(0.9337461266643807,0,-0.35793598720897896));
#281=FACE_BOUND('',#282,.T.);
#282=EDGE_LOOP('',(#283,#284,#285));
#283=ORIENTED_EDGE('',*,*,#286,.T.);
#284=ORIENTED_EDGE('',*,*,#287,.T.);
#285=ORIENTED_EDGE('',*,*,#288,.T.);
#286=EDGE_CURVE('',#43,#47,#289,.F.);
#287=EDGE_CURVE('',#47,#49,#290,.T.);
#288=EDGE_CURVE('',#49,#43,#291,.T.);
#289=LINE('',#42,#292);
#290=LINE('',#46,#293);
#291=LINE('',#48,#294);
#292=VECTOR('',#295,1.0);
#293=VECTOR('',#296,1.0);
#294=VECTOR('',#297,1.0);
#295=DIRECTION('',(0.9337461266643807,0,-0.35793598720897896));
#296=DIRECTION('',(0,0,1));
#297=DIRECTION('',(-1,0,0));
#298=FACE_SURFACE('',(#303),#299,.T.);
#299=PLANE('',#300);
#300=AXIS2_PLACEMENT_3D('',#36,#301,#302);
#301=DIRECTION('',(1,0,0));
#302=DIRECTION('',(0,-1,0));
#303=FACE_BOUND('',#304,.T.);
#304=EDGE_LOOP('',(#305,#306,#307));
#305=ORIENTED_EDGE('',*,*,#308,.T.);
#306=ORIENTED_EDGE('',*,*,#309,.T.);
#307=ORIENTED_EDGE('',*,*,#310,.T.);
#308=EDGE_CURVE('',#37,#49,#311,.F.);
#309=EDGE_CURVE('',#49,#47,#312,.T.);
#310=EDGE_CURVE('',#47,#37,#313,.T.);
#311=LINE('',#36,#314);
#312=LINE('',#48,#315);
#313=LINE('',#46,#316);
#314=VECTOR('',#317,1.0);
#315=VECTOR('',#318,1.0);
#316=VECTOR('',#319,1.0);
#317=DIRECTION('',(0,-1,0));
#318=DIRECTION('',(0,0,-1));
#319=DIRECTION('',(0,0.12084694609667045,0.9926711518015966));
#320=FACE_SURFACE('',(#325),#321,.T.);
#321=PLANE('',#322);
#322=AXIS2_PLACEMENT_3D('',#36,#323,#324);
#323=DIRECTION('',(1,0,0));
#324=DIRECTION('',(0,-0.12084694609667045,-0.9926711518015966));
#325=FACE_BOUND('',#326,.T.);
#326=EDGE_LOOP('',(#327,#328,#329));
#327=ORIENTED_EDGE('',*,*,#330,.T.);
#328=ORIENTED_EDGE('',*,*,#331,.T.);
#329=ORIENTED_EDGE('',*,*,#332,.T.);
#330=EDGE_CURVE('',#37,#47,#333,.F.);
#331=EDGE_CURVE('',#47,#39,#334,.T.);
#332=EDGE_CURVE('',#39,#37,#335,.T.);
#333=LINE('',#36,#336);
#334=LINE('',#46,#337);
#335=LINE('',#38,#338);
#336=VECTOR('',#339,1.0);
#337=VECTOR('',#340,1.0);
#338=VECTOR('',#341,1.0);
#339=DIRECTION('',(0,-0.12084694609667045,-0.9926711518015966));
#340=DIRECTION('',(0,1,0));
#341=DIRECTION('',(0,0,1));
#342=FACE_SURFACE('',(#347),#343,.T.);
#343=PLANE('',#344);
#344=AXIS2_PLACEMENT_3D('',#40,#345,#346);
#345=DIRECTION('',(-1,0,0));
#346=DIRECTION('',(0,-1,0));
#347=FACE_BOUND('',#348,.T.);
#348=EDGE_LOOP('',(#349,#350,#351));
#349=ORIENTED_EDGE('',*,*,#352,.T.);
#350=ORIENTED_EDGE('',*,*,#353,.T.);
#351=ORIENTED_EDGE('',*,*,#354,.T.);
#352=EDGE_CURVE('',#41,#45,#355,.F.);
#353=EDGE_CURVE('',#45,#43,#356,.T.);
#354=EDGE_CURVE('',#43,#41,#357,.T.);
#355=LINE('',#40,#358);
#356=LINE('',#44,#359);
#357=LINE('',#42,#360);
#358=VECTOR('',#361,1.0);
#359=VECTOR('',#362,1.0);
#360=VECTOR('',#363,1.0);
#361=DIRECTION('',(0,-1,0));
#362=DIRECTION('',(0,0,1));
#363=DIRECTION('',(0,0.12084694609667045,-0.9926711518015966));
#364=FACE_SURFACE('',(#369),#365,.T.);
#365=PLANE('',#366);
#366=AXIS2_PLACEMENT_3D('',#40,#367,#368);
#367=DIRECTION('',(-1,0,0));
#368=DIRECTION('',(0,-0.12084694609667045,0.9926711518015966));
#369=FACE_BOUND('',#370,.T.);
#370=EDGE_LOOP('',(#371,#372,#373));
#371=ORIENTED_EDGE('',*,*,#374,.T.);
#372=ORIENTED_EDGE('',*,*,#375,.T.);
#373=ORIENTED_EDGE('',*,*,#376,.T.);
#374=EDGE_CURVE('',#41,#43,#377,.F.);
#375=EDGE_CURVE('',#43,#35,#378,.T.);
#376=EDGE_CURVE('',#35,#41,#379,.T.);
#377=LINE('',#40,#380);
#378=LINE('',#42,#381);
#379=LINE('',#34,#382);
#380=VECTOR('',#383,1.0);
#381=VECTOR('',#384,1.0);
#382=VECTOR('',#385,1.0);
#383=DIRECTION('',(0,-0.12084694609667045,0.9926711518015966));
#384=DIRECTION('',(0,1,0));
#385=DIRECTION('',(0,0,-1));
#386=FACE_SURFACE('',(#391),#387,.T.);
#387=PLANE('',#388);
#388=AXIS2_PLACEMENT_3D('',#38,#389,#390);
#389=DIRECTION('',(0,-0,-1));
#390=DIRECTION('',(0,-1,0));
#391=FACE_BOUND('',#392,.T.);
#392=EDGE_LOOP('',(#393,#394,#395));
#393=ORIENTED_EDGE('',*,*,#396,.T.);
#394=ORIENTED_EDGE('',*,*,#397,.T.);
#395=ORIENTED_EDGE('',*,*,#398,.T.);
#396=EDGE_CURVE('',#39,#47,#399,.F.);
#397=EDGE_CURVE('',#47,#45,#400,.T.);
#398=EDGE_CURVE('',#45,#39,#401,.T.);
#399=LINE('',#38,#402);
#400=LINE('',#46,#403);
#401=LINE('',#44,#404);
#402=VECTOR('',#405,1.0);
#403=VECTOR('',#406,1.0);
#404=VECTOR('',#407,1.0);
#405=DIRECTION('',(0,-1,0));
#406=DIRECTION('',(-1,0,0));
#407=DIRECTION('',(0.9989128861600084,0.04661594001499925,0));
#408=FACE_SURFACE('',(#413),#409,.T.);
#409=PLANE('',#410);
#410=AXIS2_PLACEMENT_3D('',#38,#411,#412);
#411=DIRECTION('',(-0,0,-1));
#412=DIRECTION('',(-0.9989128861600084,-0.04661594001499925,0));
#413=FACE_BOUND('',#414,.T.);
#414=EDGE_LOOP('',(#415,#416,#417));
#415=ORIENTED_EDGE('',*,*,#418,.T.);
#416=ORIENTED_EDGE('',*,*,#419,.T.);
#417=ORIENTED_EDGE('',*,*,#420,.T.);
#418=EDGE_CURVE('',#39,#45,#421,.F.);
#419=EDGE_CURVE('',#45,#41,#422,.T.);
#420=EDGE_CURVE('',#41,#39,#423,.T.);
#421=LINE('',#38,#424);
#422=LINE('',#44,#425);
#423=LINE('',#40,#426);
#424=VECTOR('',#427,1.0);
#425=VECTOR('',#428,1.0);
#426=VECTOR('',#429,1.0);
#427=DIRECTION('',(-0.9989128861600084,-0.04661594001499925,0));
#428=DIRECTION('',(0,1,0));
#429=DIRECTION('',(1,0,0));
#430=FACE_SURFACE('',(#435),#431,.T.);
#431=PLANE('',#432);
#432=AXIS2_PLACEMENT_3D('',#34,#433,#434);
#433=DIRECTION('',(0,0,1));
#434=DIRECTION('',(0,-1,0));
#435=FACE_BOUND('',#436,.T.);
#436=EDGE_LOOP('',(#437,#438,#439));
#437=ORIENTED_EDGE('',*,*,#440,.T.);
#438=ORIENTED_EDGE('',*,*,#441,.T.);
#439=ORIENTED_EDGE('',*,*,#442,.T.);
#440=EDGE_CURVE('',#35,#43,#443,.F.);
#441=EDGE_CURVE('',#43,#49,#444,.T.);
#442=EDGE_CURVE('',#49,#35,#445,.T.);
#443=LINE('',#34,#446);
#444=LINE('',#42,#447);
#445=LINE('',#48,#448);
#446=VECTOR('',#449,1.0);
#447=VECTOR('',#450,1.0);
#448=VECTOR('',#451,1.0);
#449=DIRECTION('',(0,-1,0));
#450=DIRECTION('',(1,0,0));
#451=DIRECTION('',(-0.9989128861600084,0.04661594001499925,0));
#452=FACE_SURFACE('',(#457),#453,.T.);
#453=PLANE('',#454);
#454=AXIS2_PLACEMENT_3D('',#34,#455,#456);
#455=DIRECTION('',(-0,0,1));
#456=DIRECTION('',(0.9989128861600084,-0.04661594001499925,0));
#457=FACE_BOUND('',#458,.T.);
#458=EDGE_LOOP('',(#459,#460,#461));
#459=ORIENTED_EDGE('',*,*,#462,.T.);
#460=ORIENTED_EDGE('',*,*,#463,.T.);
#461=ORIENTED_EDGE('',*,*,#464,.T.);
#462=EDGE_CURVE('',#35,#49,#465,.F.);
#463=EDGE_CURVE('',#49,#37,#466,.T.);
#464=EDGE_CURVE('',#37,#35,#467,.T.);
#465=LINE('',#34,#468);
#466=LINE('',#48,#469);
#467=LINE('',#36,#470);
#468=VECTOR('',#471,1.0);
#469=VECTOR('',#472,1.0);
#470=VECTOR('',#473,1.0);
#471=DIRECTION('',(0.9989128861600084,-0.04661594001499925,0));
#472=DIRECTION('',(0,1,0));
#473=DIRECTION('',(-1,0,0));
#474=FACE_SURFACE('',(#479),#475,.T.);
#475=PLANE('',#476);
#476=AXIS2_PLACEMENT_3D('',#50,#477,#478);
#477=DIRECTION('',(-1,0,-0));
#478=DIRECTION('',(0,0,-1));
#479=FACE_BOUND('',#480,.T.);
#480=EDGE_LOOP('',(#481,#482,#483));
#481=ORIENTED_EDGE('',*,*,#484,.T.);
#482=ORIENTED_EDGE('',*,*,#485,.T.);
#483=ORIENTED_EDGE('',*,*,#486,.T.);
#484=EDGE_CURVE('',#51,#53,#487,.F.);
#485=EDGE_CURVE('',#53,#55,#488,.T.);
#486=EDGE_CURVE('',#55,#51,#489,.T.);
#487=LINE('',#50,#490);
#488=LINE('',#52,#491);
#489=LINE('',#54,#492);
#490=VECTOR('',#493,1.0);
#491=VECTOR('',#494,1.0);
#492=VECTOR('',#495,1.0);
#493=DIRECTION('',(0,0,-1));
#494=DIRECTION('',(0,-1,0));
#495=DIRECTION('',(0,0.10876846018027225,0.9940671114517432));
#496=FACE_SURFACE('',(#501),#497,.T.);
#497=PLANE('',#498);
#498=AXIS2_PLACEMENT_3D('',#50,#499,#500);
#499=DIRECTION('',(-1,-0,0));
#500=DIRECTION('',(0,-0.10876846018027225,-0.9940671114517432));
#501=FACE_BOUND('',#502,.T.);
#502=EDGE_LOOP('',(#503,#504,#505));
#503=ORIENTED_EDGE('',*,*,#506,.T.);
#504=ORIENTED_EDGE('',*,*,#507,.T.);
#505=ORIENTED_EDGE('',*,*,#508,.T.);
#506=EDGE_CURVE('',#51,#55,#509,.F.);
#507=EDGE_CURVE('',#55,#57,#510,.T.);
#508=EDGE_CURVE('',#57,#51,#511,.T.);
#509=LINE('',#50,#512);
#510=LINE('',#54,#513);
#511=LINE('',#56,#514);
#512=VECTOR('',#515,1.0);
#513=VECTOR('',#516,1.0);
#514=VECTOR('',#517,1.0);
#515=DIRECTION('',(0,-0.10876846018027225,-0.9940671114517432));
#516=DIRECTION('',(0,0,1));
#517=DIRECTION('',(0,1,0));
#518=FACE_SURFACE('',(#523),#519,.T.);
#519=PLANE('',#520);
#520=AXIS2_PLACEMENT_3D('',#58,#521,#522);
#521=DIRECTION('',(1,0,0));
#522=DIRECTION('',(0,-1,0));
#523=FACE_BOUND('',#524,.T.);
#524=EDGE_LOOP('',(#525,#526,#527));
#525=ORIENTED_EDGE('',*,*,#528,.T.);
#526=ORIENTED_EDGE('',*,*,#529,.T.);
#527=ORIENTED_EDGE('',*,*,#530,.T.);
#528=EDGE_CURVE('',#59,#61,#531,.F.);
#529=EDGE_CURVE('',#61,#63,#532,.T.);
#530=EDGE_CURVE('',#63,#59,#533,.T.);
#531=LINE('',#58,#534);
#532=LINE('',#60,#535);
#533=LINE('',#62,#536);
#534=VECTOR('',#537,1.0);
#535=VECTOR('',#538,1.0);
#536=VECTOR('',#539,1.0);
#537=DIRECTION('',(0,-1,0));
#538=DIRECTION('',(0,0,-1));
#539=DIRECTION('',(0,0.10876846018027225,0.9940671114517432));
#540=FACE_SURFACE('',(#545),#541,.T.);
#541=PLANE('',#542);
#542=AXIS2_PLACEMENT_3D('',#58,#543,#544);
#543=DIRECTION('',(1,0,0));
#544=DIRECTION('',(0,-0.10876846018027225,-0.9940671114517432));
#545=FACE_BOUND('',#546,.T.);
#546=EDGE_LOOP('',(#547,#548,#549));
#547=ORIENTED_EDGE('',*,*,#550,.T.);
#548=ORIENTED_EDGE('',*,*,#551,.T.);
#549=ORIENTED_EDGE('',*,*,#552,.T.);
#550=EDGE_CURVE('',#59,#63,#553,.F.);
#551=EDGE_CURVE('',#63,#65,#554,.T.);
#552=EDGE_CURVE('',#65,#59,#555,.T.);
#553=LINE('',#58,#556);
#554=LINE('',#62,#557);
#555=LINE('',#64,#558);
#556=VECTOR('',#559,1.0);
#557=VECTOR('',#560,1.0);
#558=VECTOR('',#561,1.0);
#559=DIRECTION('',(0,-0.10876846018027225,-0.9940671114517432));
#560=DIRECTION('',(0,1,0));
#561=DIRECTION('',(0,0,1));
#562=FACE_SURFACE('',(#567),#563,.T.);
#563=PLANE('',#564);
#564=AXIS2_PLACEMENT_3D('',#50,#565,#566);
#565=DIRECTION('',(0,0,1));
#566=DIRECTION('',(0,-1,0));
#567=FACE_BOUND('',#568,.T.);
#568=EDGE_LOOP('',(#569,#570,#571));
#569=ORIENTED_EDGE('',*,*,#572,.T.);
#570=ORIENTED_EDGE('',*,*,#573,.T.);
#571=ORIENTED_EDGE('',*,*,#574,.T.);
#572=EDGE_CURVE('',#51,#57,#575,.F.);
#573=EDGE_CURVE('',#57,#61,#576,.T.);
#574=EDGE_CURVE('',#61,#51,#577,.T.);
#575=LINE('',#50,#578);
#576=LINE('',#56,#579);
#577=LINE('',#60,#580);
#578=VECTOR('',#581,1.0);
#579=VECTOR('',#582,1.0);
#580=VECTOR('',#583,1.0);
#581=DIRECTION('',(0,-1,0));
#582=DIRECTION('',(1,0,0));
#583=DIRECTION('',(-0.9771052977652424,0.21275628563945445,0));
#584=FACE_SURFACE('',(#589),#585,.T.);
#585=PLANE('',#586);
#586=AXIS2_PLACEMENT_3D('',#50,#587,#588);
#587=DIRECTION('',(-0,0,1));
#588=DIRECTION('',(0.9771052977652424,-0.21275628563945445,0));
#589=FACE_BOUND('',#590,.T.);
#590=EDGE_LOOP('',(#591,#592,#593));
#591=ORIENTED_EDGE('',*,*,#594,.T.);
#592=ORIENTED_EDGE('',*,*,#595,.T.);
#593=ORIENTED_EDGE('',*,*,#596,.T.);
#594=EDGE_CURVE('',#51,#61,#597,.F.);
#595=EDGE_CURVE('',#61,#59,#598,.T.);
#596=EDGE_CURVE('',#59,#51,#599,.T.);
#597=LINE('',#50,#600);
#598=LINE('',#60,#601);
#599=LINE('',#58,#602);
#600=VECTOR('',#603,1.0);
#601=VECTOR('',#604,1.0);
#602=VECTOR('',#605,1.0);
#603=DIRECTION('',(0.9771052977652424,-0.21275628563945445,0));
#604=DIRECTION('',(0,1,0));
#605=DIRECTION('',(-1,0,0));
#606=FACE_SURFACE('',(#611),#607,.T.);
#607=PLANE('',#608);
#608=AXIS2_PLACEMENT_3D('',#56,#609,#610);
#609=DIRECTION('',(0,-1,0));
#610=DIRECTION('',(0,0,-1));
#611=FACE_BOUND('',#612,.T.);
#612=EDGE_LOOP('',(#613,#614,#615));
#613=ORIENTED_EDGE('',*,*,#616,.T.);
#614=ORIENTED_EDGE('',*,*,#617,.T.);
#615=ORIENTED_EDGE('',*,*,#618,.T.);
#616=EDGE_CURVE('',#57,#55,#619,.F.);
#617=EDGE_CURVE('',#55,#63,#620,.T.);
#618=EDGE_CURVE('',#63,#57,#621,.T.);
#619=LINE('',#56,#622);
#620=LINE('',#54,#623);
#621=LINE('',#62,#624);
#622=VECTOR('',#625,1.0);
#623=VECTOR('',#626,1.0);
#624=VECTOR('',#627,1.0);
#625=DIRECTION('',(0,0,-1));
#626=DIRECTION('',(1,0,0));
#627=DIRECTION('',(-0.4490081671471799,0,0.8935276525296405));
#628=FACE_SURFACE('',(#633),#629,.T.);
#629=PLANE('',#630);
#630=AXIS2_PLACEMENT_3D('',#56,#631,#632);
#631=DIRECTION('',(0,-1,0));
#632=DIRECTION('',(0.4490081671471799,0,-0.8935276525296405));
#633=FACE_BOUND('',#634,.T.);
#634=EDGE_LOOP('',(#635,#636,#637));
#635=ORIENTED_EDGE('',*,*,#638,.T.);
#636=ORIENTED_EDGE('',*,*,#639,.T.);
#637=ORIENTED_EDGE('',*,*,#640,.T.);
#638=EDGE_CURVE('',#57,#63,#641,.F.);
#639=EDGE_CURVE('',#63,#61,#642,.T.);
#640=EDGE_CURVE('',#61,#57,#643,.T.);
#641=LINE('',#56,#644);
#642=LINE('',#62,#645);
#643=LINE('',#60,#646);
#644=VECTOR('',#647,1.0);
#645=VECTOR('',#648,1.0);
#646=VECTOR('',#649,1.0);
#647=DIRECTION('',(0.4490081671471799,0,-0.8935276525296405));
#648=DIRECTION('',(0,0,1));
#649=DIRECTION('',(-1,0,0));
#650=FACE_SURFACE('',(#655),#651,.T.);
#651=PLANE('',#652);
#652=AXIS2_PLACEMENT_3D('',#54,#653,#654);
#653=DIRECTION('',(0,0,-1));
#654=DIRECTION('',(0,1,0));
#655=FACE_BOUND('',#656,.T.);
#656=EDGE_LOOP('',(#657,#658,#659));
#657=ORIENTED_EDGE('',*,*,#660,.T.);
#658=ORIENTED_EDGE('',*,*,#661,.T.);
#659=ORIENTED_EDGE('',*,*,#662,.T.);
#660=EDGE_CURVE('',#55,#53,#663,.F.);
#661=EDGE_CURVE('',#53,#65,#664,.T.);
#662=EDGE_CURVE('',#65,#55,#665,.T.);
#663=LINE('',#54,#666);
#664=LINE('',#52,#667);
#665=LINE('',#64,#668);
#666=VECTOR('',#669,1.0);
#667=VECTOR('',#670,1.0);
#668=VECTOR('',#671,1.0);
#669=DIRECTION('',(0,1,0));
#670=DIRECTION('',(1,0,0));
#671=DIRECTION('',(-0.9771052977652424,-0.21275628563945445,0));
#672=FACE_SURFACE('',(#677),#673,.T.);
#673=PLANE('',#674);
#674=AXIS2_PLACEMENT_3D('',#54,#675,#676);
#675=DIRECTION('',(0,0,-1));
#676=DIRECTION('',(0.9771052977652424,0.21275628563945445,0));
#677=FACE_BOUND('',#678,.T.);
#678=EDGE_LOOP('',(#679,#680,#681));
#679=ORIENTED_EDGE('',*,*,#682,.T.);
#680=ORIENTED_EDGE('',*,*,#683,.T.);
#681=ORIENTED_EDGE('',*,*,#684,.T.);
#682=EDGE_CURVE('',#55,#65,#685,.F.);
#683=EDGE_CURVE('',#65,#63,#686,.T.);
#684=EDGE_CURVE('',#63,#55,#687,.T.);
#685=LINE('',#54,#688);
#686=LINE('',#64,#689);
#687=LINE('',#62,#690);
#688=VECTOR('',#691,1.0);
#689=VECTOR('',#692,1.0);
#690=VECTOR('',#693,1.0);
#691=DIRECTION('',(0.9771052977652424,0.21275628563945445,0));
#692=DIRECTION('',(0,-1,0));
#693=DIRECTION('',(-1,0,0));
#694=FACE_SURFACE('',(#699),#695,.T.);
#695=PLANE('',#696);
#696=AXIS2_PLACEMENT_3D('',#52,#697,#698);
#697=DIRECTION('',(0,1,0));
#698=DIRECTION('',(0,0,1));
#699=FACE_BOUND('',#700,.T.);
#700=EDGE_LOOP('',(#701,#702,#703));
#701=ORIENTED_EDGE('',*,*,#704,.T.);
#702=ORIENTED_EDGE('',*,*,#705,.T.);
#703=ORIENTED_EDGE('',*,*,#706,.T.);
#704=EDGE_CURVE('',#53,#51,#707,.F.);
#705=EDGE_CURVE('',#51,#59,#708,.T.);
#706=EDGE_CURVE('',#59,#53,#709,.T.);
#707=LINE('',#52,#710);
#708=LINE('',#50,#711);
#709=LINE('',#58,#712);
#710=VECTOR('',#713,1.0);
#711=VECTOR('',#714,1.0);
#712=VECTOR('',#715,1.0);
#713=DIRECTION('',(0,0,1));
#714=DIRECTION('',(1,0,0));
#715=DIRECTION('',(-0.4490081671471799,0,-0.8935276525296405));
#716=FACE_SURFACE('',(#721),#717,.T.);
#717=PLANE('',#718);
#718=AXIS2_PLACEMENT_3D('',#52,#719,#720);
#719=DIRECTION('',(0,1,0));
#720=DIRECTION('',(0.4490081671471799,0,0.8935276525296405));
#721=FACE_BOUND('',#722,.T.);
#722=EDGE_LOOP('',(#723,#724,#725));
#723=ORIENTED_EDGE('',*,*,#726,.T.);
#724=ORIENTED_EDGE('',*,*,#727,.T.);
#725=ORIENTED_EDGE('',*,*,#728,.T.);
#726=EDGE_CURVE('',#53,#59,#729,.F.);
#727=EDGE_CURVE('',#59,#65,#730,.T.);
#728=EDGE_CURVE('',#65,#53,#731,.T.);
#729=LINE('',#52,#732);
#730=LINE('',#58,#733);
#731=LINE('',#64,#734);
#732=VECTOR('',#735,1.0);
#733=VECTOR('',#736,1.0);
#734=VECTOR('',#737,1.0);
#735=DIRECTION('',(0.4490081671471799,0,0.8935276525296405));
#736=DIRECTION('',(0,0,-1));
#737=DIRECTION('',(-1,0,0));
#738=FACE_SURFACE('',(#743),#739,.T.);
#739=PLANE('',#740);
#740=AXIS2_PLACEMENT_3D('',#66,#741,#742);
#741=DIRECTION('',(-0,1,0));
#742=DIRECTION('',(1,0,0));
#743=FACE_BOUND('',#744,.T.);
#744=EDGE_LOOP('',(#745,#746,#747));
#745=ORIENTED_EDGE('',*,*,#748,.T.);
#746=ORIENTED_EDGE('',*,*,#749,.T.);
#747=ORIENTED_EDGE('',*,*,#750,.T.);
#748=EDGE_CURVE('',#67,#69,#751,.F.);
#749=EDGE_CURVE('',#69,#71,#752,.T.);
#750=EDGE_CURVE('',#71,#67,#753,.T.);
#751=LINE('',#66,#754);
#752=LINE('',#68,#755);
#753=LINE('',#70,#756);
#754=VECTOR('',#757,1.0);
#755=VECTOR('',#758,1.0);
#756=VECTOR('',#759,1.0);
#757=DIRECTION('',(1,0,0));
#758=DIRECTION('',(0,0,-1));
#759=DIRECTION('',(-0.9535826621000744,0,0.3011313775449771));
#760=FACE_SURFACE('',(#765),#761,.T.);
#761=PLANE('',#762);
#762=AXIS2_PLACEMENT_3D('',#66,#763,#764);
#763=DIRECTION('',(0,1,0));
#764=DIRECTION('',(0.9535826621000744,0,-0.3011313775449771));
#765=FACE_BOUND('',#766,.T.);
#766=EDGE_LOOP('',(#767,#768,#769));
#767=ORIENTED_EDGE('',*,*,#770,.T.);
#768=ORIENTED_EDGE('',*,*,#771,.T.);
#769=ORIENTED_EDGE('',*,*,#772,.T.);
#770=EDGE_CURVE('',#67,#71,#773,.F.);
#771=EDGE_CURVE('',#71,#73,#774,.T.);
#772=EDGE_CURVE('',#73,#67,#775,.T.);
#773=LINE('',#66,#776);
#774=LINE('',#70,#777);
#775=LINE('',#72,#778);
#776=VECTOR('',#779,1.0);
#777=VECTOR('',#780,1.0);
#778=VECTOR('',#781,1.0);
#779=DIRECTION('',(0.9535826621000744,0,-0.3011313775449771));
#780=DIRECTION('',(-1,0,0));
#781=DIRECTION('',(0,0,1));
#782=FACE_SURFACE('',(#787),#783,.T.);
#783=PLANE('',#784);
#784=AXIS2_PLACEMENT_3D('',#74,#785,#786);
#785=DIRECTION('',(0,-1,0));
#786=DIRECTION('',(0,0,-1));
#787=FACE_BOUND('',#788,.T.);
#788=EDGE_LOOP('',(#789,#790,#791));
#789=ORIENTED_EDGE('',*,*,#792,.T.);
#790=ORIENTED_EDGE('',*,*,#793,.T.);
#791=ORIENTED_EDGE('',*,*,#794,.T.);
#792=EDGE_CURVE('',#75,#77,#795,.F.);
#793=EDGE_CURVE('',#77,#79,#796,.T.);
#794=EDGE_CURVE('',#79,#75,#797,.T.);
#795=LINE('',#74,#798);
#796=LINE('',#76,#799);
#797=LINE('',#78,#800);
#798=VECTOR('',#801,1.0);
#799=VECTOR('',#802,1.0);
#800=VECTOR('',#803,1.0);
#801=DIRECTION('',(0,0,-1));
#802=DIRECTION('',(1,0,0));
#803=DIRECTION('',(-0.9535826621000744,0,0.3011313775449771));
#804=FACE_SURFACE('',(#809),#805,.T.);
#805=PLANE('',#806);
#806=AXIS2_PLACEMENT_3D('',#74,#807,#808);
#807=DIRECTION('',(0,-1,0));
#808=DIRECTION('',(0.9535826621000744,0,-0.3011313775449771));
#809=FACE_BOUND('',#810,.T.);
#810=EDGE_LOOP('',(#811,#812,#813));
#811=ORIENTED_EDGE('',*,*,#814,.T.);
#812=ORIENTED_EDGE('',*,*,#815,.T.);
#813=ORIENTED_EDGE('',*,*,#816,.T.);
#814=EDGE_CURVE('',#75,#79,#817,.F.);
#815=EDGE_CURVE('',#79,#81,#818,.T.);
#816=EDGE_CURVE('',#81,#75,#819,.T.);
#817=LINE('',#74,#820);
#818=LINE('',#78,#821);
#819=LINE('',#80,#822);
#820=VECTOR('',#823,1.0);
#821=VECTOR('',#824,1.0);
#822=VECTOR('',#825,1.0);
#823=DIRECTION('',(0.9535826621000744,0,-0.3011313775449771));
#824=DIRECTION('',(0,0,1));
#825=DIRECTION('',(-1,0,0));
#826=FACE_SURFACE('',(#831),#827,.T.);
#827=PLANE('',#828);
#828=AXIS2_PLACEMENT_3D('',#68,#829,#830);
#829=DIRECTION('',(1,0,0));
#830=DIRECTION('',(0,-1,0));
#831=FACE_BOUND('',#832,.T.);
#832=EDGE_LOOP('',(#833,#834,#835));
#833=ORIENTED_EDGE('',*,*,#836,.T.);
#834=ORIENTED_EDGE('',*,*,#837,.T.);
#835=ORIENTED_EDGE('',*,*,#838,.T.);
#836=EDGE_CURVE('',#69,#81,#839,.F.);
#837=EDGE_CURVE('',#81,#79,#840,.T.);
#838=EDGE_CURVE('',#79,#69,#841,.T.);
#839=LINE('',#68,#842);
#840=LINE('',#80,#843);
#841=LINE('',#78,#844);
#842=VECTOR('',#845,1.0);
#843=VECTOR('',#846,1.0);
#844=VECTOR('',#847,1.0);
#845=DIRECTION('',(0,-1,0));
#846=DIRECTION('',(0,0,-1));
#847=DIRECTION('',(0,0.09950373544074352,0.9950371885680145));
#848=FACE_SURFACE('',(#853),#849,.T.);
#849=PLANE('',#850);
#850=AXIS2_PLACEMENT_3D('',#68,#851,#852);
#851=DIRECTION('',(1,0,0));
#852=DIRECTION('',(0,-0.09950373544074352,-0.9950371885680145));
#853=FACE_BOUND('',#854,.T.);
#854=EDGE_LOOP('',(#855,#856,#857));
#855=ORIENTED_EDGE('',*,*,#858,.T.);
#856=ORIENTED_EDGE('',*,*,#859,.T.);
#857=ORIENTED_EDGE('',*,*,#860,.T.);
#858=EDGE_CURVE('',#69,#79,#861,.F.);
#859=EDGE_CURVE('',#79,#71,#862,.T.);
#860=EDGE_CURVE('',#71,#69,#863,.T.);
#861=LINE('',#68,#864);
#862=LINE('',#78,#865);
#863=LINE('',#70,#866);
#864=VECTOR('',#867,1.0);
#865=VECTOR('',#868,1.0);
#866=VECTOR('',#869,1.0);
#867=DIRECTION('',(0,-0.09950373544074352,-0.9950371885680145));
#868=DIRECTION('',(0,1,0));
#869=DIRECTION('',(0,0,1));
#870=FACE_SURFACE('',(#875),#871,.T.);
#871=PLANE('',#872);
#872=AXIS2_PLACEMENT_3D('',#82,#873,#874);
#873=DIRECTION('',(-1,0,0));
#874=DIRECTION('',(0,-1,0));
#875=FACE_BOUND('',#876,.T.);
#876=EDGE_LOOP('',(#877,#878,#879));
#877=ORIENTED_EDGE('',*,*,#880,.T.);
#878=ORIENTED_EDGE('',*,*,#881,.T.);
#879=ORIENTED_EDGE('',*,*,#882,.T.);
#880=EDGE_CURVE('',#83,#85,#883,.F.);
#881=EDGE_CURVE('',#85,#87,#884,.T.);
#882=EDGE_CURVE('',#87,#83,#885,.T.);
#883=LINE('',#82,#886);
#884=LINE('',#84,#887);
#885=LINE('',#86,#888);
#886=VECTOR('',#889,1.0);
#887=VECTOR('',#890,1.0);
#888=VECTOR('',#891,1.0);
#889=DIRECTION('',(0,-1,0));
#890=DIRECTION('',(0,0,1));
#891=DIRECTION('',(0,0.09950373544074352,-0.9950371885680145));
#892=FACE_SURFACE('',(#897),#893,.T.);
#893=PLANE('',#894);
#894=AXIS2_PLACEMENT_3D('',#82,#895,#896);
#895=DIRECTION('',(-1,0,0));
#896=DIRECTION('',(0,-0.09950373544074352,0.9950371885680145));
#897=FACE_BOUND('',#898,.T.);
#898=EDGE_LOOP('',(#899,#900,#901));
#899=ORIENTED_EDGE('',*,*,#902,.T.);
#900=ORIENTED_EDGE('',*,*,#903,.T.);
#901=ORIENTED_EDGE('',*,*,#904,.T.);
#902=EDGE_CURVE('',#83,#87,#905,.F.);
#903=EDGE_CURVE('',#87,#89,#906,.T.);
#904=EDGE_CURVE('',#89,#83,#907,.T.);
#905=LINE('',#82,#908);
#906=LINE('',#86,#909);
#907=LINE('',#88,#910);
#908=VECTOR('',#911,1.0);
#909=VECTOR('',#912,1.0);
#910=VECTOR('',#913,1.0);
#911=DIRECTION('',(0,-0.09950373544074352,0.9950371885680145));
#912=DIRECTION('',(0,1,0));
#913=DIRECTION('',(0,0,-1));
#914=FACE_SURFACE('',(#919),#915,.T.);
#915=PLANE('',#916);
#916=AXIS2_PLACEMENT_3D('',#66,#917,#918);
#917=DIRECTION('',(0,0,1));
#918=DIRECTION('',(0,-1,0));
#919=FACE_BOUND('',#920,.T.);
#920=EDGE_LOOP('',(#921,#922,#923));
#921=ORIENTED_EDGE('',*,*,#924,.T.);
#922=ORIENTED_EDGE('',*,*,#925,.T.);
#923=ORIENTED_EDGE('',*,*,#926,.T.);
#924=EDGE_CURVE('',#67,#75,#927,.F.);
#925=EDGE_CURVE('',#75,#81,#928,.T.);
#926=EDGE_CURVE('',#81,#67,#929,.T.);
#927=LINE('',#66,#930);
#928=LINE('',#74,#931);
#929=LINE('',#80,#932);
#930=VECTOR('',#933,1.0);
#931=VECTOR('',#934,1.0);
#932=VECTOR('',#935,1.0);
#933=DIRECTION('',(0,-1,0));
#934=DIRECTION('',(1,0,0));
#935=DIRECTION('',(-0.9995017574563316,0.03156321976137055,0));
#936=FACE_SURFACE('',(#941),#937,.T.);
#937=PLANE('',#938);
#938=AXIS2_PLACEMENT_3D('',#66,#939,#940);
#939=DIRECTION('',(-0,0,1));
#940=DIRECTION('',(0.9995017574563316,-0.03156321976137055,0));
#941=FACE_BOUND('',#942,.T.);
#942=EDGE_LOOP('',(#943,#944,#945));
#943=ORIENTED_EDGE('',*,*,#946,.T.);
#944=ORIENTED_EDGE('',*,*,#947,.T.);
#945=ORIENTED_EDGE('',*,*,#948,.T.);
#946=EDGE_CURVE('',#67,#81,#949,.F.);
#947=EDGE_CURVE('',#81,#69,#950,.T.);
#948=EDGE_CURVE('',#69,#67,#951,.T.);
#949=LINE('',#66,#952);
#950=LINE('',#80,#953);
#951=LINE('',#68,#954);
#952=VECTOR('',#955,1.0);
#953=VECTOR('',#956,1.0);
#954=VECTOR('',#957,1.0);
#955=DIRECTION('',(0.9995017574563316,-0.03156321976137055,0));
#956=DIRECTION('',(0,1,0));
#957=DIRECTION('',(-1,0,0));
#958=FACE_SURFACE('',(#963),#959,.T.);
#959=PLANE('',#960);
#960=AXIS2_PLACEMENT_3D('',#70,#961,#962);
#961=DIRECTION('',(0,-0,-1));
#962=DIRECTION('',(0,-1,0));
#963=FACE_BOUND('',#964,.T.);
#964=EDGE_LOOP('',(#965,#966,#967));
#965=ORIENTED_EDGE('',*,*,#968,.T.);
#966=ORIENTED_EDGE('',*,*,#969,.T.);
#967=ORIENTED_EDGE('',*,*,#970,.T.);
#968=EDGE_CURVE('',#71,#79,#971,.F.);
#969=EDGE_CURVE('',#79,#77,#972,.T.);
#970=EDGE_CURVE('',#77,#71,#973,.T.);
#971=LINE('',#70,#974);
#972=LINE('',#78,#975);
#973=LINE('',#76,#976);
#974=VECTOR('',#977,1.0);
#975=VECTOR('',#978,1.0);
#976=VECTOR('',#979,1.0);
#977=DIRECTION('',(0,-1,0));
#978=DIRECTION('',(-1,0,0));
#979=DIRECTION('',(0.9995017574563316,0.03156321976137055,0));
#980=FACE_SURFACE('',(#985),#981,.T.);
#981=PLANE('',#982);
#982=AXIS2_PLACEMENT_3D('',#70,#983,#984);
#983=DIRECTION('',(-0,0,-1));
#984=DIRECTION('',(-0.9995017574563316,-0.03156321976137055,0));
#985=FACE_BOUND('',#986,.T.);
#986=EDGE_LOOP('',(#987,#988,#989));
#987=ORIENTED_EDGE('',*,*,#990,.T.);
#988=ORIENTED_EDGE('',*,*,#991,.T.);
#989=ORIENTED_EDGE('',*,*,#992,.T.);
#990=EDGE_CURVE('',#71,#77,#993,.F.);
#991=EDGE_CURVE('',#77,#73,#994,.T.);
#992=EDGE_CURVE('',#73,#71,#995,.T.);
#993=LINE('',#70,#996);
#994=LINE('',#76,#997);
#995=LINE('',#72,#998);
#996=VECTOR('',#999,1.0);
#997=VECTOR('',#1000,1.0);
#998=VECTOR('',#1001,1.0);
#999=DIRECTION('',(-0.9995017574563316,-0.03156321976137055,0));
#1000=DIRECTION('',(0,1,0));
#1001=DIRECTION('',(1,0,0));
#1002=FACE_SURFACE('',(#1007),#1003,.T.);
#1003=PLANE('',#1004);
#1004=AXIS2_PLACEMENT_3D('',#90,#1005,#1006);
#1005=DIRECTION('',(-0,1,0));
#1006=DIRECTION('',(1,0,0));
#1007=FACE_BOUND('',#1008,.T.);
#1008=EDGE_LOOP('',(#1009,#1010,#1011));
#1009=ORIENTED_EDGE('',*,*,#1012,.T.);
#1010=ORIENTED_EDGE('',*,*,#1013,.T.);
#1011=ORIENTED_EDGE('',*,*,#1014,.T.);
#1012=EDGE_CURVE('',#91,#93,#1015,.F.);
#1013=EDGE_CURVE('',#93,#95,#1016,.T.);
#1014=EDGE_CURVE('',#95,#91,#1017,.T.);
#1015=LINE('',#90,#1018);
#1016=LINE('',#92,#1019);
#1017=LINE('',#94,#1020);
#1018=VECTOR('',#1021,1.0);
#1019=VECTOR('',#1022,1.0);
#1020=VECTOR('',#1023,1.0);
#1021=DIRECTION('',(1,0,0));
#1022=DIRECTION('',(0,0,-1));
#1023=DIRECTION('',(-0.9653095107216173,0,0.2611083080072171));
#1024=FACE_SURFACE('',(#1029),#1025,.T.);
#1025=PLANE('',#1026);
#1026=AXIS2_PLACEMENT_3D('',#90,#1027,#1028);
#1027=DIRECTION('',(0,1,0));
#1028=DIRECTION('',(0.9653095107216173,0,-0.2611083080072171));
#1029=FACE_BOUND('',#1030,.T.);
#1030=EDGE_LOOP('',(#1031,#1032,#1033));
#1031=ORIENTED_EDGE('',*,*,#1034,.T.);
#1032=ORIENTED_EDGE('',*,*,#1035,.T.);
#1033=ORIENTED_EDGE('',*,*,#1036,.T.);
#1034=EDGE_CURVE('',#91,#95,#1037,.F.);
#1035=EDGE_CURVE('',#95,#97,#1038,.T.);
#1036=EDGE_CURVE('',#97,#91,#1039,.T.);
#1037=LINE('',#90,#1040);
#1038=LINE('',#94,#1041);
#1039=LINE('',#96,#1042);
#1040=VECTOR('',#1043,1.0);
#1041=VECTOR('',#1044,1.0);
#1042=VECTOR('',#1045,1.0);
#1043=DIRECTION('',(0.9653095107216173,0,-0.2611083080072171));
#1044=DIRECTION('',(-1,0,0));
#1045=DIRECTION('',(0,0,1));
#1046=FACE_SURFACE('',(#1051),#1047,.T.);
#1047=PLANE('',#1048);
#1048=AXIS2_PLACEMENT_3D('',#98,#1049,#1050);
#1049=DIRECTION('',(-1,0,0));
#1050=DIRECTION('',(0,1,0));
#1051=FACE_BOUND('',#1052,.T.);
#1052=EDGE_LOOP('',(#1053,#1054,#1055));
#1053=ORIENTED_EDGE('',*,*,#1056,.T.);
#1054=ORIENTED_EDGE('',*,*,#1057,.T.);
#1055=ORIENTED_EDGE('',*,*,#1058,.T.);
#1056=EDGE_CURVE('',#99,#101,#1059,.F.);
#1057=EDGE_CURVE('',#101,#103,#1060,.T.);
#1058=EDGE_CURVE('',#103,#99,#1061,.T.);
#1059=LINE('',#98,#1062);
#1060=LINE('',#100,#1063);
#1061=LINE('',#102,#1064);
#1062=VECTOR('',#1065,1.0);
#1063=VECTOR('',#1066,1.0);
#1064=VECTOR('',#1067,1.0);
#1065=DIRECTION('',(0,1,0));
#1066=DIRECTION('',(0,0,-1));
#1067=DIRECTION('',(0,-0.9989738257555136,0.04529122934291611));
#1068=FACE_SURFACE('',(#1073),#1069,.T.);
#1069=PLANE('',#1070);
#1070=AXIS2_PLACEMENT_3D('',#98,#1071,#1072);
#1071=DIRECTION('',(-1,0,0));
#1072=DIRECTION('',(0,0.9989738257555136,-0.04529122934291611));
#1073=FACE_BOUND('',#1074,.T.);
#1074=EDGE_LOOP('',(#1075,#1076,#1077));
#1075=ORIENTED_EDGE('',*,*,#1078,.T.);
#1076=ORIENTED_EDGE('',*,*,#1079,.T.);
#1077=ORIENTED_EDGE('',*,*,#1080,.T.);
#1078=EDGE_CURVE('',#99,#103,#1081,.F.);
#1079=EDGE_CURVE('',#103,#105,#1082,.T.);
#1080=EDGE_CURVE('',#105,#99,#1083,.T.);
#1081=LINE('',#98,#1084);
#1082=LINE('',#102,#1085);
#1083=LINE('',#104,#1086);
#1084=VECTOR('',#1087,1.0);
#1085=VECTOR('',#1088,1.0);
#1086=VECTOR('',#1089,1.0);
#1087=DIRECTION('',(0,0.9989738257555136,-0.04529122934291611));
#1088=DIRECTION('',(0,-1,0));
#1089=DIRECTION('',(0,0,1));
#1090=FACE_SURFACE('',(#1095),#1091,.T.);
#1091=PLANE('',#1092);
#1092=AXIS2_PLACEMENT_3D('',#104,#1093,#1094);
#1093=DIRECTION('',(0,0,-1));
#1094=DIRECTION('',(0,1,0));
#1095=FACE_BOUND('',#1096,.T.);
#1096=EDGE_LOOP('',(#1097,#1098,#1099));
#1097=ORIENTED_EDGE('',*,*,#1100,.T.);
#1098=ORIENTED_EDGE('',*,*,#1101,.T.);
#1099=ORIENTED_EDGE('',*,*,#1102,.T.);
#1100=EDGE_CURVE('',#105,#103,#1103,.F.);
#1101=EDGE_CURVE('',#103,#107,#1104,.T.);
#1102=EDGE_CURVE('',#107,#105,#1105,.T.);
#1103=LINE('',#104,#1106);
#1104=LINE('',#102,#1107);
#1105=LINE('',#106,#1108);
#1106=VECTOR('',#1109,1.0);
#1107=VECTOR('',#1110,1.0);
#1108=VECTOR('',#1111,1.0);
#1109=DIRECTION('',(0,1,0));
#1110=DIRECTION('',(1,0,0));
#1111=DIRECTION('',(-0.04529131241997548,-0.998973821988983,0));
#1112=FACE_SURFACE('',(#1117),#1113,.T.);
#1113=PLANE('',#1114);
#1114=AXIS2_PLACEMENT_3D('',#104,#1115,#1116);
#1115=DIRECTION('',(0,0,-1));
#1116=DIRECTION('',(0.04529131241997548,0.998973821988983,0));
#1117=FACE_BOUND('',#1118,.T.);
#1118=EDGE_LOOP('',(#1119,#1120,#1121));
#1119=ORIENTED_EDGE('',*,*,#1122,.T.);
#1120=ORIENTED_EDGE('',*,*,#1123,.T.);
#1121=ORIENTED_EDGE('',*,*,#1124,.T.);
#1122=EDGE_CURVE('',#105,#107,#1125,.F.);
#1123=EDGE_CURVE('',#107,#109,#1126,.T.);
#1124=EDGE_CURVE('',#109,#105,#1127,.T.);
#1125=LINE('',#104,#1128);
#1126=LINE('',#106,#1129);
#1127=LINE('',#108,#1130);
#1128=VECTOR('',#1131,1.0);
#1129=VECTOR('',#1132,1.0);
#1130=VECTOR('',#1133,1.0);
#1131=DIRECTION('',(0.04529131241997548,0.998973821988983,0));
#1132=DIRECTION('',(0,-1,0));
#1133=DIRECTION('',(-1,0,0));
#1134=FACE_SURFACE('',(#1139),#1135,.T.);
#1135=PLANE('',#1136);
#1136=AXIS2_PLACEMENT_3D('',#108,#1137,#1138);
#1137=DIRECTION('',(1,0,0));
#1138=DIRECTION('',(0,1,0));
#1139=FACE_BOUND('',#1140,.T.);
#1140=EDGE_LOOP('',(#1141,#1142,#1143));
#1141=ORIENTED_EDGE('',*,*,#1144,.T.);
#1142=ORIENTED_EDGE('',*,*,#1145,.T.);
#1143=ORIENTED_EDGE('',*,*,#1146,.T.);
#1144=EDGE_CURVE('',#109,#107,#1147,.F.);
#1145=EDGE_CURVE('',#107,#111,#1148,.T.);
#1146=EDGE_CURVE('',#111,#109,#1149,.T.);
#1147=LINE('',#108,#1150);
#1148=LINE('',#106,#1151);
#1149=LINE('',#110,#1152);
#1150=VECTOR('',#1153,1.0);
#1151=VECTOR('',#1154,1.0);
#1152=VECTOR('',#1155,1.0);
#1153=DIRECTION('',(0,1,0));
#1154=DIRECTION('',(0,0,1));
#1155=DIRECTION('',(0,-0.9989738257555136,-0.04529122934291611));
#1156=FACE_SURFACE('',(#1161),#1157,.T.);
#1157=PLANE('',#1158);
#1158=AXIS2_PLACEMENT_3D('',#108,#1159,#1160);
#1159=DIRECTION('',(1,0,0));
#1160=DIRECTION('',(0,0.9989738257555136,0.04529122934291611));
#1161=FACE_BOUND('',#1162,.T.);
#1162=EDGE_LOOP('',(#1163,#1164,#1165));
#1163=ORIENTED_EDGE('',*,*,#1166,.T.);
#1164=ORIENTED_EDGE('',*,*,#1167,.T.);
#1165=ORIENTED_EDGE('',*,*,#1168,.T.);
#1166=EDGE_CURVE('',#109,#111,#1169,.F.);
#1167=EDGE_CURVE('',#111,#113,#1170,.T.);
#1168=EDGE_CURVE('',#113,#109,#1171,.T.);
#1169=LINE('',#108,#1172);
#1170=LINE('',#110,#1173);
#1171=LINE('',#112,#1174);
#1172=VECTOR('',#1175,1.0);
#1173=VECTOR('',#1176,1.0);
#1174=VECTOR('',#1177,1.0);
#1175=DIRECTION('',(0,0.9989738257555136,0.04529122934291611));
#1176=DIRECTION('',(0,-1,0));
#1177=DIRECTION('',(0,0,-1));
#1178=FACE_SURFACE('',(#1183),#1179,.T.);
#1179=PLANE('',#1180);
#1180=AXIS2_PLACEMENT_3D('',#112,#1181,#1182);
#1181=DIRECTION('',(0,-0,1));
#1182=DIRECTION('',(0,1,0));
#1183=FACE_BOUND('',#1184,.T.);
#1184=EDGE_LOOP('',(#1185,#1186,#1187));
#1185=ORIENTED_EDGE('',*,*,#1188,.T.);
#1186=ORIENTED_EDGE('',*,*,#1189,.T.);
#1187=ORIENTED_EDGE('',*,*,#1190,.T.);
#1188=EDGE_CURVE('',#113,#111,#1191,.F.);
#1189=EDGE_CURVE('',#111,#115,#1192,.T.);
#1190=EDGE_CURVE('',#115,#113,#1193,.T.);
#1191=LINE('',#112,#1194);
#1192=LINE('',#110,#1195);
#1193=LINE('',#114,#1196);
#1194=VECTOR('',#1197,1.0);
#1195=VECTOR('',#1198,1.0);
#1196=VECTOR('',#1199,1.0);
#1197=DIRECTION('',(0,1,0));
#1198=DIRECTION('',(-1,0,0));
#1199=DIRECTION('',(0.04529131241997548,-0.998973821988983,0));
#1200=FACE_SURFACE('',(#1205),#1201,.T.);
#1201=PLANE('',#1202);
#1202=AXIS2_PLACEMENT_3D('',#112,#1203,#1204);
#1203=DIRECTION('',(0,0,1));
#1204=DIRECTION('',(-0.04529131241997548,0.998973821988983,0));
#1205=FACE_BOUND('',#1206,.T.);
#1206=EDGE_LOOP('',(#1207,#1208,#1209));
#1207=ORIENTED_EDGE('',*,*,#1210,.T.);
#1208=ORIENTED_EDGE('',*,*,#1211,.T.);
#1209=ORIENTED_EDGE('',*,*,#1212,.T.);
#1210=EDGE_CURVE('',#113,#115,#1213,.F.);
#1211=EDGE_CURVE('',#115,#117,#1214,.T.);
#1212=EDGE_CURVE('',#117,#113,#1215,.T.);
#1213=LINE('',#112,#1216);
#1214=LINE('',#114,#1217);
#1215=LINE('',#116,#1218);
#1216=VECTOR('',#1219,1.0);
#1217=VECTOR('',#1220,1.0);
#1218=VECTOR('',#1221,1.0);
#1219=DIRECTION('',(-0.04529131241997548,0.998973821988983,0));
#1220=DIRECTION('',(0,-1,0));
#1221=DIRECTION('',(1,0,0));
#1222=FACE_SURFACE('',(#1227),#1223,.T.);
#1223=PLANE('',#1224);
#1224=AXIS2_PLACEMENT_3D('',#118,#1225,#1226);
#1225=DIRECTION('',(0,-1,0));
#1226=DIRECTION('',(1,0,0));
#1227=FACE_BOUND('',#1228,.T.);
#1228=EDGE_LOOP('',(#1229,#1230,#1231));
#1229=ORIENTED_EDGE('',*,*,#1232,.T.);
#1230=ORIENTED_EDGE('',*,*,#1233,.T.);
#1231=ORIENTED_EDGE('',*,*,#1234,.T.);
#1232=EDGE_CURVE('',#119,#109,#1235,.F.);
#1233=EDGE_CURVE('',#109,#113,#1236,.T.);
#1234=EDGE_CURVE('',#113,#119,#1237,.T.);
#1235=LINE('',#118,#1238);
#1236=LINE('',#108,#1239);
#1237=LINE('',#112,#1240);
#1238=VECTOR('',#1241,1.0);
#1239=VECTOR('',#1242,1.0);
#1240=VECTOR('',#1243,1.0);
#1241=DIRECTION('',(1,0,0));
#1242=DIRECTION('',(0,0,1));
#1243=DIRECTION('',(-0.7071074310366597,0,-0.7071061313358381));
#1244=FACE_SURFACE('',(#1249),#1245,.T.);
#1245=PLANE('',#1246);
#1246=AXIS2_PLACEMENT_3D('',#118,#1247,#1248);
#1247=DIRECTION('',(0,-1,0));
#1248=DIRECTION('',(0.7071074310366597,0,0.7071061313358381));
#1249=FACE_BOUND('',#1250,.T.);
#1250=EDGE_LOOP('',(#1251,#1252,#1253));
#1251=ORIENTED_EDGE('',*,*,#1254,.T.);
#1252=ORIENTED_EDGE('',*,*,#1255,.T.);
#1253=ORIENTED_EDGE('',*,*,#1256,.T.);
#1254=EDGE_CURVE('',#119,#113,#1257,.F.);
#1255=EDGE_CURVE('',#113,#121,#1258,.T.);
#1256=EDGE_CURVE('',#121,#119,#1259,.T.);
#1257=LINE('',#118,#1260);
#1258=LINE('',#112,#1261);
#1259=LINE('',#120,#1262);
#1260=VECTOR('',#1263,1.0);
#1261=VECTOR('',#1264,1.0);
#1262=VECTOR('',#1265,1.0);
#1263=DIRECTION('',(0.7071074310366597,0,0.7071061313358381));
#1264=DIRECTION('',(-1,0,0));
#1265=DIRECTION('',(0,0,-1));
#1266=FACE_SURFACE('',(#1271),#1267,.T.);
#1267=PLANE('',#1268);
#1268=AXIS2_PLACEMENT_3D('',#106,#1269,#1270);
#1269=DIRECTION('',(0,1,0));
#1270=DIRECTION('',(-1,0,0));
#1271=FACE_BOUND('',#1272,.T.);
#1272=EDGE_LOOP('',(#1273,#1274,#1275));
#1273=ORIENTED_EDGE('',*,*,#1276,.T.);
#1274=ORIENTED_EDGE('',*,*,#1277,.T.);
#1275=ORIENTED_EDGE('',*,*,#1278,.T.);
#1276=EDGE_CURVE('',#107,#123,#1279,.F.);
#1277=EDGE_CURVE('',#123,#125,#1280,.T.);
#1278=EDGE_CURVE('',#125,#107,#1281,.T.);
#1279=LINE('',#106,#1282);
#1280=LINE('',#122,#1283);
#1281=LINE('',#124,#1284);
#1282=VECTOR('',#1285,1.0);
#1283=VECTOR('',#1286,1.0);
#1284=VECTOR('',#1287,1.0);
#1285=DIRECTION('',(-1,0,0));
#1286=DIRECTION('',(0,0,1));
#1287=DIRECTION('',(0.7071074310366597,0,-0.7071061313358381));
#1288=FACE_SURFACE('',(#1293),#1289,.T.);
#1289=PLANE('',#1290);
#1290=AXIS2_PLACEMENT_3D('',#106,#1291,#1292);
#1291=DIRECTION('',(0,1,-0));
#1292=DIRECTION('',(-0.7071074310366597,0,0.7071061313358381));
#1293=FACE_BOUND('',#1294,.T.);
#1294=EDGE_LOOP('',(#1295,#1296,#1297));
#1295=ORIENTED_EDGE('',*,*,#1298,.T.);
#1296=ORIENTED_EDGE('',*,*,#1299,.T.);
#1297=ORIENTED_EDGE('',*,*,#1300,.T.);
#1298=EDGE_CURVE('',#107,#125,#1301,.F.);
#1299=EDGE_CURVE('',#125,#111,#1302,.T.);
#1300=EDGE_CURVE('',#111,#107,#1303,.T.);
#1301=LINE('',#106,#1304);
#1302=LINE('',#124,#1305);
#1303=LINE('',#110,#1306);
#1304=VECTOR('',#1307,1.0);
#1305=VECTOR('',#1308,1.0);
#1306=VECTOR('',#1309,1.0);
#1307=DIRECTION('',(-0.7071074310366597,0,0.7071061313358381));
#1308=DIRECTION('',(1,0,0));
#1309=DIRECTION('',(0,0,-1));
#1310=FACE_SURFACE('',(#1315),#1311,.T.);
#1311=PLANE('',#1312);
#1312=AXIS2_PLACEMENT_3D('',#126,#1313,#1314);
#1313=DIRECTION('',(-1,0,0));
#1314=DIRECTION('',(0,1,0));
#1315=FACE_BOUND('',#1316,.T.);
#1316=EDGE_LOOP('',(#1317,#1318,#1319));
#1317=ORIENTED_EDGE('',*,*,#1320,.T.);
#1318=ORIENTED_EDGE('',*,*,#1321,.T.);
#1319=ORIENTED_EDGE('',*,*,#1322,.T.);
#1320=EDGE_CURVE('',#127,#129,#1323,.F.);
#1321=EDGE_CURVE('',#129,#131,#1324,.T.);
#1322=EDGE_CURVE('',#131,#127,#1325,.T.);
#1323=LINE('',#126,#1326);
#1324=LINE('',#128,#1327);
#1325=LINE('',#130,#1328);
#1326=VECTOR('',#1329,1.0);
#1327=VECTOR('',#1330,1.0);
#1328=VECTOR('',#1331,1.0);
#1329=DIRECTION('',(0,1,0));
#1330=DIRECTION('',(0,0,-1));
#1331=DIRECTION('',(0,-0.9989738257555136,0.045291229342916156));
#1332=FACE_SURFACE('',(#1337),#1333,.T.);
#1333=PLANE('',#1334);
#1334=AXIS2_PLACEMENT_3D('',#126,#1335,#1336);
#1335=DIRECTION('',(-1,0,0));
#1336=DIRECTION('',(0,0.9989738257555136,-0.045291229342916156));
#1337=FACE_BOUND('',#1338,.T.);
#1338=EDGE_LOOP('',(#1339,#1340,#1341));
#1339=ORIENTED_EDGE('',*,*,#1342,.T.);
#1340=ORIENTED_EDGE('',*,*,#1343,.T.);
#1341=ORIENTED_EDGE('',*,*,#1344,.T.);
#1342=EDGE_CURVE('',#127,#131,#1345,.F.);
#1343=EDGE_CURVE('',#131,#133,#1346,.T.);
#1344=EDGE_CURVE('',#133,#127,#1347,.T.);
#1345=LINE('',#126,#1348);
#1346=LINE('',#130,#1349);
#1347=LINE('',#132,#1350);
#1348=VECTOR('',#1351,1.0);
#1349=VECTOR('',#1352,1.0);
#1350=VECTOR('',#1353,1.0);
#1351=DIRECTION('',(0,0.9989738257555136,-0.045291229342916156));
#1352=DIRECTION('',(0,-1,0));
#1353=DIRECTION('',(0,0,1));
#1354=FACE_SURFACE('',(#1359),#1355,.T.);
#1355=PLANE('',#1356);
#1356=AXIS2_PLACEMENT_3D('',#132,#1357,#1358);
#1357=DIRECTION('',(0,0,-1));
#1358=DIRECTION('',(0,1,0));
#1359=FACE_BOUND('',#1360,.T.);
#1360=EDGE_LOOP('',(#1361,#1362,#1363));
#1361=ORIENTED_EDGE('',*,*,#1364,.T.);
#1362=ORIENTED_EDGE('',*,*,#1365,.T.);
#1363=ORIENTED_EDGE('',*,*,#1366,.T.);
#1364=EDGE_CURVE('',#133,#131,#1367,.F.);
#1365=EDGE_CURVE('',#131,#135,#1368,.T.);
#1366=EDGE_CURVE('',#135,#133,#1369,.T.);
#1367=LINE('',#132,#1370);
#1368=LINE('',#130,#1371);
#1369=LINE('',#134,#1372);
#1370=VECTOR('',#1373,1.0);
#1371=VECTOR('',#1374,1.0);
#1372=VECTOR('',#1375,1.0);
#1373=DIRECTION('',(0,1,0));
#1374=DIRECTION('',(1,0,0));
#1375=DIRECTION('',(-0.04529131241997548,-0.998973821988983,0));
#1376=FACE_SURFACE('',(#1381),#1377,.T.);
#1377=PLANE('',#1378);
#1378=AXIS2_PLACEMENT_3D('',#132,#1379,#1380);
#1379=DIRECTION('',(0,0,-1));
#1380=DIRECTION('',(0.04529131241997548,0.998973821988983,0));
#1381=FACE_BOUND('',#1382,.T.);
#1382=EDGE_LOOP('',(#1383,#1384,#1385));
#1383=ORIENTED_EDGE('',*,*,#1386,.T.);
#1384=ORIENTED_EDGE('',*,*,#1387,.T.);
#1385=ORIENTED_EDGE('',*,*,#1388,.T.);
#1386=EDGE_CURVE('',#133,#135,#1389,.F.);
#1387=EDGE_CURVE('',#135,#137,#1390,.T.);
#1388=EDGE_CURVE('',#137,#133,#1391,.T.);
#1389=LINE('',#132,#1392);
#1390=LINE('',#134,#1393);
#1391=LINE('',#136,#1394);
#1392=VECTOR('',#1395,1.0);
#1393=VECTOR('',#1396,1.0);
#1394=VECTOR('',#1397,1.0);
#1395=DIRECTION('',(0.04529131241997548,0.998973821988983,0));
#1396=DIRECTION('',(0,-1,0));
#1397=DIRECTION('',(-1,0,0));
#1398=FACE_SURFACE('',(#1403),#1399,.T.);
#1399=PLANE('',#1400);
#1400=AXIS2_PLACEMENT_3D('',#136,#1401,#1402);
#1401=DIRECTION('',(1,0,0));
#1402=DIRECTION('',(0,1,0));
#1403=FACE_BOUND('',#1404,.T.);
#1404=EDGE_LOOP('',(#1405,#1406,#1407));
#1405=ORIENTED_EDGE('',*,*,#1408,.T.);
#1406=ORIENTED_EDGE('',*,*,#1409,.T.);
#1407=ORIENTED_EDGE('',*,*,#1410,.T.);
#1408=EDGE_CURVE('',#137,#135,#1411,.F.);
#1409=EDGE_CURVE('',#135,#139,#1412,.T.);
#1410=EDGE_CURVE('',#139,#137,#1413,.T.);
#1411=LINE('',#136,#1414);
#1412=LINE('',#134,#1415);
#1413=LINE('',#138,#1416);
#1414=VECTOR('',#1417,1.0);
#1415=VECTOR('',#1418,1.0);
#1416=VECTOR('',#1419,1.0);
#1417=DIRECTION('',(0,1,0));
#1418=DIRECTION('',(0,0,1));
#1419=DIRECTION('',(0,-0.9989738257555136,-0.045291229342916156));
#1420=FACE_SURFACE('',(#1425),#1421,.T.);
#1421=PLANE('',#1422);
#1422=AXIS2_PLACEMENT_3D('',#136,#1423,#1424);
#1423=DIRECTION('',(1,0,0));
#1424=DIRECTION('',(0,0.9989738257555136,0.045291229342916156));
#1425=FACE_BOUND('',#1426,.T.);
#1426=EDGE_LOOP('',(#1427,#1428,#1429));
#1427=ORIENTED_EDGE('',*,*,#1430,.T.);
#1428=ORIENTED_EDGE('',*,*,#1431,.T.);
#1429=ORIENTED_EDGE('',*,*,#1432,.T.);
#1430=EDGE_CURVE('',#137,#139,#1433,.F.);
#1431=EDGE_CURVE('',#139,#141,#1434,.T.);
#1432=EDGE_CURVE('',#141,#137,#1435,.T.);
#1433=LINE('',#136,#1436);
#1434=LINE('',#138,#1437);
#1435=LINE('',#140,#1438);
#1436=VECTOR('',#1439,1.0);
#1437=VECTOR('',#1440,1.0);
#1438=VECTOR('',#1441,1.0);
#1439=DIRECTION('',(0,0.9989738257555136,0.045291229342916156));
#1440=DIRECTION('',(0,-1,0));
#1441=DIRECTION('',(0,0,-1));
#1442=FACE_SURFACE('',(#1447),#1443,.T.);
#1443=PLANE('',#1444);
#1444=AXIS2_PLACEMENT_3D('',#140,#1445,#1446);
#1445=DIRECTION('',(0,-0,1));
#1446=DIRECTION('',(0,1,0));
#1447=FACE_BOUND('',#1448,.T.);
#1448=EDGE_LOOP('',(#1449,#1450,#1451));
#1449=ORIENTED_EDGE('',*,*,#1452,.T.);
#1450=ORIENTED_EDGE('',*,*,#1453,.T.);
#1451=ORIENTED_EDGE('',*,*,#1454,.T.);
#1452=EDGE_CURVE('',#141,#139,#1455,.F.);
#1453=EDGE_CURVE('',#139,#143,#1456,.T.);
#1454=EDGE_CURVE('',#143,#141,#1457,.T.);
#1455=LINE('',#140,#1458);
#1456=LINE('',#138,#1459);
#1457=LINE('',#142,#1460);
#1458=VECTOR('',#1461,1.0);
#1459=VECTOR('',#1462,1.0);
#1460=VECTOR('',#1463,1.0);
#1461=DIRECTION('',(0,1,0));
#1462=DIRECTION('',(-1,0,0));
#1463=DIRECTION('',(0.04529131241997548,-0.998973821988983,0));
#1464=FACE_SURFACE('',(#1469),#1465,.T.);
#1465=PLANE('',#1466);
#1466=AXIS2_PLACEMENT_3D('',#140,#1467,#1468);
#1467=DIRECTION('',(0,0,1));
#1468=DIRECTION('',(-0.04529131241997548,0.998973821988983,0));
#1469=FACE_BOUND('',#1470,.T.);
#1470=EDGE_LOOP('',(#1471,#1472,#1473));
#1471=ORIENTED_EDGE('',*,*,#1474,.T.);
#1472=ORIENTED_EDGE('',*,*,#1475,.T.);
#1473=ORIENTED_EDGE('',*,*,#1476,.T.);
#1474=EDGE_CURVE('',#141,#143,#1477,.F.);
#1475=EDGE_CURVE('',#143,#145,#1478,.T.);
#1476=EDGE_CURVE('',#145,#141,#1479,.T.);
#1477=LINE('',#140,#1480);
#1478=LINE('',#142,#1481);
#1479=LINE('',#144,#1482);
#1480=VECTOR('',#1483,1.0);
#1481=VECTOR('',#1484,1.0);
#1482=VECTOR('',#1485,1.0);
#1483=DIRECTION('',(-0.04529131241997548,0.998973821988983,0));
#1484=DIRECTION('',(0,-1,0));
#1485=DIRECTION('',(1,0,0));
#1486=FACE_SURFACE('',(#1491),#1487,.T.);
#1487=PLANE('',#1488);
#1488=AXIS2_PLACEMENT_3D('',#146,#1489,#1490);
#1489=DIRECTION('',(0,-1,0));
#1490=DIRECTION('',(1,0,0));
#1491=FACE_BOUND('',#1492,.T.);
#1492=EDGE_LOOP('',(#1493,#1494,#1495));
#1493=ORIENTED_EDGE('',*,*,#1496,.T.);
#1494=ORIENTED_EDGE('',*,*,#1497,.T.);
#1495=ORIENTED_EDGE('',*,*,#1498,.T.);
#1496=EDGE_CURVE('',#147,#137,#1499,.F.);
#1497=EDGE_CURVE('',#137,#141,#1500,.T.);
#1498=EDGE_CURVE('',#141,#147,#1501,.T.);
#1499=LINE('',#146,#1502);
#1500=LINE('',#136,#1503);
#1501=LINE('',#140,#1504);
#1502=VECTOR('',#1505,1.0);
#1503=VECTOR('',#1506,1.0);
#1504=VECTOR('',#1507,1.0);
#1505=DIRECTION('',(1,0,0));
#1506=DIRECTION('',(0,0,1));
#1507=DIRECTION('',(-0.7071074310366594,0,-0.7071061313358384));
#1508=FACE_SURFACE('',(#1513),#1509,.T.);
#1509=PLANE('',#1510);
#1510=AXIS2_PLACEMENT_3D('',#146,#1511,#1512);
#1511=DIRECTION('',(0,-1,0));
#1512=DIRECTION('',(0.7071074310366594,0,0.7071061313358384));
#1513=FACE_BOUND('',#1514,.T.);
#1514=EDGE_LOOP('',(#1515,#1516,#1517));
#1515=ORIENTED_EDGE('',*,*,#1518,.T.);
#1516=ORIENTED_EDGE('',*,*,#1519,.T.);
#1517=ORIENTED_EDGE('',*,*,#1520,.T.);
#1518=EDGE_CURVE('',#147,#141,#1521,.F.);
#1519=EDGE_CURVE('',#141,#149,#1522,.T.);
#1520=EDGE_CURVE('',#149,#147,#1523,.T.);
#1521=LINE('',#146,#1524);
#1522=LINE('',#140,#1525);
#1523=LINE('',#148,#1526);
#1524=VECTOR('',#1527,1.0);
#1525=VECTOR('',#1528,1.0);
#1526=VECTOR('',#1529,1.0);
#1527=DIRECTION('',(0.7071074310366594,0,0.7071061313358384));
#1528=DIRECTION('',(-1,0,0));
#1529=DIRECTION('',(0,0,-1));
#1530=FACE_SURFACE('',(#1535),#1531,.T.);
#1531=PLANE('',#1532);
#1532=AXIS2_PLACEMENT_3D('',#134,#1533,#1534);
#1533=DIRECTION('',(0,1,0));
#1534=DIRECTION('',(-1,0,0));
#1535=FACE_BOUND('',#1536,.T.);
#1536=EDGE_LOOP('',(#1537,#1538,#1539));
#1537=ORIENTED_EDGE('',*,*,#1540,.T.);
#1538=ORIENTED_EDGE('',*,*,#1541,.T.);
#1539=ORIENTED_EDGE('',*,*,#1542,.T.);
#1540=EDGE_CURVE('',#135,#151,#1543,.F.);
#1541=EDGE_CURVE('',#151,#153,#1544,.T.);
#1542=EDGE_CURVE('',#153,#135,#1545,.T.);
#1543=LINE('',#134,#1546);
#1544=LINE('',#150,#1547);
#1545=LINE('',#152,#1548);
#1546=VECTOR('',#1549,1.0);
#1547=VECTOR('',#1550,1.0);
#1548=VECTOR('',#1551,1.0);
#1549=DIRECTION('',(-1,0,0));
#1550=DIRECTION('',(0,0,1));
#1551=DIRECTION('',(0.7071074310366594,0,-0.7071061313358384));
#1552=FACE_SURFACE('',(#1557),#1553,.T.);
#1553=PLANE('',#1554);
#1554=AXIS2_PLACEMENT_3D('',#134,#1555,#1556);
#1555=DIRECTION('',(0,1,-0));
#1556=DIRECTION('',(-0.7071074310366594,0,0.7071061313358384));
#1557=FACE_BOUND('',#1558,.T.);
#1558=EDGE_LOOP('',(#1559,#1560,#1561));
#1559=ORIENTED_EDGE('',*,*,#1562,.T.);
#1560=ORIENTED_EDGE('',*,*,#1563,.T.);
#1561=ORIENTED_EDGE('',*,*,#1564,.T.);
#1562=EDGE_CURVE('',#135,#153,#1565,.F.);
#1563=EDGE_CURVE('',#153,#139,#1566,.T.);
#1564=EDGE_CURVE('',#139,#135,#1567,.T.);
#1565=LINE('',#134,#1568);
#1566=LINE('',#152,#1569);
#1567=LINE('',#138,#1570);
#1568=VECTOR('',#1571,1.0);
#1569=VECTOR('',#1572,1.0);
#1570=VECTOR('',#1573,1.0);
#1571=DIRECTION('',(-0.7071074310366594,0,0.7071061313358384));
#1572=DIRECTION('',(1,0,0));
#1573=DIRECTION('',(0,0,-1));
#1574=FACE_SURFACE('',(#1579),#1575,.T.);
#1575=PLANE('',#1576);
#1576=AXIS2_PLACEMENT_3D('',#154,#1577,#1578);
#1577=DIRECTION('',(-1,0,0));
#1578=DIRECTION('',(0,1,0));
#1579=FACE_BOUND('',#1580,.T.);
#1580=EDGE_LOOP('',(#1581,#1582,#1583));
#1581=ORIENTED_EDGE('',*,*,#1584,.T.);
#1582=ORIENTED_EDGE('',*,*,#1585,.T.);
#1583=ORIENTED_EDGE('',*,*,#1586,.T.);
#1584=EDGE_CURVE('',#155,#157,#1587,.F.);
#1585=EDGE_CURVE('',#157,#159,#1588,.T.);
#1586=EDGE_CURVE('',#159,#155,#1589,.T.);
#1587=LINE('',#154,#1590);
#1588=LINE('',#156,#1591);
#1589=LINE('',#158,#1592);
#1590=VECTOR('',#1593,1.0);
#1591=VECTOR('',#1594,1.0);
#1592=VECTOR('',#1595,1.0);
#1593=DIRECTION('',(0,1,0));
#1594=DIRECTION('',(0,0,-1));
#1595=DIRECTION('',(0,-0.9989738255847477,0.04529123310944374));
#1596=FACE_SURFACE('',(#1601),#1597,.T.);
#1597=PLANE('',#1598);
#1598=AXIS2_PLACEMENT_3D('',#154,#1599,#1600);
#1599=DIRECTION('',(-1,0,0));
#1600=DIRECTION('',(0,0.9989738255847477,-0.04529123310944374));
#1601=FACE_BOUND('',#1602,.T.);
#1602=EDGE_LOOP('',(#1603,#1604,#1605));
#1603=ORIENTED_EDGE('',*,*,#1606,.T.);
#1604=ORIENTED_EDGE('',*,*,#1607,.T.);
#1605=ORIENTED_EDGE('',*,*,#1608,.T.);
#1606=EDGE_CURVE('',#155,#159,#1609,.F.);
#1607=EDGE_CURVE('',#159,#161,#1610,.T.);
#1608=EDGE_CURVE('',#161,#155,#1611,.T.);
#1609=LINE('',#154,#1612);
#1610=LINE('',#158,#1613);
#1611=LINE('',#160,#1614);
#1612=VECTOR('',#1615,1.0);
#1613=VECTOR('',#1616,1.0);
#1614=VECTOR('',#1617,1.0);
#1615=DIRECTION('',(0,0.9989738255847477,-0.04529123310944374));
#1616=DIRECTION('',(0,-1,0));
#1617=DIRECTION('',(0,0,1));
#1618=FACE_SURFACE('',(#1623),#1619,.T.);
#1619=PLANE('',#1620);
#1620=AXIS2_PLACEMENT_3D('',#160,#1621,#1622);
#1621=DIRECTION('',(0,0,-1));
#1622=DIRECTION('',(0,1,0));
#1623=FACE_BOUND('',#1624,.T.);
#1624=EDGE_LOOP('',(#1625,#1626,#1627));
#1625=ORIENTED_EDGE('',*,*,#1628,.T.);
#1626=ORIENTED_EDGE('',*,*,#1629,.T.);
#1627=ORIENTED_EDGE('',*,*,#1630,.T.);
#1628=EDGE_CURVE('',#161,#159,#1631,.F.);
#1629=EDGE_CURVE('',#159,#163,#1632,.T.);
#1630=EDGE_CURVE('',#163,#161,#1633,.T.);
#1631=LINE('',#160,#1634);
#1632=LINE('',#158,#1635);
#1633=LINE('',#162,#1636);
#1634=VECTOR('',#1637,1.0);
#1635=VECTOR('',#1638,1.0);
#1636=VECTOR('',#1639,1.0);
#1637=DIRECTION('',(0,1,0));
#1638=DIRECTION('',(1,0,0));
#1639=DIRECTION('',(-0.04529131618650995,-0.9989738218182165,0));
#1640=FACE_SURFACE('',(#1645),#1641,.T.);
#1641=PLANE('',#1642);
#1642=AXIS2_PLACEMENT_3D('',#160,#1643,#1644);
#1643=DIRECTION('',(0,0,-1));
#1644=DIRECTION('',(0.04529131618650995,0.9989738218182165,0));
#1645=FACE_BOUND('',#1646,.T.);
#1646=EDGE_LOOP('',(#1647,#1648,#1649));
#1647=ORIENTED_EDGE('',*,*,#1650,.T.);
#1648=ORIENTED_EDGE('',*,*,#1651,.T.);
#1649=ORIENTED_EDGE('',*,*,#1652,.T.);
#1650=EDGE_CURVE('',#161,#163,#1653,.F.);
#1651=EDGE_CURVE('',#163,#165,#1654,.T.);
#1652=EDGE_CURVE('',#165,#161,#1655,.T.);
#1653=LINE('',#160,#1656);
#1654=LINE('',#162,#1657);
#1655=LINE('',#164,#1658);
#1656=VECTOR('',#1659,1.0);
#1657=VECTOR('',#1660,1.0);
#1658=VECTOR('',#1661,1.0);
#1659=DIRECTION('',(0.04529131618650995,0.9989738218182165,0));
#1660=DIRECTION('',(0,-1,0));
#1661=DIRECTION('',(-1,0,0));
#1662=FACE_SURFACE('',(#1667),#1663,.T.);
#1663=PLANE('',#1664);
#1664=AXIS2_PLACEMENT_3D('',#164,#1665,#1666);
#1665=DIRECTION('',(1,0,0));
#1666=DIRECTION('',(0,1,0));
#1667=FACE_BOUND('',#1668,.T.);
#1668=EDGE_LOOP('',(#1669,#1670,#1671));
#1669=ORIENTED_EDGE('',*,*,#1672,.T.);
#1670=ORIENTED_EDGE('',*,*,#1673,.T.);
#1671=ORIENTED_EDGE('',*,*,#1674,.T.);
#1672=EDGE_CURVE('',#165,#163,#1675,.F.);
#1673=EDGE_CURVE('',#163,#167,#1676,.T.);
#1674=EDGE_CURVE('',#167,#165,#1677,.T.);
#1675=LINE('',#164,#1678);
#1676=LINE('',#162,#1679);
#1677=LINE('',#166,#1680);
#1678=VECTOR('',#1681,1.0);
#1679=VECTOR('',#1682,1.0);
#1680=VECTOR('',#1683,1.0);
#1681=DIRECTION('',(0,1,0));
#1682=DIRECTION('',(0,0,1));
#1683=DIRECTION('',(0,-0.9989738255847477,-0.04529123310944374));
#1684=FACE_SURFACE('',(#1689),#1685,.T.);
#1685=PLANE('',#1686);
#1686=AXIS2_PLACEMENT_3D('',#164,#1687,#1688);
#1687=DIRECTION('',(1,0,0));
#1688=DIRECTION('',(0,0.9989738255847477,0.04529123310944374));
#1689=FACE_BOUND('',#1690,.T.);
#1690=EDGE_LOOP('',(#1691,#1692,#1693));
#1691=ORIENTED_EDGE('',*,*,#1694,.T.);
#1692=ORIENTED_EDGE('',*,*,#1695,.T.);
#1693=ORIENTED_EDGE('',*,*,#1696,.T.);
#1694=EDGE_CURVE('',#165,#167,#1697,.F.);
#1695=EDGE_CURVE('',#167,#169,#1698,.T.);
#1696=EDGE_CURVE('',#169,#165,#1699,.T.);
#1697=LINE('',#164,#1700);
#1698=LINE('',#166,#1701);
#1699=LINE('',#168,#1702);
#1700=VECTOR('',#1703,1.0);
#1701=VECTOR('',#1704,1.0);
#1702=VECTOR('',#1705,1.0);
#1703=DIRECTION('',(0,0.9989738255847477,0.04529123310944374));
#1704=DIRECTION('',(0,-1,0));
#1705=DIRECTION('',(0,0,-1));
#1706=FACE_SURFACE('',(#1711),#1707,.T.);
#1707=PLANE('',#1708);
#1708=AXIS2_PLACEMENT_3D('',#168,#1709,#1710);
#1709=DIRECTION('',(0,-0,1));
#1710=DIRECTION('',(0,1,0));
#1711=FACE_BOUND('',#1712,.T.);
#1712=EDGE_LOOP('',(#1713,#1714,#1715));
#1713=ORIENTED_EDGE('',*,*,#1716,.T.);
#1714=ORIENTED_EDGE('',*,*,#1717,.T.);
#1715=ORIENTED_EDGE('',*,*,#1718,.T.);
#1716=EDGE_CURVE('',#169,#167,#1719,.F.);
#1717=EDGE_CURVE('',#167,#171,#1720,.T.);
#1718=EDGE_CURVE('',#171,#169,#1721,.T.);
#1719=LINE('',#168,#1722);
#1720=LINE('',#166,#1723);
#1721=LINE('',#170,#1724);
#1722=VECTOR('',#1725,1.0);
#1723=VECTOR('',#1726,1.0);
#1724=VECTOR('',#1727,1.0);
#1725=DIRECTION('',(0,1,0));
#1726=DIRECTION('',(-1,0,0));
#1727=DIRECTION('',(0.04529131618650995,-0.9989738218182165,0));
#1728=FACE_SURFACE('',(#1733),#1729,.T.);
#1729=PLANE('',#1730);
#1730=AXIS2_PLACEMENT_3D('',#168,#1731,#1732);
#1731=DIRECTION('',(0,0,1));
#1732=DIRECTION('',(-0.04529131618650995,0.9989738218182165,0));
#1733=FACE_BOUND('',#1734,.T.);
#1734=EDGE_LOOP('',(#1735,#1736,#1737));
#1735=ORIENTED_EDGE('',*,*,#1738,.T.);
#1736=ORIENTED_EDGE('',*,*,#1739,.T.);
#1737=ORIENTED_EDGE('',*,*,#1740,.T.);
#1738=EDGE_CURVE('',#169,#171,#1741,.F.);
#1739=EDGE_CURVE('',#171,#173,#1742,.T.);
#1740=EDGE_CURVE('',#173,#169,#1743,.T.);
#1741=LINE('',#168,#1744);
#1742=LINE('',#170,#1745);
#1743=LINE('',#172,#1746);
#1744=VECTOR('',#1747,1.0);
#1745=VECTOR('',#1748,1.0);
#1746=VECTOR('',#1749,1.0);
#1747=DIRECTION('',(-0.04529131618650995,0.9989738218182165,0));
#1748=DIRECTION('',(0,-1,0));
#1749=DIRECTION('',(1,0,0));
#1750=FACE_SURFACE('',(#1755),#1751,.T.);
#1751=PLANE('',#1752);
#1752=AXIS2_PLACEMENT_3D('',#174,#1753,#1754);
#1753=DIRECTION('',(0,-1,0));
#1754=DIRECTION('',(1,0,0));
#1755=FACE_BOUND('',#1756,.T.);
#1756=EDGE_LOOP('',(#1757,#1758,#1759));
#1757=ORIENTED_EDGE('',*,*,#1760,.T.);
#1758=ORIENTED_EDGE('',*,*,#1761,.T.);
#1759=ORIENTED_EDGE('',*,*,#1762,.T.);
#1760=EDGE_CURVE('',#175,#165,#1763,.F.);
#1761=EDGE_CURVE('',#165,#169,#1764,.T.);
#1762=EDGE_CURVE('',#169,#175,#1765,.T.);
#1763=LINE('',#174,#1766);
#1764=LINE('',#164,#1767);
#1765=LINE('',#168,#1768);
#1766=VECTOR('',#1769,1.0);
#1767=VECTOR('',#1770,1.0);
#1768=VECTOR('',#1771,1.0);
#1769=DIRECTION('',(1,0,0));
#1770=DIRECTION('',(0,0,1));
#1771=DIRECTION('',(-0.7071074310366594,0,-0.7071061313358384));
#1772=FACE_SURFACE('',(#1777),#1773,.T.);
#1773=PLANE('',#1774);
#1774=AXIS2_PLACEMENT_3D('',#174,#1775,#1776);
#1775=DIRECTION('',(0,-1,0));
#1776=DIRECTION('',(0.7071074310366594,0,0.7071061313358384));
#1777=FACE_BOUND('',#1778,.T.);
#1778=EDGE_LOOP('',(#1779,#1780,#1781));
#1779=ORIENTED_EDGE('',*,*,#1782,.T.);
#1780=ORIENTED_EDGE('',*,*,#1783,.T.);
#1781=ORIENTED_EDGE('',*,*,#1784,.T.);
#1782=EDGE_CURVE('',#175,#169,#1785,.F.);
#1783=EDGE_CURVE('',#169,#177,#1786,.T.);
#1784=EDGE_CURVE('',#177,#175,#1787,.T.);
#1785=LINE('',#174,#1788);
#1786=LINE('',#168,#1789);
#1787=LINE('',#176,#1790);
#1788=VECTOR('',#1791,1.0);
#1789=VECTOR('',#1792,1.0);
#1790=VECTOR('',#1793,1.0);
#1791=DIRECTION('',(0.7071074310366594,0,0.7071061313358384));
#1792=DIRECTION('',(-1,0,0));
#1793=DIRECTION('',(0,0,-1));
#1794=FACE_SURFACE('',(#1799),#1795,.T.);
#1795=PLANE('',#1796);
#1796=AXIS2_PLACEMENT_3D('',#162,#1797,#1798);
#1797=DIRECTION('',(0,1,0));
#1798=DIRECTION('',(-1,0,0));
#1799=FACE_BOUND('',#1800,.T.);
#1800=EDGE_LOOP('',(#1801,#1802,#1803));
#1801=ORIENTED_EDGE('',*,*,#1804,.T.);
#1802=ORIENTED_EDGE('',*,*,#1805,.T.);
#1803=ORIENTED_EDGE('',*,*,#1806,.T.);
#1804=EDGE_CURVE('',#163,#179,#1807,.F.);
#1805=EDGE_CURVE('',#179,#181,#1808,.T.);
#1806=EDGE_CURVE('',#181,#163,#1809,.T.);
#1807=LINE('',#162,#1810);
#1808=LINE('',#178,#1811);
#1809=LINE('',#180,#1812);
#1810=VECTOR('',#1813,1.0);
#1811=VECTOR('',#1814,1.0);
#1812=VECTOR('',#1815,1.0);
#1813=DIRECTION('',(-1,0,0));
#1814=DIRECTION('',(0,0,1));
#1815=DIRECTION('',(0.7071074310366594,0,-0.7071061313358384));
#1816=FACE_SURFACE('',(#1821),#1817,.T.);
#1817=PLANE('',#1818);
#1818=AXIS2_PLACEMENT_3D('',#162,#1819,#1820);
#1819=DIRECTION('',(0,1,-0));
#1820=DIRECTION('',(-0.7071074310366594,0,0.7071061313358384));
#1821=FACE_BOUND('',#1822,.T.);
#1822=EDGE_LOOP('',(#1823,#1824,#1825));
#1823=ORIENTED_EDGE('',*,*,#1826,.T.);
#1824=ORIENTED_EDGE('',*,*,#1827,.T.);
#1825=ORIENTED_EDGE('',*,*,#1828,.T.);
#1826=EDGE_CURVE('',#163,#181,#1829,.F.);
#1827=EDGE_CURVE('',#181,#167,#1830,.T.);
#1828=EDGE_CURVE('',#167,#163,#1831,.T.);
#1829=LINE('',#162,#1832);
#1830=LINE('',#180,#1833);
#1831=LINE('',#166,#1834);
#1832=VECTOR('',#1835,1.0);
#1833=VECTOR('',#1836,1.0);
#1834=VECTOR('',#1837,1.0);
#1835=DIRECTION('',(-0.7071074310366594,0,0.7071061313358384));
#1836=DIRECTION('',(1,0,0));
#1837=DIRECTION('',(0,0,-1));
#1838=FACE_SURFACE('',(#1843),#1839,.T.);
#1839=PLANE('',#1840);
#1840=AXIS2_PLACEMENT_3D('',#182,#1841,#1842);
#1841=DIRECTION('',(-1,0,0));
#1842=DIRECTION('',(0,1,0));
#1843=FACE_BOUND('',#1844,.T.);
#1844=EDGE_LOOP('',(#1845,#1846,#1847));
#1845=ORIENTED_EDGE('',*,*,#1848,.T.);
#1846=ORIENTED_EDGE('',*,*,#1849,.T.);
#1847=ORIENTED_EDGE('',*,*,#1850,.T.);
#1848=EDGE_CURVE('',#183,#185,#1851,.F.);
#1849=EDGE_CURVE('',#185,#187,#1852,.T.);
#1850=EDGE_CURVE('',#187,#183,#1853,.T.);
#1851=LINE('',#182,#1854);
#1852=LINE('',#184,#1855);
#1853=LINE('',#186,#1856);
#1854=VECTOR('',#1857,1.0);
#1855=VECTOR('',#1858,1.0);
#1856=VECTOR('',#1859,1.0);
#1857=DIRECTION('',(0,1,0));
#1858=DIRECTION('',(0,0,-1));
#1859=DIRECTION('',(0,-0.9989738257555136,0.045291229342916184));
#1860=FACE_SURFACE('',(#1865),#1861,.T.);
#1861=PLANE('',#1862);
#1862=AXIS2_PLACEMENT_3D('',#182,#1863,#1864);
#1863=DIRECTION('',(-1,0,0));
#1864=DIRECTION('',(0,0.9989738257555136,-0.045291229342916184));
#1865=FACE_BOUND('',#1866,.T.);
#1866=EDGE_LOOP('',(#1867,#1868,#1869));
#1867=ORIENTED_EDGE('',*,*,#1870,.T.);
#1868=ORIENTED_EDGE('',*,*,#1871,.T.);
#1869=ORIENTED_EDGE('',*,*,#1872,.T.);
#1870=EDGE_CURVE('',#183,#187,#1873,.F.);
#1871=EDGE_CURVE('',#187,#189,#1874,.T.);
#1872=EDGE_CURVE('',#189,#183,#1875,.T.);
#1873=LINE('',#182,#1876);
#1874=LINE('',#186,#1877);
#1875=LINE('',#188,#1878);
#1876=VECTOR('',#1879,1.0);
#1877=VECTOR('',#1880,1.0);
#1878=VECTOR('',#1881,1.0);
#1879=DIRECTION('',(0,0.9989738257555136,-0.045291229342916184));
#1880=DIRECTION('',(0,-1,0));
#1881=DIRECTION('',(0,0,1));
#1882=FACE_SURFACE('',(#1887),#1883,.T.);
#1883=PLANE('',#1884);
#1884=AXIS2_PLACEMENT_3D('',#188,#1885,#1886);
#1885=DIRECTION('',(0,0,-1));
#1886=DIRECTION('',(0,1,0));
#1887=FACE_BOUND('',#1888,.T.);
#1888=EDGE_LOOP('',(#1889,#1890,#1891));
#1889=ORIENTED_EDGE('',*,*,#1892,.T.);
#1890=ORIENTED_EDGE('',*,*,#1893,.T.);
#1891=ORIENTED_EDGE('',*,*,#1894,.T.);
#1892=EDGE_CURVE('',#189,#187,#1895,.F.);
#1893=EDGE_CURVE('',#187,#191,#1896,.T.);
#1894=EDGE_CURVE('',#191,#189,#1897,.T.);
#1895=LINE('',#188,#1898);
#1896=LINE('',#186,#1899);
#1897=LINE('',#190,#1900);
#1898=VECTOR('',#1901,1.0);
#1899=VECTOR('',#1902,1.0);
#1900=VECTOR('',#1903,1.0);
#1901=DIRECTION('',(0,1,0));
#1902=DIRECTION('',(1,0,0));
#1903=DIRECTION('',(-0.04529131241997548,-0.998973821988983,0));
#1904=FACE_SURFACE('',(#1909),#1905,.T.);
#1905=PLANE('',#1906);
#1906=AXIS2_PLACEMENT_3D('',#188,#1907,#1908);
#1907=DIRECTION('',(0,0,-1));
#1908=DIRECTION('',(0.04529131241997548,0.998973821988983,0));
#1909=FACE_BOUND('',#1910,.T.);
#1910=EDGE_LOOP('',(#1911,#1912,#1913));
#1911=ORIENTED_EDGE('',*,*,#1914,.T.);
#1912=ORIENTED_EDGE('',*,*,#1915,.T.);
#1913=ORIENTED_EDGE('',*,*,#1916,.T.);
#1914=EDGE_CURVE('',#189,#191,#1917,.F.);
#1915=EDGE_CURVE('',#191,#193,#1918,.T.);
#1916=EDGE_CURVE('',#193,#189,#1919,.T.);
#1917=LINE('',#188,#1920);
#1918=LINE('',#190,#1921);
#1919=LINE('',#192,#1922);
#1920=VECTOR('',#1923,1.0);
#1921=VECTOR('',#1924,1.0);
#1922=VECTOR('',#1925,1.0);
#1923=DIRECTION('',(0.04529131241997548,0.998973821988983,0));
#1924=DIRECTION('',(0,-1,0));
#1925=DIRECTION('',(-1,0,0));
#1926=FACE_SURFACE('',(#1931),#1927,.T.);
#1927=PLANE('',#1928);
#1928=AXIS2_PLACEMENT_3D('',#192,#1929,#1930);
#1929=DIRECTION('',(1,0,0));
#1930=DIRECTION('',(0,1,0));
#1931=FACE_BOUND('',#1932,.T.);
#1932=EDGE_LOOP('',(#1933,#1934,#1935));
#1933=ORIENTED_EDGE('',*,*,#1936,.T.);
#1934=ORIENTED_EDGE('',*,*,#1937,.T.);
#1935=ORIENTED_EDGE('',*,*,#1938,.T.);
#1936=EDGE_CURVE('',#193,#191,#1939,.F.);
#1937=EDGE_CURVE('',#191,#195,#1940,.T.);
#1938=EDGE_CURVE('',#195,#193,#1941,.T.);
#1939=LINE('',#192,#1942);
#1940=LINE('',#190,#1943);
#1941=LINE('',#194,#1944);
#1942=VECTOR('',#1945,1.0);
#1943=VECTOR('',#1946,1.0);
#1944=VECTOR('',#1947,1.0);
#1945=DIRECTION('',(0,1,0));
#1946=DIRECTION('',(0,0,1));
#1947=DIRECTION('',(0,-0.9989738257555136,-0.045291229342916184));
#1948=FACE_SURFACE('',(#1953),#1949,.T.);
#1949=PLANE('',#1950);
#1950=AXIS2_PLACEMENT_3D('',#192,#1951,#1952);
#1951=DIRECTION('',(1,0,0));
#1952=DIRECTION('',(0,0.9989738257555136,0.045291229342916184));
#1953=FACE_BOUND('',#1954,.T.);
#1954=EDGE_LOOP('',(#1955,#1956,#1957));
#1955=ORIENTED_EDGE('',*,*,#1958,.T.);
#1956=ORIENTED_EDGE('',*,*,#1959,.T.);
#1957=ORIENTED_EDGE('',*,*,#1960,.T.);
#1958=EDGE_CURVE('',#193,#195,#1961,.F.);
#1959=EDGE_CURVE('',#195,#197,#1962,.T.);
#1960=EDGE_CURVE('',#197,#193,#1963,.T.);
#1961=LINE('',#192,#1964);
#1962=LINE('',#194,#1965);
#1963=LINE('',#196,#1966);
#1964=VECTOR('',#1967,1.0);
#1965=VECTOR('',#1968,1.0);
#1966=VECTOR('',#1969,1.0);
#1967=DIRECTION('',(0,0.9989738257555136,0.045291229342916184));
#1968=DIRECTION('',(0,-1,0));
#1969=DIRECTION('',(0,0,-1));
#1970=FACE_SURFACE('',(#1975),#1971,.T.);
#1971=PLANE('',#1972);
#1972=AXIS2_PLACEMENT_3D('',#196,#1973,#1974);
#1973=DIRECTION('',(0,-0,1));
#1974=DIRECTION('',(0,1,0));
#1975=FACE_BOUND('',#1976,.T.);
#1976=EDGE_LOOP('',(#1977,#1978,#1979));
#1977=ORIENTED_EDGE('',*,*,#1980,.T.);
#1978=ORIENTED_EDGE('',*,*,#1981,.T.);
#1979=ORIENTED_EDGE('',*,*,#1982,.T.);
#1980=EDGE_CURVE('',#197,#195,#1983,.F.);
#1981=EDGE_CURVE('',#195,#199,#1984,.T.);
#1982=EDGE_CURVE('',#199,#197,#1985,.T.);
#1983=LINE('',#196,#1986);
#1984=LINE('',#194,#1987);
#1985=LINE('',#198,#1988);
#1986=VECTOR('',#1989,1.0);
#1987=VECTOR('',#1990,1.0);
#1988=VECTOR('',#1991,1.0);
#1989=DIRECTION('',(0,1,0));
#1990=DIRECTION('',(-1,0,0));
#1991=DIRECTION('',(0.04529131241997548,-0.998973821988983,0));
#1992=FACE_SURFACE('',(#1997),#1993,.T.);
#1993=PLANE('',#1994);
#1994=AXIS2_PLACEMENT_3D('',#196,#1995,#1996);
#1995=DIRECTION('',(0,0,1));
#1996=DIRECTION('',(-0.04529131241997548,0.998973821988983,0));
#1997=FACE_BOUND('',#1998,.T.);
#1998=EDGE_LOOP('',(#1999,#2000,#2001));
#1999=ORIENTED_EDGE('',*,*,#2002,.T.);
#2000=ORIENTED_EDGE('',*,*,#2003,.T.);
#2001=ORIENTED_EDGE('',*,*,#2004,.T.);
#2002=EDGE_CURVE('',#197,#199,#2005,.F.);
#2003=EDGE_CURVE('',#199,#201,#2006,.T.);
#2004=EDGE_CURVE('',#201,#197,#2007,.T.);
#2005=LINE('',#196,#2008);
#2006=LINE('',#198,#2009);
#2007=LINE('',#200,#2010);
#2008=VECTOR('',#2011,1.0);
#2009=VECTOR('',#2012,1.0);
#2010=VECTOR('',#2013,1.0);
#2011=DIRECTION('',(-0.04529131241997548,0.998973821988983,0));
#2012=DIRECTION('',(0,-1,0));
#2013=DIRECTION('',(1,0,0));
#2014=FACE_SURFACE('',(#2019),#2015,.T.);
#2015=PLANE('',#2016);
#2016=AXIS2_PLACEMENT_3D('',#202,#2017,#2018);
#2017=DIRECTION('',(0,-1,0));
#2018=DIRECTION('',(1,0,0));
#2019=FACE_BOUND('',#2020,.T.);
#2020=EDGE_LOOP('',(#2021,#2022,#2023));
#2021=ORIENTED_EDGE('',*,*,#2024,.T.);
#2022=ORIENTED_EDGE('',*,*,#2025,.T.);
#2023=ORIENTED_EDGE('',*,*,#2026,.T.);
#2024=EDGE_CURVE('',#203,#193,#2027,.F.);
#2025=EDGE_CURVE('',#193,#197,#2028,.T.);
#2026=EDGE_CURVE('',#197,#203,#2029,.T.);
#2027=LINE('',#202,#2030);
#2028=LINE('',#192,#2031);
#2029=LINE('',#196,#2032);
#2030=VECTOR('',#2033,1.0);
#2031=VECTOR('',#2034,1.0);
#2032=VECTOR('',#2035,1.0);
#2033=DIRECTION('',(1,0,0));
#2034=DIRECTION('',(0,0,1));
#2035=DIRECTION('',(-0.7071074310366592,0,-0.7071061313358387));
#2036=FACE_SURFACE('',(#2041),#2037,.T.);
#2037=PLANE('',#2038);
#2038=AXIS2_PLACEMENT_3D('',#202,#2039,#2040);
#2039=DIRECTION('',(0,-1,0));
#2040=DIRECTION('',(0.7071074310366592,0,0.7071061313358387));
#2041=FACE_BOUND('',#2042,.T.);
#2042=EDGE_LOOP('',(#2043,#2044,#2045));
#2043=ORIENTED_EDGE('',*,*,#2046,.T.);
#2044=ORIENTED_EDGE('',*,*,#2047,.T.);
#2045=ORIENTED_EDGE('',*,*,#2048,.T.);
#2046=EDGE_CURVE('',#203,#197,#2049,.F.);
#2047=EDGE_CURVE('',#197,#205,#2050,.T.);
#2048=EDGE_CURVE('',#205,#203,#2051,.T.);
#2049=LINE('',#202,#2052);
#2050=LINE('',#196,#2053);
#2051=LINE('',#204,#2054);
#2052=VECTOR('',#2055,1.0);
#2053=VECTOR('',#2056,1.0);
#2054=VECTOR('',#2057,1.0);
#2055=DIRECTION('',(0.7071074310366592,0,0.7071061313358387));
#2056=DIRECTION('',(-1,0,0));
#2057=DIRECTION('',(0,0,-1));
#2058=FACE_SURFACE('',(#2063),#2059,.T.);
#2059=PLANE('',#2060);
#2060=AXIS2_PLACEMENT_3D('',#190,#2061,#2062);
#2061=DIRECTION('',(0,1,0));
#2062=DIRECTION('',(-1,0,0));
#2063=FACE_BOUND('',#2064,.T.);
#2064=EDGE_LOOP('',(#2065,#2066,#2067));
#2065=ORIENTED_EDGE('',*,*,#2068,.T.);
#2066=ORIENTED_EDGE('',*,*,#2069,.T.);
#2067=ORIENTED_EDGE('',*,*,#2070,.T.);
#2068=EDGE_CURVE('',#191,#207,#2071,.F.);
#2069=EDGE_CURVE('',#207,#209,#2072,.T.);
#2070=EDGE_CURVE('',#209,#191,#2073,.T.);
#2071=LINE('',#190,#2074);
#2072=LINE('',#206,#2075);
#2073=LINE('',#208,#2076);
#2074=VECTOR('',#2077,1.0);
#2075=VECTOR('',#2078,1.0);
#2076=VECTOR('',#2079,1.0);
#2077=DIRECTION('',(-1,0,0));
#2078=DIRECTION('',(0,0,1));
#2079=DIRECTION('',(0.7071074310366592,0,-0.7071061313358387));
#2080=FACE_SURFACE('',(#2085),#2081,.T.);
#2081=PLANE('',#2082);
#2082=AXIS2_PLACEMENT_3D('',#190,#2083,#2084);
#2083=DIRECTION('',(0,1,-0));
#2084=DIRECTION('',(-0.7071074310366592,0,0.7071061313358387));
#2085=FACE_BOUND('',#2086,.T.);
#2086=EDGE_LOOP('',(#2087,#2088,#2089));
#2087=ORIENTED_EDGE('',*,*,#2090,.T.);
#2088=ORIENTED_EDGE('',*,*,#2091,.T.);
#2089=ORIENTED_EDGE('',*,*,#2092,.T.);
#2090=EDGE_CURVE('',#191,#209,#2093,.F.);
#2091=EDGE_CURVE('',#209,#195,#2094,.T.);
#2092=EDGE_CURVE('',#195,#191,#2095,.T.);
#2093=LINE('',#190,#2096);
#2094=LINE('',#208,#2097);
#2095=LINE('',#194,#2098);
#2096=VECTOR('',#2099,1.0);
#2097=VECTOR('',#2100,1.0);
#2098=VECTOR('',#2101,1.0);
#2099=DIRECTION('',(-0.7071074310366592,0,0.7071061313358387));
#2100=DIRECTION('',(1,0,0));
#2101=DIRECTION('',(0,0,-1));
ENDSEC;
END-ISO-10303-21;
