ISO-10303-21;
HEADER;
/* Generated by software containing ST-Developer
 * from STEP Tools, Inc. (www.steptools.com) 
 */
/* OPTION: strings as raw bytes, not using required /X/ escapes */

FILE_DESCRIPTION(
/* description */ ('Unknown'),
/* implementation_level */ '2;1');

FILE_NAME(
/* name */ 'QFN48_P040_H085',
/* time_stamp */ '2025-09-23T10:18:32+03:00',
/* author */ ('Unknown'),
/* organization */ ('Unknown'),
/* preprocessor_version */ 'ST-DEVELOPER v19.4',
/* originating_system */ 'Solid Edge',
/* authorisation */ 'Unknown');

FILE_SCHEMA (('AUTOMOTIVE_DESIGN {1 0 10303 214 3 1 1}'));
ENDSEC;

DATA;
#10=PROPERTY_DEFINITION_REPRESENTATION(#14,#12);
#11=PROPERTY_DEFINITION_REPRESENTATION(#15,#13);
#12=REPRESENTATION('',(#16),#1508);
#13=REPRESENTATION('',(#17),#1508);
#14=PROPERTY_DEFINITION('pmi validation property','',#1519);
#15=PROPERTY_DEFINITION('pmi validation property','',#1519);
#16=VALUE_REPRESENTATION_ITEM('number of annotations',COUNT_MEASURE(0.));
#17=VALUE_REPRESENTATION_ITEM('number of views',COUNT_MEASURE(0.));
#18=CONTEXT_DEPENDENT_SHAPE_REPRESENTATION(#118,#1521);
#19=CONTEXT_DEPENDENT_SHAPE_REPRESENTATION(#119,#1523);
#20=CONTEXT_DEPENDENT_SHAPE_REPRESENTATION(#120,#1525);
#21=CONTEXT_DEPENDENT_SHAPE_REPRESENTATION(#121,#1526);
#22=CONTEXT_DEPENDENT_SHAPE_REPRESENTATION(#122,#1527);
#23=CONTEXT_DEPENDENT_SHAPE_REPRESENTATION(#123,#1528);
#24=CONTEXT_DEPENDENT_SHAPE_REPRESENTATION(#124,#1529);
#25=CONTEXT_DEPENDENT_SHAPE_REPRESENTATION(#125,#1530);
#26=CONTEXT_DEPENDENT_SHAPE_REPRESENTATION(#126,#1531);
#27=CONTEXT_DEPENDENT_SHAPE_REPRESENTATION(#127,#1532);
#28=CONTEXT_DEPENDENT_SHAPE_REPRESENTATION(#128,#1533);
#29=CONTEXT_DEPENDENT_SHAPE_REPRESENTATION(#129,#1534);
#30=CONTEXT_DEPENDENT_SHAPE_REPRESENTATION(#130,#1535);
#31=CONTEXT_DEPENDENT_SHAPE_REPRESENTATION(#131,#1536);
#32=CONTEXT_DEPENDENT_SHAPE_REPRESENTATION(#132,#1537);
#33=CONTEXT_DEPENDENT_SHAPE_REPRESENTATION(#133,#1538);
#34=CONTEXT_DEPENDENT_SHAPE_REPRESENTATION(#134,#1539);
#35=CONTEXT_DEPENDENT_SHAPE_REPRESENTATION(#135,#1540);
#36=CONTEXT_DEPENDENT_SHAPE_REPRESENTATION(#136,#1541);
#37=CONTEXT_DEPENDENT_SHAPE_REPRESENTATION(#137,#1542);
#38=CONTEXT_DEPENDENT_SHAPE_REPRESENTATION(#138,#1543);
#39=CONTEXT_DEPENDENT_SHAPE_REPRESENTATION(#139,#1544);
#40=CONTEXT_DEPENDENT_SHAPE_REPRESENTATION(#140,#1545);
#41=CONTEXT_DEPENDENT_SHAPE_REPRESENTATION(#141,#1546);
#42=CONTEXT_DEPENDENT_SHAPE_REPRESENTATION(#142,#1547);
#43=CONTEXT_DEPENDENT_SHAPE_REPRESENTATION(#143,#1548);
#44=CONTEXT_DEPENDENT_SHAPE_REPRESENTATION(#144,#1549);
#45=CONTEXT_DEPENDENT_SHAPE_REPRESENTATION(#145,#1550);
#46=CONTEXT_DEPENDENT_SHAPE_REPRESENTATION(#146,#1551);
#47=CONTEXT_DEPENDENT_SHAPE_REPRESENTATION(#147,#1552);
#48=CONTEXT_DEPENDENT_SHAPE_REPRESENTATION(#148,#1553);
#49=CONTEXT_DEPENDENT_SHAPE_REPRESENTATION(#149,#1554);
#50=CONTEXT_DEPENDENT_SHAPE_REPRESENTATION(#150,#1555);
#51=CONTEXT_DEPENDENT_SHAPE_REPRESENTATION(#151,#1556);
#52=CONTEXT_DEPENDENT_SHAPE_REPRESENTATION(#152,#1557);
#53=CONTEXT_DEPENDENT_SHAPE_REPRESENTATION(#153,#1558);
#54=CONTEXT_DEPENDENT_SHAPE_REPRESENTATION(#154,#1559);
#55=CONTEXT_DEPENDENT_SHAPE_REPRESENTATION(#155,#1560);
#56=CONTEXT_DEPENDENT_SHAPE_REPRESENTATION(#156,#1561);
#57=CONTEXT_DEPENDENT_SHAPE_REPRESENTATION(#157,#1562);
#58=CONTEXT_DEPENDENT_SHAPE_REPRESENTATION(#158,#1563);
#59=CONTEXT_DEPENDENT_SHAPE_REPRESENTATION(#159,#1564);
#60=CONTEXT_DEPENDENT_SHAPE_REPRESENTATION(#160,#1565);
#61=CONTEXT_DEPENDENT_SHAPE_REPRESENTATION(#161,#1566);
#62=CONTEXT_DEPENDENT_SHAPE_REPRESENTATION(#162,#1567);
#63=CONTEXT_DEPENDENT_SHAPE_REPRESENTATION(#163,#1568);
#64=CONTEXT_DEPENDENT_SHAPE_REPRESENTATION(#164,#1569);
#65=CONTEXT_DEPENDENT_SHAPE_REPRESENTATION(#165,#1570);
#66=CONTEXT_DEPENDENT_SHAPE_REPRESENTATION(#166,#1571);
#67=CONTEXT_DEPENDENT_SHAPE_REPRESENTATION(#167,#1572);
#68=NEXT_ASSEMBLY_USAGE_OCCURRENCE('QFN48P040_body','QFN48P040_body',
'QFN48P040_body',#1573,#1574,'');
#69=NEXT_ASSEMBLY_USAGE_OCCURRENCE('QFN48P040_pad','QFN48P040_pad',
'QFN48P040_pad',#1573,#1575,'');
#70=NEXT_ASSEMBLY_USAGE_OCCURRENCE('QFN48P040_pin','QFN48P040_pin',
'QFN48P040_pin',#1573,#1576,'');
#71=NEXT_ASSEMBLY_USAGE_OCCURRENCE('QFN48P040_pin','QFN48P040_pin',
'QFN48P040_pin',#1573,#1576,'');
#72=NEXT_ASSEMBLY_USAGE_OCCURRENCE('QFN48P040_pin','QFN48P040_pin',
'QFN48P040_pin',#1573,#1576,'');
#73=NEXT_ASSEMBLY_USAGE_OCCURRENCE('QFN48P040_pin','QFN48P040_pin',
'QFN48P040_pin',#1573,#1576,'');
#74=NEXT_ASSEMBLY_USAGE_OCCURRENCE('QFN48P040_pin','QFN48P040_pin',
'QFN48P040_pin',#1573,#1576,'');
#75=NEXT_ASSEMBLY_USAGE_OCCURRENCE('QFN48P040_pin','QFN48P040_pin',
'QFN48P040_pin',#1573,#1576,'');
#76=NEXT_ASSEMBLY_USAGE_OCCURRENCE('QFN48P040_pin','QFN48P040_pin',
'QFN48P040_pin',#1573,#1576,'');
#77=NEXT_ASSEMBLY_USAGE_OCCURRENCE('QFN48P040_pin','QFN48P040_pin',
'QFN48P040_pin',#1573,#1576,'');
#78=NEXT_ASSEMBLY_USAGE_OCCURRENCE('QFN48P040_pin','QFN48P040_pin',
'QFN48P040_pin',#1573,#1576,'');
#79=NEXT_ASSEMBLY_USAGE_OCCURRENCE('QFN48P040_pin','QFN48P040_pin',
'QFN48P040_pin',#1573,#1576,'');
#80=NEXT_ASSEMBLY_USAGE_OCCURRENCE('QFN48P040_pin','QFN48P040_pin',
'QFN48P040_pin',#1573,#1576,'');
#81=NEXT_ASSEMBLY_USAGE_OCCURRENCE('QFN48P040_pin','QFN48P040_pin',
'QFN48P040_pin',#1573,#1576,'');
#82=NEXT_ASSEMBLY_USAGE_OCCURRENCE('QFN48P040_pin','QFN48P040_pin',
'QFN48P040_pin',#1573,#1576,'');
#83=NEXT_ASSEMBLY_USAGE_OCCURRENCE('QFN48P040_pin','QFN48P040_pin',
'QFN48P040_pin',#1573,#1576,'');
#84=NEXT_ASSEMBLY_USAGE_OCCURRENCE('QFN48P040_pin','QFN48P040_pin',
'QFN48P040_pin',#1573,#1576,'');
#85=NEXT_ASSEMBLY_USAGE_OCCURRENCE('QFN48P040_pin','QFN48P040_pin',
'QFN48P040_pin',#1573,#1576,'');
#86=NEXT_ASSEMBLY_USAGE_OCCURRENCE('QFN48P040_pin','QFN48P040_pin',
'QFN48P040_pin',#1573,#1576,'');
#87=NEXT_ASSEMBLY_USAGE_OCCURRENCE('QFN48P040_pin','QFN48P040_pin',
'QFN48P040_pin',#1573,#1576,'');
#88=NEXT_ASSEMBLY_USAGE_OCCURRENCE('QFN48P040_pin','QFN48P040_pin',
'QFN48P040_pin',#1573,#1576,'');
#89=NEXT_ASSEMBLY_USAGE_OCCURRENCE('QFN48P040_pin','QFN48P040_pin',
'QFN48P040_pin',#1573,#1576,'');
#90=NEXT_ASSEMBLY_USAGE_OCCURRENCE('QFN48P040_pin','QFN48P040_pin',
'QFN48P040_pin',#1573,#1576,'');
#91=NEXT_ASSEMBLY_USAGE_OCCURRENCE('QFN48P040_pin','QFN48P040_pin',
'QFN48P040_pin',#1573,#1576,'');
#92=NEXT_ASSEMBLY_USAGE_OCCURRENCE('QFN48P040_pin','QFN48P040_pin',
'QFN48P040_pin',#1573,#1576,'');
#93=NEXT_ASSEMBLY_USAGE_OCCURRENCE('QFN48P040_pin','QFN48P040_pin',
'QFN48P040_pin',#1573,#1576,'');
#94=NEXT_ASSEMBLY_USAGE_OCCURRENCE('QFN48P040_pin','QFN48P040_pin',
'QFN48P040_pin',#1573,#1576,'');
#95=NEXT_ASSEMBLY_USAGE_OCCURRENCE('QFN48P040_pin','QFN48P040_pin',
'QFN48P040_pin',#1573,#1576,'');
#96=NEXT_ASSEMBLY_USAGE_OCCURRENCE('QFN48P040_pin','QFN48P040_pin',
'QFN48P040_pin',#1573,#1576,'');
#97=NEXT_ASSEMBLY_USAGE_OCCURRENCE('QFN48P040_pin','QFN48P040_pin',
'QFN48P040_pin',#1573,#1576,'');
#98=NEXT_ASSEMBLY_USAGE_OCCURRENCE('QFN48P040_pin','QFN48P040_pin',
'QFN48P040_pin',#1573,#1576,'');
#99=NEXT_ASSEMBLY_USAGE_OCCURRENCE('QFN48P040_pin','QFN48P040_pin',
'QFN48P040_pin',#1573,#1576,'');
#100=NEXT_ASSEMBLY_USAGE_OCCURRENCE('QFN48P040_pin','QFN48P040_pin',
'QFN48P040_pin',#1573,#1576,'');
#101=NEXT_ASSEMBLY_USAGE_OCCURRENCE('QFN48P040_pin','QFN48P040_pin',
'QFN48P040_pin',#1573,#1576,'');
#102=NEXT_ASSEMBLY_USAGE_OCCURRENCE('QFN48P040_pin','QFN48P040_pin',
'QFN48P040_pin',#1573,#1576,'');
#103=NEXT_ASSEMBLY_USAGE_OCCURRENCE('QFN48P040_pin','QFN48P040_pin',
'QFN48P040_pin',#1573,#1576,'');
#104=NEXT_ASSEMBLY_USAGE_OCCURRENCE('QFN48P040_pin','QFN48P040_pin',
'QFN48P040_pin',#1573,#1576,'');
#105=NEXT_ASSEMBLY_USAGE_OCCURRENCE('QFN48P040_pin','QFN48P040_pin',
'QFN48P040_pin',#1573,#1576,'');
#106=NEXT_ASSEMBLY_USAGE_OCCURRENCE('QFN48P040_pin','QFN48P040_pin',
'QFN48P040_pin',#1573,#1576,'');
#107=NEXT_ASSEMBLY_USAGE_OCCURRENCE('QFN48P040_pin','QFN48P040_pin',
'QFN48P040_pin',#1573,#1576,'');
#108=NEXT_ASSEMBLY_USAGE_OCCURRENCE('QFN48P040_pin','QFN48P040_pin',
'QFN48P040_pin',#1573,#1576,'');
#109=NEXT_ASSEMBLY_USAGE_OCCURRENCE('QFN48P040_pin','QFN48P040_pin',
'QFN48P040_pin',#1573,#1576,'');
#110=NEXT_ASSEMBLY_USAGE_OCCURRENCE('QFN48P040_pin','QFN48P040_pin',
'QFN48P040_pin',#1573,#1576,'');
#111=NEXT_ASSEMBLY_USAGE_OCCURRENCE('QFN48P040_pin','QFN48P040_pin',
'QFN48P040_pin',#1573,#1576,'');
#112=NEXT_ASSEMBLY_USAGE_OCCURRENCE('QFN48P040_pin','QFN48P040_pin',
'QFN48P040_pin',#1573,#1576,'');
#113=NEXT_ASSEMBLY_USAGE_OCCURRENCE('QFN48P040_pin','QFN48P040_pin',
'QFN48P040_pin',#1573,#1576,'');
#114=NEXT_ASSEMBLY_USAGE_OCCURRENCE('QFN48P040_pin','QFN48P040_pin',
'QFN48P040_pin',#1573,#1576,'');
#115=NEXT_ASSEMBLY_USAGE_OCCURRENCE('QFN48P040_pin','QFN48P040_pin',
'QFN48P040_pin',#1573,#1576,'');
#116=NEXT_ASSEMBLY_USAGE_OCCURRENCE('QFN48P040_pin','QFN48P040_pin',
'QFN48P040_pin',#1573,#1576,'');
#117=NEXT_ASSEMBLY_USAGE_OCCURRENCE('QFN48P040_pin','QFN48P040_pin',
'QFN48P040_pin',#1573,#1576,'');
#118=(
REPRESENTATION_RELATIONSHIP(' ',' ',#909,#910)
REPRESENTATION_RELATIONSHIP_WITH_TRANSFORMATION(#168)
SHAPE_REPRESENTATION_RELATIONSHIP()
);
#119=(
REPRESENTATION_RELATIONSHIP(' ',' ',#911,#910)
REPRESENTATION_RELATIONSHIP_WITH_TRANSFORMATION(#169)
SHAPE_REPRESENTATION_RELATIONSHIP()
);
#120=(
REPRESENTATION_RELATIONSHIP(' ',' ',#912,#910)
REPRESENTATION_RELATIONSHIP_WITH_TRANSFORMATION(#170)
SHAPE_REPRESENTATION_RELATIONSHIP()
);
#121=(
REPRESENTATION_RELATIONSHIP(' ',' ',#912,#910)
REPRESENTATION_RELATIONSHIP_WITH_TRANSFORMATION(#171)
SHAPE_REPRESENTATION_RELATIONSHIP()
);
#122=(
REPRESENTATION_RELATIONSHIP(' ',' ',#912,#910)
REPRESENTATION_RELATIONSHIP_WITH_TRANSFORMATION(#172)
SHAPE_REPRESENTATION_RELATIONSHIP()
);
#123=(
REPRESENTATION_RELATIONSHIP(' ',' ',#912,#910)
REPRESENTATION_RELATIONSHIP_WITH_TRANSFORMATION(#173)
SHAPE_REPRESENTATION_RELATIONSHIP()
);
#124=(
REPRESENTATION_RELATIONSHIP(' ',' ',#912,#910)
REPRESENTATION_RELATIONSHIP_WITH_TRANSFORMATION(#174)
SHAPE_REPRESENTATION_RELATIONSHIP()
);
#125=(
REPRESENTATION_RELATIONSHIP(' ',' ',#912,#910)
REPRESENTATION_RELATIONSHIP_WITH_TRANSFORMATION(#175)
SHAPE_REPRESENTATION_RELATIONSHIP()
);
#126=(
REPRESENTATION_RELATIONSHIP(' ',' ',#912,#910)
REPRESENTATION_RELATIONSHIP_WITH_TRANSFORMATION(#176)
SHAPE_REPRESENTATION_RELATIONSHIP()
);
#127=(
REPRESENTATION_RELATIONSHIP(' ',' ',#912,#910)
REPRESENTATION_RELATIONSHIP_WITH_TRANSFORMATION(#177)
SHAPE_REPRESENTATION_RELATIONSHIP()
);
#128=(
REPRESENTATION_RELATIONSHIP(' ',' ',#912,#910)
REPRESENTATION_RELATIONSHIP_WITH_TRANSFORMATION(#178)
SHAPE_REPRESENTATION_RELATIONSHIP()
);
#129=(
REPRESENTATION_RELATIONSHIP(' ',' ',#912,#910)
REPRESENTATION_RELATIONSHIP_WITH_TRANSFORMATION(#179)
SHAPE_REPRESENTATION_RELATIONSHIP()
);
#130=(
REPRESENTATION_RELATIONSHIP(' ',' ',#912,#910)
REPRESENTATION_RELATIONSHIP_WITH_TRANSFORMATION(#180)
SHAPE_REPRESENTATION_RELATIONSHIP()
);
#131=(
REPRESENTATION_RELATIONSHIP(' ',' ',#912,#910)
REPRESENTATION_RELATIONSHIP_WITH_TRANSFORMATION(#181)
SHAPE_REPRESENTATION_RELATIONSHIP()
);
#132=(
REPRESENTATION_RELATIONSHIP(' ',' ',#912,#910)
REPRESENTATION_RELATIONSHIP_WITH_TRANSFORMATION(#182)
SHAPE_REPRESENTATION_RELATIONSHIP()
);
#133=(
REPRESENTATION_RELATIONSHIP(' ',' ',#912,#910)
REPRESENTATION_RELATIONSHIP_WITH_TRANSFORMATION(#183)
SHAPE_REPRESENTATION_RELATIONSHIP()
);
#134=(
REPRESENTATION_RELATIONSHIP(' ',' ',#912,#910)
REPRESENTATION_RELATIONSHIP_WITH_TRANSFORMATION(#184)
SHAPE_REPRESENTATION_RELATIONSHIP()
);
#135=(
REPRESENTATION_RELATIONSHIP(' ',' ',#912,#910)
REPRESENTATION_RELATIONSHIP_WITH_TRANSFORMATION(#185)
SHAPE_REPRESENTATION_RELATIONSHIP()
);
#136=(
REPRESENTATION_RELATIONSHIP(' ',' ',#912,#910)
REPRESENTATION_RELATIONSHIP_WITH_TRANSFORMATION(#186)
SHAPE_REPRESENTATION_RELATIONSHIP()
);
#137=(
REPRESENTATION_RELATIONSHIP(' ',' ',#912,#910)
REPRESENTATION_RELATIONSHIP_WITH_TRANSFORMATION(#187)
SHAPE_REPRESENTATION_RELATIONSHIP()
);
#138=(
REPRESENTATION_RELATIONSHIP(' ',' ',#912,#910)
REPRESENTATION_RELATIONSHIP_WITH_TRANSFORMATION(#188)
SHAPE_REPRESENTATION_RELATIONSHIP()
);
#139=(
REPRESENTATION_RELATIONSHIP(' ',' ',#912,#910)
REPRESENTATION_RELATIONSHIP_WITH_TRANSFORMATION(#189)
SHAPE_REPRESENTATION_RELATIONSHIP()
);
#140=(
REPRESENTATION_RELATIONSHIP(' ',' ',#912,#910)
REPRESENTATION_RELATIONSHIP_WITH_TRANSFORMATION(#190)
SHAPE_REPRESENTATION_RELATIONSHIP()
);
#141=(
REPRESENTATION_RELATIONSHIP(' ',' ',#912,#910)
REPRESENTATION_RELATIONSHIP_WITH_TRANSFORMATION(#191)
SHAPE_REPRESENTATION_RELATIONSHIP()
);
#142=(
REPRESENTATION_RELATIONSHIP(' ',' ',#912,#910)
REPRESENTATION_RELATIONSHIP_WITH_TRANSFORMATION(#192)
SHAPE_REPRESENTATION_RELATIONSHIP()
);
#143=(
REPRESENTATION_RELATIONSHIP(' ',' ',#912,#910)
REPRESENTATION_RELATIONSHIP_WITH_TRANSFORMATION(#193)
SHAPE_REPRESENTATION_RELATIONSHIP()
);
#144=(
REPRESENTATION_RELATIONSHIP(' ',' ',#912,#910)
REPRESENTATION_RELATIONSHIP_WITH_TRANSFORMATION(#194)
SHAPE_REPRESENTATION_RELATIONSHIP()
);
#145=(
REPRESENTATION_RELATIONSHIP(' ',' ',#912,#910)
REPRESENTATION_RELATIONSHIP_WITH_TRANSFORMATION(#195)
SHAPE_REPRESENTATION_RELATIONSHIP()
);
#146=(
REPRESENTATION_RELATIONSHIP(' ',' ',#912,#910)
REPRESENTATION_RELATIONSHIP_WITH_TRANSFORMATION(#196)
SHAPE_REPRESENTATION_RELATIONSHIP()
);
#147=(
REPRESENTATION_RELATIONSHIP(' ',' ',#912,#910)
REPRESENTATION_RELATIONSHIP_WITH_TRANSFORMATION(#197)
SHAPE_REPRESENTATION_RELATIONSHIP()
);
#148=(
REPRESENTATION_RELATIONSHIP(' ',' ',#912,#910)
REPRESENTATION_RELATIONSHIP_WITH_TRANSFORMATION(#198)
SHAPE_REPRESENTATION_RELATIONSHIP()
);
#149=(
REPRESENTATION_RELATIONSHIP(' ',' ',#912,#910)
REPRESENTATION_RELATIONSHIP_WITH_TRANSFORMATION(#199)
SHAPE_REPRESENTATION_RELATIONSHIP()
);
#150=(
REPRESENTATION_RELATIONSHIP(' ',' ',#912,#910)
REPRESENTATION_RELATIONSHIP_WITH_TRANSFORMATION(#200)
SHAPE_REPRESENTATION_RELATIONSHIP()
);
#151=(
REPRESENTATION_RELATIONSHIP(' ',' ',#912,#910)
REPRESENTATION_RELATIONSHIP_WITH_TRANSFORMATION(#201)
SHAPE_REPRESENTATION_RELATIONSHIP()
);
#152=(
REPRESENTATION_RELATIONSHIP(' ',' ',#912,#910)
REPRESENTATION_RELATIONSHIP_WITH_TRANSFORMATION(#202)
SHAPE_REPRESENTATION_RELATIONSHIP()
);
#153=(
REPRESENTATION_RELATIONSHIP(' ',' ',#912,#910)
REPRESENTATION_RELATIONSHIP_WITH_TRANSFORMATION(#203)
SHAPE_REPRESENTATION_RELATIONSHIP()
);
#154=(
REPRESENTATION_RELATIONSHIP(' ',' ',#912,#910)
REPRESENTATION_RELATIONSHIP_WITH_TRANSFORMATION(#204)
SHAPE_REPRESENTATION_RELATIONSHIP()
);
#155=(
REPRESENTATION_RELATIONSHIP(' ',' ',#912,#910)
REPRESENTATION_RELATIONSHIP_WITH_TRANSFORMATION(#205)
SHAPE_REPRESENTATION_RELATIONSHIP()
);
#156=(
REPRESENTATION_RELATIONSHIP(' ',' ',#912,#910)
REPRESENTATION_RELATIONSHIP_WITH_TRANSFORMATION(#206)
SHAPE_REPRESENTATION_RELATIONSHIP()
);
#157=(
REPRESENTATION_RELATIONSHIP(' ',' ',#912,#910)
REPRESENTATION_RELATIONSHIP_WITH_TRANSFORMATION(#207)
SHAPE_REPRESENTATION_RELATIONSHIP()
);
#158=(
REPRESENTATION_RELATIONSHIP(' ',' ',#912,#910)
REPRESENTATION_RELATIONSHIP_WITH_TRANSFORMATION(#208)
SHAPE_REPRESENTATION_RELATIONSHIP()
);
#159=(
REPRESENTATION_RELATIONSHIP(' ',' ',#912,#910)
REPRESENTATION_RELATIONSHIP_WITH_TRANSFORMATION(#209)
SHAPE_REPRESENTATION_RELATIONSHIP()
);
#160=(
REPRESENTATION_RELATIONSHIP(' ',' ',#912,#910)
REPRESENTATION_RELATIONSHIP_WITH_TRANSFORMATION(#210)
SHAPE_REPRESENTATION_RELATIONSHIP()
);
#161=(
REPRESENTATION_RELATIONSHIP(' ',' ',#912,#910)
REPRESENTATION_RELATIONSHIP_WITH_TRANSFORMATION(#211)
SHAPE_REPRESENTATION_RELATIONSHIP()
);
#162=(
REPRESENTATION_RELATIONSHIP(' ',' ',#912,#910)
REPRESENTATION_RELATIONSHIP_WITH_TRANSFORMATION(#212)
SHAPE_REPRESENTATION_RELATIONSHIP()
);
#163=(
REPRESENTATION_RELATIONSHIP(' ',' ',#912,#910)
REPRESENTATION_RELATIONSHIP_WITH_TRANSFORMATION(#213)
SHAPE_REPRESENTATION_RELATIONSHIP()
);
#164=(
REPRESENTATION_RELATIONSHIP(' ',' ',#912,#910)
REPRESENTATION_RELATIONSHIP_WITH_TRANSFORMATION(#214)
SHAPE_REPRESENTATION_RELATIONSHIP()
);
#165=(
REPRESENTATION_RELATIONSHIP(' ',' ',#912,#910)
REPRESENTATION_RELATIONSHIP_WITH_TRANSFORMATION(#215)
SHAPE_REPRESENTATION_RELATIONSHIP()
);
#166=(
REPRESENTATION_RELATIONSHIP(' ',' ',#912,#910)
REPRESENTATION_RELATIONSHIP_WITH_TRANSFORMATION(#216)
SHAPE_REPRESENTATION_RELATIONSHIP()
);
#167=(
REPRESENTATION_RELATIONSHIP(' ',' ',#912,#910)
REPRESENTATION_RELATIONSHIP_WITH_TRANSFORMATION(#217)
SHAPE_REPRESENTATION_RELATIONSHIP()
);
#168=ITEM_DEFINED_TRANSFORMATION(' ',' ',#913,#936);
#169=ITEM_DEFINED_TRANSFORMATION(' ',' ',#913,#953);
#170=ITEM_DEFINED_TRANSFORMATION(' ',' ',#913,#970);
#171=ITEM_DEFINED_TRANSFORMATION(' ',' ',#913,#971);
#172=ITEM_DEFINED_TRANSFORMATION(' ',' ',#913,#972);
#173=ITEM_DEFINED_TRANSFORMATION(' ',' ',#913,#973);
#174=ITEM_DEFINED_TRANSFORMATION(' ',' ',#913,#974);
#175=ITEM_DEFINED_TRANSFORMATION(' ',' ',#913,#975);
#176=ITEM_DEFINED_TRANSFORMATION(' ',' ',#913,#976);
#177=ITEM_DEFINED_TRANSFORMATION(' ',' ',#913,#977);
#178=ITEM_DEFINED_TRANSFORMATION(' ',' ',#913,#978);
#179=ITEM_DEFINED_TRANSFORMATION(' ',' ',#913,#979);
#180=ITEM_DEFINED_TRANSFORMATION(' ',' ',#913,#980);
#181=ITEM_DEFINED_TRANSFORMATION(' ',' ',#913,#981);
#182=ITEM_DEFINED_TRANSFORMATION(' ',' ',#913,#982);
#183=ITEM_DEFINED_TRANSFORMATION(' ',' ',#913,#983);
#184=ITEM_DEFINED_TRANSFORMATION(' ',' ',#913,#984);
#185=ITEM_DEFINED_TRANSFORMATION(' ',' ',#913,#985);
#186=ITEM_DEFINED_TRANSFORMATION(' ',' ',#913,#986);
#187=ITEM_DEFINED_TRANSFORMATION(' ',' ',#913,#987);
#188=ITEM_DEFINED_TRANSFORMATION(' ',' ',#913,#988);
#189=ITEM_DEFINED_TRANSFORMATION(' ',' ',#913,#989);
#190=ITEM_DEFINED_TRANSFORMATION(' ',' ',#913,#990);
#191=ITEM_DEFINED_TRANSFORMATION(' ',' ',#913,#991);
#192=ITEM_DEFINED_TRANSFORMATION(' ',' ',#913,#992);
#193=ITEM_DEFINED_TRANSFORMATION(' ',' ',#913,#993);
#194=ITEM_DEFINED_TRANSFORMATION(' ',' ',#913,#994);
#195=ITEM_DEFINED_TRANSFORMATION(' ',' ',#913,#995);
#196=ITEM_DEFINED_TRANSFORMATION(' ',' ',#913,#996);
#197=ITEM_DEFINED_TRANSFORMATION(' ',' ',#913,#997);
#198=ITEM_DEFINED_TRANSFORMATION(' ',' ',#913,#998);
#199=ITEM_DEFINED_TRANSFORMATION(' ',' ',#913,#999);
#200=ITEM_DEFINED_TRANSFORMATION(' ',' ',#913,#1000);
#201=ITEM_DEFINED_TRANSFORMATION(' ',' ',#913,#1001);
#202=ITEM_DEFINED_TRANSFORMATION(' ',' ',#913,#1002);
#203=ITEM_DEFINED_TRANSFORMATION(' ',' ',#913,#1003);
#204=ITEM_DEFINED_TRANSFORMATION(' ',' ',#913,#1004);
#205=ITEM_DEFINED_TRANSFORMATION(' ',' ',#913,#1005);
#206=ITEM_DEFINED_TRANSFORMATION(' ',' ',#913,#1006);
#207=ITEM_DEFINED_TRANSFORMATION(' ',' ',#913,#1007);
#208=ITEM_DEFINED_TRANSFORMATION(' ',' ',#913,#1008);
#209=ITEM_DEFINED_TRANSFORMATION(' ',' ',#913,#1009);
#210=ITEM_DEFINED_TRANSFORMATION(' ',' ',#913,#1010);
#211=ITEM_DEFINED_TRANSFORMATION(' ',' ',#913,#1011);
#212=ITEM_DEFINED_TRANSFORMATION(' ',' ',#913,#1012);
#213=ITEM_DEFINED_TRANSFORMATION(' ',' ',#913,#1013);
#214=ITEM_DEFINED_TRANSFORMATION(' ',' ',#913,#1014);
#215=ITEM_DEFINED_TRANSFORMATION(' ',' ',#913,#1015);
#216=ITEM_DEFINED_TRANSFORMATION(' ',' ',#913,#1016);
#217=ITEM_DEFINED_TRANSFORMATION(' ',' ',#913,#1017);
#218=SHAPE_REPRESENTATION_RELATIONSHIP('','',#909,#221);
#219=SHAPE_REPRESENTATION_RELATIONSHIP('','',#911,#222);
#220=SHAPE_REPRESENTATION_RELATIONSHIP('','',#912,#223);
#221=ADVANCED_BREP_SHAPE_REPRESENTATION('',(#902),#1509);
#222=ADVANCED_BREP_SHAPE_REPRESENTATION('',(#903),#1510);
#223=ADVANCED_BREP_SHAPE_REPRESENTATION('',(#904),#1511);
#224=CYLINDRICAL_SURFACE('',#932,0.0500000000000001);
#225=CYLINDRICAL_SURFACE('',#933,0.0500000000000001);
#226=CYLINDRICAL_SURFACE('',#934,0.0500000000000001);
#227=CYLINDRICAL_SURFACE('',#935,0.0500000000000001);
#228=CYLINDRICAL_SURFACE('',#938,0.05);
#229=CYLINDRICAL_SURFACE('',#944,0.05);
#230=CYLINDRICAL_SURFACE('',#948,0.05);
#231=CYLINDRICAL_SURFACE('',#958,0.05);
#232=CYLINDRICAL_SURFACE('',#962,0.05);
#233=CONICAL_SURFACE('',#929,0.25,0.174532925199433);
#234=CIRCLE('',#919,0.267632698070847);
#235=CIRCLE('',#920,0.0500000000000001);
#236=CIRCLE('',#921,0.0500000000000001);
#237=CIRCLE('',#922,0.0500000000000001);
#238=CIRCLE('',#923,0.0500000000000001);
#239=CIRCLE('',#925,0.0500000000000001);
#240=CIRCLE('',#926,0.0500000000000001);
#241=CIRCLE('',#927,0.0500000000000001);
#242=CIRCLE('',#928,0.0500000000000001);
#243=CIRCLE('',#930,0.25);
#244=CIRCLE('',#939,0.05);
#245=CIRCLE('',#940,0.05);
#246=CIRCLE('',#945,0.05);
#247=CIRCLE('',#946,0.05);
#248=CIRCLE('',#949,0.05);
#249=CIRCLE('',#950,0.05);
#250=CIRCLE('',#959,0.05);
#251=CIRCLE('',#960,0.05);
#252=CIRCLE('',#963,0.05);
#253=CIRCLE('',#964,0.05);
#254=ORIENTED_EDGE('',*,*,#414,.T.);
#255=ORIENTED_EDGE('',*,*,#415,.T.);
#256=ORIENTED_EDGE('',*,*,#416,.F.);
#257=ORIENTED_EDGE('',*,*,#417,.T.);
#258=ORIENTED_EDGE('',*,*,#418,.T.);
#259=ORIENTED_EDGE('',*,*,#419,.T.);
#260=ORIENTED_EDGE('',*,*,#420,.F.);
#261=ORIENTED_EDGE('',*,*,#421,.T.);
#262=ORIENTED_EDGE('',*,*,#422,.F.);
#263=ORIENTED_EDGE('',*,*,#423,.T.);
#264=ORIENTED_EDGE('',*,*,#424,.T.);
#265=ORIENTED_EDGE('',*,*,#425,.T.);
#266=ORIENTED_EDGE('',*,*,#426,.T.);
#267=ORIENTED_EDGE('',*,*,#427,.T.);
#268=ORIENTED_EDGE('',*,*,#428,.F.);
#269=ORIENTED_EDGE('',*,*,#429,.T.);
#270=ORIENTED_EDGE('',*,*,#430,.T.);
#271=ORIENTED_EDGE('',*,*,#420,.T.);
#272=ORIENTED_EDGE('',*,*,#431,.T.);
#273=ORIENTED_EDGE('',*,*,#422,.T.);
#274=ORIENTED_EDGE('',*,*,#432,.T.);
#275=ORIENTED_EDGE('',*,*,#428,.T.);
#276=ORIENTED_EDGE('',*,*,#433,.T.);
#277=ORIENTED_EDGE('',*,*,#416,.T.);
#278=ORIENTED_EDGE('',*,*,#434,.T.);
#279=ORIENTED_EDGE('',*,*,#424,.F.);
#280=ORIENTED_EDGE('',*,*,#435,.T.);
#281=ORIENTED_EDGE('',*,*,#418,.F.);
#282=ORIENTED_EDGE('',*,*,#436,.T.);
#283=ORIENTED_EDGE('',*,*,#414,.F.);
#284=ORIENTED_EDGE('',*,*,#437,.T.);
#285=ORIENTED_EDGE('',*,*,#426,.F.);
#286=ORIENTED_EDGE('',*,*,#438,.T.);
#287=ORIENTED_EDGE('',*,*,#439,.T.);
#288=ORIENTED_EDGE('',*,*,#430,.F.);
#289=ORIENTED_EDGE('',*,*,#439,.F.);
#290=ORIENTED_EDGE('',*,*,#432,.F.);
#291=ORIENTED_EDGE('',*,*,#425,.F.);
#292=ORIENTED_EDGE('',*,*,#438,.F.);
#293=ORIENTED_EDGE('',*,*,#429,.F.);
#294=ORIENTED_EDGE('',*,*,#433,.F.);
#295=ORIENTED_EDGE('',*,*,#427,.F.);
#296=ORIENTED_EDGE('',*,*,#437,.F.);
#297=ORIENTED_EDGE('',*,*,#417,.F.);
#298=ORIENTED_EDGE('',*,*,#434,.F.);
#299=ORIENTED_EDGE('',*,*,#415,.F.);
#300=ORIENTED_EDGE('',*,*,#436,.F.);
#301=ORIENTED_EDGE('',*,*,#421,.F.);
#302=ORIENTED_EDGE('',*,*,#431,.F.);
#303=ORIENTED_EDGE('',*,*,#419,.F.);
#304=ORIENTED_EDGE('',*,*,#435,.F.);
#305=ORIENTED_EDGE('',*,*,#423,.F.);
#306=ORIENTED_EDGE('',*,*,#440,.F.);
#307=ORIENTED_EDGE('',*,*,#441,.F.);
#308=ORIENTED_EDGE('',*,*,#442,.T.);
#309=ORIENTED_EDGE('',*,*,#443,.T.);
#310=ORIENTED_EDGE('',*,*,#444,.F.);
#311=ORIENTED_EDGE('',*,*,#443,.F.);
#312=ORIENTED_EDGE('',*,*,#445,.T.);
#313=ORIENTED_EDGE('',*,*,#446,.T.);
#314=ORIENTED_EDGE('',*,*,#447,.F.);
#315=ORIENTED_EDGE('',*,*,#446,.F.);
#316=ORIENTED_EDGE('',*,*,#448,.T.);
#317=ORIENTED_EDGE('',*,*,#449,.T.);
#318=ORIENTED_EDGE('',*,*,#450,.F.);
#319=ORIENTED_EDGE('',*,*,#449,.F.);
#320=ORIENTED_EDGE('',*,*,#451,.T.);
#321=ORIENTED_EDGE('',*,*,#452,.T.);
#322=ORIENTED_EDGE('',*,*,#453,.F.);
#323=ORIENTED_EDGE('',*,*,#452,.F.);
#324=ORIENTED_EDGE('',*,*,#454,.T.);
#325=ORIENTED_EDGE('',*,*,#455,.T.);
#326=ORIENTED_EDGE('',*,*,#456,.F.);
#327=ORIENTED_EDGE('',*,*,#455,.F.);
#328=ORIENTED_EDGE('',*,*,#457,.T.);
#329=ORIENTED_EDGE('',*,*,#458,.T.);
#330=ORIENTED_EDGE('',*,*,#459,.F.);
#331=ORIENTED_EDGE('',*,*,#458,.F.);
#332=ORIENTED_EDGE('',*,*,#460,.T.);
#333=ORIENTED_EDGE('',*,*,#461,.T.);
#334=ORIENTED_EDGE('',*,*,#462,.F.);
#335=ORIENTED_EDGE('',*,*,#461,.F.);
#336=ORIENTED_EDGE('',*,*,#463,.T.);
#337=ORIENTED_EDGE('',*,*,#441,.T.);
#338=ORIENTED_EDGE('',*,*,#442,.F.);
#339=ORIENTED_EDGE('',*,*,#463,.F.);
#340=ORIENTED_EDGE('',*,*,#460,.F.);
#341=ORIENTED_EDGE('',*,*,#457,.F.);
#342=ORIENTED_EDGE('',*,*,#454,.F.);
#343=ORIENTED_EDGE('',*,*,#451,.F.);
#344=ORIENTED_EDGE('',*,*,#448,.F.);
#345=ORIENTED_EDGE('',*,*,#445,.F.);
#346=ORIENTED_EDGE('',*,*,#440,.T.);
#347=ORIENTED_EDGE('',*,*,#444,.T.);
#348=ORIENTED_EDGE('',*,*,#447,.T.);
#349=ORIENTED_EDGE('',*,*,#450,.T.);
#350=ORIENTED_EDGE('',*,*,#453,.T.);
#351=ORIENTED_EDGE('',*,*,#456,.T.);
#352=ORIENTED_EDGE('',*,*,#459,.T.);
#353=ORIENTED_EDGE('',*,*,#462,.T.);
#354=ORIENTED_EDGE('',*,*,#464,.F.);
#355=ORIENTED_EDGE('',*,*,#465,.F.);
#356=ORIENTED_EDGE('',*,*,#466,.T.);
#357=ORIENTED_EDGE('',*,*,#467,.T.);
#358=ORIENTED_EDGE('',*,*,#468,.F.);
#359=ORIENTED_EDGE('',*,*,#467,.F.);
#360=ORIENTED_EDGE('',*,*,#469,.T.);
#361=ORIENTED_EDGE('',*,*,#470,.T.);
#362=ORIENTED_EDGE('',*,*,#471,.F.);
#363=ORIENTED_EDGE('',*,*,#470,.F.);
#364=ORIENTED_EDGE('',*,*,#472,.T.);
#365=ORIENTED_EDGE('',*,*,#473,.T.);
#366=ORIENTED_EDGE('',*,*,#474,.F.);
#367=ORIENTED_EDGE('',*,*,#473,.F.);
#368=ORIENTED_EDGE('',*,*,#475,.T.);
#369=ORIENTED_EDGE('',*,*,#476,.T.);
#370=ORIENTED_EDGE('',*,*,#477,.F.);
#371=ORIENTED_EDGE('',*,*,#476,.F.);
#372=ORIENTED_EDGE('',*,*,#478,.T.);
#373=ORIENTED_EDGE('',*,*,#479,.T.);
#374=ORIENTED_EDGE('',*,*,#480,.F.);
#375=ORIENTED_EDGE('',*,*,#479,.F.);
#376=ORIENTED_EDGE('',*,*,#481,.T.);
#377=ORIENTED_EDGE('',*,*,#482,.T.);
#378=ORIENTED_EDGE('',*,*,#483,.F.);
#379=ORIENTED_EDGE('',*,*,#482,.F.);
#380=ORIENTED_EDGE('',*,*,#484,.T.);
#381=ORIENTED_EDGE('',*,*,#485,.T.);
#382=ORIENTED_EDGE('',*,*,#486,.F.);
#383=ORIENTED_EDGE('',*,*,#485,.F.);
#384=ORIENTED_EDGE('',*,*,#487,.T.);
#385=ORIENTED_EDGE('',*,*,#488,.T.);
#386=ORIENTED_EDGE('',*,*,#489,.F.);
#387=ORIENTED_EDGE('',*,*,#488,.F.);
#388=ORIENTED_EDGE('',*,*,#490,.T.);
#389=ORIENTED_EDGE('',*,*,#491,.T.);
#390=ORIENTED_EDGE('',*,*,#492,.F.);
#391=ORIENTED_EDGE('',*,*,#491,.F.);
#392=ORIENTED_EDGE('',*,*,#493,.T.);
#393=ORIENTED_EDGE('',*,*,#465,.T.);
#394=ORIENTED_EDGE('',*,*,#466,.F.);
#395=ORIENTED_EDGE('',*,*,#493,.F.);
#396=ORIENTED_EDGE('',*,*,#490,.F.);
#397=ORIENTED_EDGE('',*,*,#487,.F.);
#398=ORIENTED_EDGE('',*,*,#484,.F.);
#399=ORIENTED_EDGE('',*,*,#481,.F.);
#400=ORIENTED_EDGE('',*,*,#478,.F.);
#401=ORIENTED_EDGE('',*,*,#475,.F.);
#402=ORIENTED_EDGE('',*,*,#472,.F.);
#403=ORIENTED_EDGE('',*,*,#469,.F.);
#404=ORIENTED_EDGE('',*,*,#464,.T.);
#405=ORIENTED_EDGE('',*,*,#468,.T.);
#406=ORIENTED_EDGE('',*,*,#471,.T.);
#407=ORIENTED_EDGE('',*,*,#474,.T.);
#408=ORIENTED_EDGE('',*,*,#477,.T.);
#409=ORIENTED_EDGE('',*,*,#480,.T.);
#410=ORIENTED_EDGE('',*,*,#483,.T.);
#411=ORIENTED_EDGE('',*,*,#486,.T.);
#412=ORIENTED_EDGE('',*,*,#489,.T.);
#413=ORIENTED_EDGE('',*,*,#492,.T.);
#414=EDGE_CURVE('',#494,#495,#548,.T.);
#415=EDGE_CURVE('',#495,#496,#549,.F.);
#416=EDGE_CURVE('',#497,#496,#550,.T.);
#417=EDGE_CURVE('',#497,#494,#551,.T.);
#418=EDGE_CURVE('',#498,#499,#552,.T.);
#419=EDGE_CURVE('',#499,#500,#553,.F.);
#420=EDGE_CURVE('',#501,#500,#554,.T.);
#421=EDGE_CURVE('',#501,#498,#555,.T.);
#422=EDGE_CURVE('',#502,#503,#556,.T.);
#423=EDGE_CURVE('',#502,#504,#557,.T.);
#424=EDGE_CURVE('',#504,#505,#558,.T.);
#425=EDGE_CURVE('',#505,#503,#559,.F.);
#426=EDGE_CURVE('',#506,#507,#560,.T.);
#427=EDGE_CURVE('',#507,#508,#561,.F.);
#428=EDGE_CURVE('',#509,#508,#562,.T.);
#429=EDGE_CURVE('',#509,#506,#563,.T.);
#430=EDGE_CURVE('',#510,#510,#234,.F.);
#431=EDGE_CURVE('',#500,#502,#235,.T.);
#432=EDGE_CURVE('',#503,#509,#236,.T.);
#433=EDGE_CURVE('',#508,#497,#237,.T.);
#434=EDGE_CURVE('',#496,#501,#238,.T.);
#435=EDGE_CURVE('',#504,#499,#239,.F.);
#436=EDGE_CURVE('',#498,#495,#240,.F.);
#437=EDGE_CURVE('',#494,#507,#241,.F.);
#438=EDGE_CURVE('',#506,#505,#242,.F.);
#439=EDGE_CURVE('',#511,#511,#243,.T.);
#440=EDGE_CURVE('',#512,#513,#564,.T.);
#441=EDGE_CURVE('',#514,#512,#565,.T.);
#442=EDGE_CURVE('',#514,#515,#566,.T.);
#443=EDGE_CURVE('',#515,#513,#567,.T.);
#444=EDGE_CURVE('',#513,#516,#244,.T.);
#445=EDGE_CURVE('',#515,#517,#245,.T.);
#446=EDGE_CURVE('',#517,#516,#568,.T.);
#447=EDGE_CURVE('',#516,#518,#569,.T.);
#448=EDGE_CURVE('',#517,#519,#570,.T.);
#449=EDGE_CURVE('',#519,#518,#571,.T.);
#450=EDGE_CURVE('',#518,#520,#572,.T.);
#451=EDGE_CURVE('',#519,#521,#573,.T.);
#452=EDGE_CURVE('',#521,#520,#574,.T.);
#453=EDGE_CURVE('',#520,#522,#575,.T.);
#454=EDGE_CURVE('',#521,#523,#576,.T.);
#455=EDGE_CURVE('',#523,#522,#577,.T.);
#456=EDGE_CURVE('',#522,#524,#246,.T.);
#457=EDGE_CURVE('',#523,#525,#247,.T.);
#458=EDGE_CURVE('',#525,#524,#578,.T.);
#459=EDGE_CURVE('',#524,#526,#579,.T.);
#460=EDGE_CURVE('',#525,#527,#580,.T.);
#461=EDGE_CURVE('',#527,#526,#581,.T.);
#462=EDGE_CURVE('',#526,#512,#248,.T.);
#463=EDGE_CURVE('',#527,#514,#249,.T.);
#464=EDGE_CURVE('',#528,#529,#582,.T.);
#465=EDGE_CURVE('',#530,#528,#583,.T.);
#466=EDGE_CURVE('',#530,#531,#584,.T.);
#467=EDGE_CURVE('',#531,#529,#585,.T.);
#468=EDGE_CURVE('',#529,#532,#586,.T.);
#469=EDGE_CURVE('',#531,#533,#587,.T.);
#470=EDGE_CURVE('',#533,#532,#588,.T.);
#471=EDGE_CURVE('',#532,#534,#589,.T.);
#472=EDGE_CURVE('',#533,#535,#590,.T.);
#473=EDGE_CURVE('',#535,#534,#591,.T.);
#474=EDGE_CURVE('',#534,#536,#592,.T.);
#475=EDGE_CURVE('',#535,#537,#593,.T.);
#476=EDGE_CURVE('',#537,#536,#594,.T.);
#477=EDGE_CURVE('',#536,#538,#250,.T.);
#478=EDGE_CURVE('',#537,#539,#251,.T.);
#479=EDGE_CURVE('',#539,#538,#595,.F.);
#480=EDGE_CURVE('',#538,#540,#596,.T.);
#481=EDGE_CURVE('',#539,#541,#597,.T.);
#482=EDGE_CURVE('',#541,#540,#598,.T.);
#483=EDGE_CURVE('',#540,#542,#252,.T.);
#484=EDGE_CURVE('',#541,#543,#253,.T.);
#485=EDGE_CURVE('',#543,#542,#599,.F.);
#486=EDGE_CURVE('',#542,#544,#600,.T.);
#487=EDGE_CURVE('',#543,#545,#601,.T.);
#488=EDGE_CURVE('',#545,#544,#602,.T.);
#489=EDGE_CURVE('',#544,#546,#603,.T.);
#490=EDGE_CURVE('',#545,#547,#604,.T.);
#491=EDGE_CURVE('',#547,#546,#605,.T.);
#492=EDGE_CURVE('',#546,#528,#606,.T.);
#493=EDGE_CURVE('',#547,#530,#607,.T.);
#494=VERTEX_POINT('',#1291);
#495=VERTEX_POINT('',#1292);
#496=VERTEX_POINT('',#1294);
#497=VERTEX_POINT('',#1296);
#498=VERTEX_POINT('',#1300);
#499=VERTEX_POINT('',#1301);
#500=VERTEX_POINT('',#1303);
#501=VERTEX_POINT('',#1305);
#502=VERTEX_POINT('',#1309);
#503=VERTEX_POINT('',#1310);
#504=VERTEX_POINT('',#1312);
#505=VERTEX_POINT('',#1314);
#506=VERTEX_POINT('',#1318);
#507=VERTEX_POINT('',#1319);
#508=VERTEX_POINT('',#1321);
#509=VERTEX_POINT('',#1323);
#510=VERTEX_POINT('',#1327);
#511=VERTEX_POINT('',#1339);
#512=VERTEX_POINT('',#1348);
#513=VERTEX_POINT('',#1349);
#514=VERTEX_POINT('',#1351);
#515=VERTEX_POINT('',#1353);
#516=VERTEX_POINT('',#1357);
#517=VERTEX_POINT('',#1359);
#518=VERTEX_POINT('',#1363);
#519=VERTEX_POINT('',#1365);
#520=VERTEX_POINT('',#1369);
#521=VERTEX_POINT('',#1371);
#522=VERTEX_POINT('',#1375);
#523=VERTEX_POINT('',#1377);
#524=VERTEX_POINT('',#1381);
#525=VERTEX_POINT('',#1383);
#526=VERTEX_POINT('',#1387);
#527=VERTEX_POINT('',#1389);
#528=VERTEX_POINT('',#1399);
#529=VERTEX_POINT('',#1400);
#530=VERTEX_POINT('',#1402);
#531=VERTEX_POINT('',#1404);
#532=VERTEX_POINT('',#1408);
#533=VERTEX_POINT('',#1410);
#534=VERTEX_POINT('',#1414);
#535=VERTEX_POINT('',#1416);
#536=VERTEX_POINT('',#1420);
#537=VERTEX_POINT('',#1422);
#538=VERTEX_POINT('',#1426);
#539=VERTEX_POINT('',#1428);
#540=VERTEX_POINT('',#1432);
#541=VERTEX_POINT('',#1434);
#542=VERTEX_POINT('',#1438);
#543=VERTEX_POINT('',#1440);
#544=VERTEX_POINT('',#1444);
#545=VERTEX_POINT('',#1446);
#546=VERTEX_POINT('',#1450);
#547=VERTEX_POINT('',#1452);
#548=LINE('',#1290,#608);
#549=LINE('',#1293,#609);
#550=LINE('',#1295,#610);
#551=LINE('',#1297,#611);
#552=LINE('',#1299,#612);
#553=LINE('',#1302,#613);
#554=LINE('',#1304,#614);
#555=LINE('',#1306,#615);
#556=LINE('',#1308,#616);
#557=LINE('',#1311,#617);
#558=LINE('',#1313,#618);
#559=LINE('',#1315,#619);
#560=LINE('',#1317,#620);
#561=LINE('',#1320,#621);
#562=LINE('',#1322,#622);
#563=LINE('',#1324,#623);
#564=LINE('',#1347,#624);
#565=LINE('',#1350,#625);
#566=LINE('',#1352,#626);
#567=LINE('',#1354,#627);
#568=LINE('',#1360,#628);
#569=LINE('',#1362,#629);
#570=LINE('',#1364,#630);
#571=LINE('',#1366,#631);
#572=LINE('',#1368,#632);
#573=LINE('',#1370,#633);
#574=LINE('',#1372,#634);
#575=LINE('',#1374,#635);
#576=LINE('',#1376,#636);
#577=LINE('',#1378,#637);
#578=LINE('',#1384,#638);
#579=LINE('',#1386,#639);
#580=LINE('',#1388,#640);
#581=LINE('',#1390,#641);
#582=LINE('',#1398,#642);
#583=LINE('',#1401,#643);
#584=LINE('',#1403,#644);
#585=LINE('',#1405,#645);
#586=LINE('',#1407,#646);
#587=LINE('',#1409,#647);
#588=LINE('',#1411,#648);
#589=LINE('',#1413,#649);
#590=LINE('',#1415,#650);
#591=LINE('',#1417,#651);
#592=LINE('',#1419,#652);
#593=LINE('',#1421,#653);
#594=LINE('',#1423,#654);
#595=LINE('',#1429,#655);
#596=LINE('',#1431,#656);
#597=LINE('',#1433,#657);
#598=LINE('',#1435,#658);
#599=LINE('',#1441,#659);
#600=LINE('',#1443,#660);
#601=LINE('',#1445,#661);
#602=LINE('',#1447,#662);
#603=LINE('',#1449,#663);
#604=LINE('',#1451,#664);
#605=LINE('',#1453,#665);
#606=LINE('',#1455,#666);
#607=LINE('',#1456,#667);
#608=VECTOR('',#1022,1000.);
#609=VECTOR('',#1023,1000.);
#610=VECTOR('',#1024,1000.);
#611=VECTOR('',#1025,1000.);
#612=VECTOR('',#1028,1000.);
#613=VECTOR('',#1029,1000.);
#614=VECTOR('',#1030,1000.);
#615=VECTOR('',#1031,1000.);
#616=VECTOR('',#1034,1000.);
#617=VECTOR('',#1035,1000.);
#618=VECTOR('',#1036,1000.);
#619=VECTOR('',#1037,1000.);
#620=VECTOR('',#1040,1000.);
#621=VECTOR('',#1041,1000.);
#622=VECTOR('',#1042,1000.);
#623=VECTOR('',#1043,1000.);
#624=VECTOR('',#1084,1000.);
#625=VECTOR('',#1085,1000.);
#626=VECTOR('',#1086,1000.);
#627=VECTOR('',#1087,1000.);
#628=VECTOR('',#1094,1000.);
#629=VECTOR('',#1097,1000.);
#630=VECTOR('',#1098,1000.);
#631=VECTOR('',#1099,1000.);
#632=VECTOR('',#1102,1000.);
#633=VECTOR('',#1103,1000.);
#634=VECTOR('',#1104,1000.);
#635=VECTOR('',#1107,1000.);
#636=VECTOR('',#1108,1000.);
#637=VECTOR('',#1109,1000.);
#638=VECTOR('',#1116,1000.);
#639=VECTOR('',#1119,1000.);
#640=VECTOR('',#1120,1000.);
#641=VECTOR('',#1121,1000.);
#642=VECTOR('',#1136,1000.);
#643=VECTOR('',#1137,1000.);
#644=VECTOR('',#1138,1000.);
#645=VECTOR('',#1139,1000.);
#646=VECTOR('',#1142,1000.);
#647=VECTOR('',#1143,1000.);
#648=VECTOR('',#1144,1000.);
#649=VECTOR('',#1147,1000.);
#650=VECTOR('',#1148,1000.);
#651=VECTOR('',#1149,1000.);
#652=VECTOR('',#1152,1000.);
#653=VECTOR('',#1153,1000.);
#654=VECTOR('',#1154,1000.);
#655=VECTOR('',#1161,1000.);
#656=VECTOR('',#1164,1000.);
#657=VECTOR('',#1165,1000.);
#658=VECTOR('',#1166,1000.);
#659=VECTOR('',#1173,1000.);
#660=VECTOR('',#1176,1000.);
#661=VECTOR('',#1177,1000.);
#662=VECTOR('',#1178,1000.);
#663=VECTOR('',#1181,1000.);
#664=VECTOR('',#1182,1000.);
#665=VECTOR('',#1183,1000.);
#666=VECTOR('',#1186,1000.);
#667=VECTOR('',#1187,1000.);
#668=EDGE_LOOP('',(#254,#255,#256,#257));
#669=EDGE_LOOP('',(#258,#259,#260,#261));
#670=EDGE_LOOP('',(#262,#263,#264,#265));
#671=EDGE_LOOP('',(#266,#267,#268,#269));
#672=EDGE_LOOP('',(#270));
#673=EDGE_LOOP('',(#271,#272,#273,#274,#275,#276,#277,#278));
#674=EDGE_LOOP('',(#279,#280,#281,#282,#283,#284,#285,#286));
#675=EDGE_LOOP('',(#287));
#676=EDGE_LOOP('',(#288));
#677=EDGE_LOOP('',(#289));
#678=EDGE_LOOP('',(#290,#291,#292,#293));
#679=EDGE_LOOP('',(#294,#295,#296,#297));
#680=EDGE_LOOP('',(#298,#299,#300,#301));
#681=EDGE_LOOP('',(#302,#303,#304,#305));
#682=EDGE_LOOP('',(#306,#307,#308,#309));
#683=EDGE_LOOP('',(#310,#311,#312,#313));
#684=EDGE_LOOP('',(#314,#315,#316,#317));
#685=EDGE_LOOP('',(#318,#319,#320,#321));
#686=EDGE_LOOP('',(#322,#323,#324,#325));
#687=EDGE_LOOP('',(#326,#327,#328,#329));
#688=EDGE_LOOP('',(#330,#331,#332,#333));
#689=EDGE_LOOP('',(#334,#335,#336,#337));
#690=EDGE_LOOP('',(#338,#339,#340,#341,#342,#343,#344,#345));
#691=EDGE_LOOP('',(#346,#347,#348,#349,#350,#351,#352,#353));
#692=EDGE_LOOP('',(#354,#355,#356,#357));
#693=EDGE_LOOP('',(#358,#359,#360,#361));
#694=EDGE_LOOP('',(#362,#363,#364,#365));
#695=EDGE_LOOP('',(#366,#367,#368,#369));
#696=EDGE_LOOP('',(#370,#371,#372,#373));
#697=EDGE_LOOP('',(#374,#375,#376,#377));
#698=EDGE_LOOP('',(#378,#379,#380,#381));
#699=EDGE_LOOP('',(#382,#383,#384,#385));
#700=EDGE_LOOP('',(#386,#387,#388,#389));
#701=EDGE_LOOP('',(#390,#391,#392,#393));
#702=EDGE_LOOP('',(#394,#395,#396,#397,#398,#399,#400,#401,#402,#403));
#703=EDGE_LOOP('',(#404,#405,#406,#407,#408,#409,#410,#411,#412,#413));
#704=FACE_BOUND('',#668,.T.);
#705=FACE_BOUND('',#669,.T.);
#706=FACE_BOUND('',#670,.T.);
#707=FACE_BOUND('',#671,.T.);
#708=FACE_BOUND('',#672,.T.);
#709=FACE_BOUND('',#673,.T.);
#710=FACE_BOUND('',#674,.T.);
#711=FACE_BOUND('',#675,.T.);
#712=FACE_BOUND('',#676,.T.);
#713=FACE_BOUND('',#677,.T.);
#714=FACE_BOUND('',#678,.T.);
#715=FACE_BOUND('',#679,.T.);
#716=FACE_BOUND('',#680,.T.);
#717=FACE_BOUND('',#681,.T.);
#718=FACE_BOUND('',#682,.T.);
#719=FACE_BOUND('',#683,.T.);
#720=FACE_BOUND('',#684,.T.);
#721=FACE_BOUND('',#685,.T.);
#722=FACE_BOUND('',#686,.T.);
#723=FACE_BOUND('',#687,.T.);
#724=FACE_BOUND('',#688,.T.);
#725=FACE_BOUND('',#689,.T.);
#726=FACE_BOUND('',#690,.T.);
#727=FACE_BOUND('',#691,.T.);
#728=FACE_BOUND('',#692,.T.);
#729=FACE_BOUND('',#693,.T.);
#730=FACE_BOUND('',#694,.T.);
#731=FACE_BOUND('',#695,.T.);
#732=FACE_BOUND('',#696,.T.);
#733=FACE_BOUND('',#697,.T.);
#734=FACE_BOUND('',#698,.T.);
#735=FACE_BOUND('',#699,.T.);
#736=FACE_BOUND('',#700,.T.);
#737=FACE_BOUND('',#701,.T.);
#738=FACE_BOUND('',#702,.T.);
#739=FACE_BOUND('',#703,.T.);
#740=PLANE('',#914);
#741=PLANE('',#915);
#742=PLANE('',#916);
#743=PLANE('',#917);
#744=PLANE('',#918);
#745=PLANE('',#924);
#746=PLANE('',#931);
#747=PLANE('',#937);
#748=PLANE('',#941);
#749=PLANE('',#942);
#750=PLANE('',#943);
#751=PLANE('',#947);
#752=PLANE('',#951);
#753=PLANE('',#952);
#754=PLANE('',#954);
#755=PLANE('',#955);
#756=PLANE('',#956);
#757=PLANE('',#957);
#758=PLANE('',#961);
#759=PLANE('',#965);
#760=PLANE('',#966);
#761=PLANE('',#967);
#762=PLANE('',#968);
#763=PLANE('',#969);
#764=STYLED_ITEM('',(#778),#865);
#765=STYLED_ITEM('',(#779),#866);
#766=STYLED_ITEM('',(#780),#867);
#767=STYLED_ITEM('',(#781),#868);
#768=STYLED_ITEM('',(#782),#869);
#769=STYLED_ITEM('',(#783),#870);
#770=STYLED_ITEM('',(#784),#871);
#771=STYLED_ITEM('',(#785),#872);
#772=STYLED_ITEM('',(#786),#873);
#773=STYLED_ITEM('',(#787),#874);
#774=STYLED_ITEM('',(#788),#875);
#775=STYLED_ITEM('',(#789),#876);
#776=STYLED_ITEM('',(#790),#903);
#777=STYLED_ITEM('',(#791),#904);
#778=PRESENTATION_STYLE_ASSIGNMENT((#792));
#779=PRESENTATION_STYLE_ASSIGNMENT((#793));
#780=PRESENTATION_STYLE_ASSIGNMENT((#794));
#781=PRESENTATION_STYLE_ASSIGNMENT((#795));
#782=PRESENTATION_STYLE_ASSIGNMENT((#796));
#783=PRESENTATION_STYLE_ASSIGNMENT((#797));
#784=PRESENTATION_STYLE_ASSIGNMENT((#798));
#785=PRESENTATION_STYLE_ASSIGNMENT((#799));
#786=PRESENTATION_STYLE_ASSIGNMENT((#800));
#787=PRESENTATION_STYLE_ASSIGNMENT((#801));
#788=PRESENTATION_STYLE_ASSIGNMENT((#802));
#789=PRESENTATION_STYLE_ASSIGNMENT((#803));
#790=PRESENTATION_STYLE_ASSIGNMENT((#804));
#791=PRESENTATION_STYLE_ASSIGNMENT((#805));
#792=SURFACE_STYLE_USAGE(.BOTH.,#806);
#793=SURFACE_STYLE_USAGE(.BOTH.,#807);
#794=SURFACE_STYLE_USAGE(.BOTH.,#808);
#795=SURFACE_STYLE_USAGE(.BOTH.,#809);
#796=SURFACE_STYLE_USAGE(.BOTH.,#810);
#797=SURFACE_STYLE_USAGE(.BOTH.,#811);
#798=SURFACE_STYLE_USAGE(.BOTH.,#812);
#799=SURFACE_STYLE_USAGE(.BOTH.,#813);
#800=SURFACE_STYLE_USAGE(.BOTH.,#814);
#801=SURFACE_STYLE_USAGE(.BOTH.,#815);
#802=SURFACE_STYLE_USAGE(.BOTH.,#816);
#803=SURFACE_STYLE_USAGE(.BOTH.,#817);
#804=SURFACE_STYLE_USAGE(.BOTH.,#818);
#805=SURFACE_STYLE_USAGE(.BOTH.,#819);
#806=SURFACE_SIDE_STYLE('',(#820));
#807=SURFACE_SIDE_STYLE('',(#821));
#808=SURFACE_SIDE_STYLE('',(#822));
#809=SURFACE_SIDE_STYLE('',(#823));
#810=SURFACE_SIDE_STYLE('',(#824));
#811=SURFACE_SIDE_STYLE('',(#825));
#812=SURFACE_SIDE_STYLE('',(#826));
#813=SURFACE_SIDE_STYLE('',(#827));
#814=SURFACE_SIDE_STYLE('',(#828));
#815=SURFACE_SIDE_STYLE('',(#829));
#816=SURFACE_SIDE_STYLE('',(#830));
#817=SURFACE_SIDE_STYLE('',(#831));
#818=SURFACE_SIDE_STYLE('',(#832));
#819=SURFACE_SIDE_STYLE('',(#833));
#820=SURFACE_STYLE_FILL_AREA(#834);
#821=SURFACE_STYLE_FILL_AREA(#835);
#822=SURFACE_STYLE_FILL_AREA(#836);
#823=SURFACE_STYLE_FILL_AREA(#837);
#824=SURFACE_STYLE_FILL_AREA(#838);
#825=SURFACE_STYLE_FILL_AREA(#839);
#826=SURFACE_STYLE_FILL_AREA(#840);
#827=SURFACE_STYLE_FILL_AREA(#841);
#828=SURFACE_STYLE_FILL_AREA(#842);
#829=SURFACE_STYLE_FILL_AREA(#843);
#830=SURFACE_STYLE_FILL_AREA(#844);
#831=SURFACE_STYLE_FILL_AREA(#845);
#832=SURFACE_STYLE_FILL_AREA(#846);
#833=SURFACE_STYLE_FILL_AREA(#847);
#834=FILL_AREA_STYLE('',(#848));
#835=FILL_AREA_STYLE('',(#849));
#836=FILL_AREA_STYLE('',(#850));
#837=FILL_AREA_STYLE('',(#851));
#838=FILL_AREA_STYLE('',(#852));
#839=FILL_AREA_STYLE('',(#853));
#840=FILL_AREA_STYLE('',(#854));
#841=FILL_AREA_STYLE('',(#855));
#842=FILL_AREA_STYLE('',(#856));
#843=FILL_AREA_STYLE('',(#857));
#844=FILL_AREA_STYLE('',(#858));
#845=FILL_AREA_STYLE('',(#859));
#846=FILL_AREA_STYLE('',(#860));
#847=FILL_AREA_STYLE('',(#861));
#848=FILL_AREA_STYLE_COLOUR('',#862);
#849=FILL_AREA_STYLE_COLOUR('',#862);
#850=FILL_AREA_STYLE_COLOUR('',#862);
#851=FILL_AREA_STYLE_COLOUR('',#862);
#852=FILL_AREA_STYLE_COLOUR('',#862);
#853=FILL_AREA_STYLE_COLOUR('',#862);
#854=FILL_AREA_STYLE_COLOUR('',#862);
#855=FILL_AREA_STYLE_COLOUR('',#863);
#856=FILL_AREA_STYLE_COLOUR('',#862);
#857=FILL_AREA_STYLE_COLOUR('',#862);
#858=FILL_AREA_STYLE_COLOUR('',#862);
#859=FILL_AREA_STYLE_COLOUR('',#862);
#860=FILL_AREA_STYLE_COLOUR('',#864);
#861=FILL_AREA_STYLE_COLOUR('',#864);
#862=COLOUR_RGB('',0.200000002980232,0.200000002980232,0.200000002980232);
#863=COLOUR_RGB('',0.5,0.5,0.5);
#864=COLOUR_RGB('',0.699999988079071,0.699999988079071,0.699999988079071);
#865=ADVANCED_FACE('',(#704),#740,.F.);
#866=ADVANCED_FACE('',(#705),#741,.F.);
#867=ADVANCED_FACE('',(#706),#742,.F.);
#868=ADVANCED_FACE('',(#707),#743,.F.);
#869=ADVANCED_FACE('',(#708,#709),#744,.T.);
#870=ADVANCED_FACE('',(#710),#745,.F.);
#871=ADVANCED_FACE('',(#711,#712),#233,.F.);
#872=ADVANCED_FACE('',(#713),#746,.F.);
#873=ADVANCED_FACE('',(#714),#224,.T.);
#874=ADVANCED_FACE('',(#715),#225,.T.);
#875=ADVANCED_FACE('',(#716),#226,.T.);
#876=ADVANCED_FACE('',(#717),#227,.T.);
#877=ADVANCED_FACE('',(#718),#747,.T.);
#878=ADVANCED_FACE('',(#719),#228,.T.);
#879=ADVANCED_FACE('',(#720),#748,.T.);
#880=ADVANCED_FACE('',(#721),#749,.T.);
#881=ADVANCED_FACE('',(#722),#750,.T.);
#882=ADVANCED_FACE('',(#723),#229,.T.);
#883=ADVANCED_FACE('',(#724),#751,.T.);
#884=ADVANCED_FACE('',(#725),#230,.T.);
#885=ADVANCED_FACE('',(#726),#752,.F.);
#886=ADVANCED_FACE('',(#727),#753,.T.);
#887=ADVANCED_FACE('',(#728),#754,.T.);
#888=ADVANCED_FACE('',(#729),#755,.T.);
#889=ADVANCED_FACE('',(#730),#756,.T.);
#890=ADVANCED_FACE('',(#731),#757,.T.);
#891=ADVANCED_FACE('',(#732),#231,.T.);
#892=ADVANCED_FACE('',(#733),#758,.T.);
#893=ADVANCED_FACE('',(#734),#232,.T.);
#894=ADVANCED_FACE('',(#735),#759,.T.);
#895=ADVANCED_FACE('',(#736),#760,.T.);
#896=ADVANCED_FACE('',(#737),#761,.T.);
#897=ADVANCED_FACE('',(#738),#762,.F.);
#898=ADVANCED_FACE('',(#739),#763,.T.);
#899=CLOSED_SHELL('',(#865,#866,#867,#868,#869,#870,#871,#872,#873,#874,
#875,#876));
#900=CLOSED_SHELL('',(#877,#878,#879,#880,#881,#882,#883,#884,#885,#886));
#901=CLOSED_SHELL('',(#887,#888,#889,#890,#891,#892,#893,#894,#895,#896,
#897,#898));
#902=MANIFOLD_SOLID_BREP('',#899);
#903=MANIFOLD_SOLID_BREP('',#900);
#904=MANIFOLD_SOLID_BREP('',#901);
#905=SHAPE_DEFINITION_REPRESENTATION(#1520,#909);
#906=SHAPE_DEFINITION_REPRESENTATION(#1519,#910);
#907=SHAPE_DEFINITION_REPRESENTATION(#1522,#911);
#908=SHAPE_DEFINITION_REPRESENTATION(#1524,#912);
#909=SHAPE_REPRESENTATION('QFN48P040_body',(#913),#1509);
#910=SHAPE_REPRESENTATION('QFN48_P040_H085',(#913,#936,#953,#970,#971,#972,
#973,#974,#975,#976,#977,#978,#979,#980,#981,#982,#983,#984,#985,#986,#987,
#988,#989,#990,#991,#992,#993,#994,#995,#996,#997,#998,#999,#1000,#1001,
#1002,#1003,#1004,#1005,#1006,#1007,#1008,#1009,#1010,#1011,#1012,#1013,
#1014,#1015,#1016,#1017),#1508);
#911=SHAPE_REPRESENTATION('QFN48P040_pad',(#913),#1510);
#912=SHAPE_REPRESENTATION('QFN48P040_pin',(#913),#1511);
#913=AXIS2_PLACEMENT_3D('',#1288,#1018,#1019);
#914=AXIS2_PLACEMENT_3D('',#1289,#1020,#1021);
#915=AXIS2_PLACEMENT_3D('',#1298,#1026,#1027);
#916=AXIS2_PLACEMENT_3D('',#1307,#1032,#1033);
#917=AXIS2_PLACEMENT_3D('',#1316,#1038,#1039);
#918=AXIS2_PLACEMENT_3D('',#1325,#1044,#1045);
#919=AXIS2_PLACEMENT_3D('',#1326,#1046,#1047);
#920=AXIS2_PLACEMENT_3D('',#1328,#1048,#1049);
#921=AXIS2_PLACEMENT_3D('',#1329,#1050,#1051);
#922=AXIS2_PLACEMENT_3D('',#1330,#1052,#1053);
#923=AXIS2_PLACEMENT_3D('',#1331,#1054,#1055);
#924=AXIS2_PLACEMENT_3D('',#1332,#1056,#1057);
#925=AXIS2_PLACEMENT_3D('',#1333,#1058,#1059);
#926=AXIS2_PLACEMENT_3D('',#1334,#1060,#1061);
#927=AXIS2_PLACEMENT_3D('',#1335,#1062,#1063);
#928=AXIS2_PLACEMENT_3D('',#1336,#1064,#1065);
#929=AXIS2_PLACEMENT_3D('',#1337,#1066,#1067);
#930=AXIS2_PLACEMENT_3D('',#1338,#1068,#1069);
#931=AXIS2_PLACEMENT_3D('',#1340,#1070,#1071);
#932=AXIS2_PLACEMENT_3D('',#1341,#1072,#1073);
#933=AXIS2_PLACEMENT_3D('',#1342,#1074,#1075);
#934=AXIS2_PLACEMENT_3D('',#1343,#1076,#1077);
#935=AXIS2_PLACEMENT_3D('',#1344,#1078,#1079);
#936=AXIS2_PLACEMENT_3D('',#1345,#1080,#1081);
#937=AXIS2_PLACEMENT_3D('',#1346,#1082,#1083);
#938=AXIS2_PLACEMENT_3D('',#1355,#1088,#1089);
#939=AXIS2_PLACEMENT_3D('',#1356,#1090,#1091);
#940=AXIS2_PLACEMENT_3D('',#1358,#1092,#1093);
#941=AXIS2_PLACEMENT_3D('',#1361,#1095,#1096);
#942=AXIS2_PLACEMENT_3D('',#1367,#1100,#1101);
#943=AXIS2_PLACEMENT_3D('',#1373,#1105,#1106);
#944=AXIS2_PLACEMENT_3D('',#1379,#1110,#1111);
#945=AXIS2_PLACEMENT_3D('',#1380,#1112,#1113);
#946=AXIS2_PLACEMENT_3D('',#1382,#1114,#1115);
#947=AXIS2_PLACEMENT_3D('',#1385,#1117,#1118);
#948=AXIS2_PLACEMENT_3D('',#1391,#1122,#1123);
#949=AXIS2_PLACEMENT_3D('',#1392,#1124,#1125);
#950=AXIS2_PLACEMENT_3D('',#1393,#1126,#1127);
#951=AXIS2_PLACEMENT_3D('',#1394,#1128,#1129);
#952=AXIS2_PLACEMENT_3D('',#1395,#1130,#1131);
#953=AXIS2_PLACEMENT_3D('',#1396,#1132,#1133);
#954=AXIS2_PLACEMENT_3D('',#1397,#1134,#1135);
#955=AXIS2_PLACEMENT_3D('',#1406,#1140,#1141);
#956=AXIS2_PLACEMENT_3D('',#1412,#1145,#1146);
#957=AXIS2_PLACEMENT_3D('',#1418,#1150,#1151);
#958=AXIS2_PLACEMENT_3D('',#1424,#1155,#1156);
#959=AXIS2_PLACEMENT_3D('',#1425,#1157,#1158);
#960=AXIS2_PLACEMENT_3D('',#1427,#1159,#1160);
#961=AXIS2_PLACEMENT_3D('',#1430,#1162,#1163);
#962=AXIS2_PLACEMENT_3D('',#1436,#1167,#1168);
#963=AXIS2_PLACEMENT_3D('',#1437,#1169,#1170);
#964=AXIS2_PLACEMENT_3D('',#1439,#1171,#1172);
#965=AXIS2_PLACEMENT_3D('',#1442,#1174,#1175);
#966=AXIS2_PLACEMENT_3D('',#1448,#1179,#1180);
#967=AXIS2_PLACEMENT_3D('',#1454,#1184,#1185);
#968=AXIS2_PLACEMENT_3D('',#1457,#1188,#1189);
#969=AXIS2_PLACEMENT_3D('',#1458,#1190,#1191);
#970=AXIS2_PLACEMENT_3D('',#1459,#1192,#1193);
#971=AXIS2_PLACEMENT_3D('',#1460,#1194,#1195);
#972=AXIS2_PLACEMENT_3D('',#1461,#1196,#1197);
#973=AXIS2_PLACEMENT_3D('',#1462,#1198,#1199);
#974=AXIS2_PLACEMENT_3D('',#1463,#1200,#1201);
#975=AXIS2_PLACEMENT_3D('',#1464,#1202,#1203);
#976=AXIS2_PLACEMENT_3D('',#1465,#1204,#1205);
#977=AXIS2_PLACEMENT_3D('',#1466,#1206,#1207);
#978=AXIS2_PLACEMENT_3D('',#1467,#1208,#1209);
#979=AXIS2_PLACEMENT_3D('',#1468,#1210,#1211);
#980=AXIS2_PLACEMENT_3D('',#1469,#1212,#1213);
#981=AXIS2_PLACEMENT_3D('',#1470,#1214,#1215);
#982=AXIS2_PLACEMENT_3D('',#1471,#1216,#1217);
#983=AXIS2_PLACEMENT_3D('',#1472,#1218,#1219);
#984=AXIS2_PLACEMENT_3D('',#1473,#1220,#1221);
#985=AXIS2_PLACEMENT_3D('',#1474,#1222,#1223);
#986=AXIS2_PLACEMENT_3D('',#1475,#1224,#1225);
#987=AXIS2_PLACEMENT_3D('',#1476,#1226,#1227);
#988=AXIS2_PLACEMENT_3D('',#1477,#1228,#1229);
#989=AXIS2_PLACEMENT_3D('',#1478,#1230,#1231);
#990=AXIS2_PLACEMENT_3D('',#1479,#1232,#1233);
#991=AXIS2_PLACEMENT_3D('',#1480,#1234,#1235);
#992=AXIS2_PLACEMENT_3D('',#1481,#1236,#1237);
#993=AXIS2_PLACEMENT_3D('',#1482,#1238,#1239);
#994=AXIS2_PLACEMENT_3D('',#1483,#1240,#1241);
#995=AXIS2_PLACEMENT_3D('',#1484,#1242,#1243);
#996=AXIS2_PLACEMENT_3D('',#1485,#1244,#1245);
#997=AXIS2_PLACEMENT_3D('',#1486,#1246,#1247);
#998=AXIS2_PLACEMENT_3D('',#1487,#1248,#1249);
#999=AXIS2_PLACEMENT_3D('',#1488,#1250,#1251);
#1000=AXIS2_PLACEMENT_3D('',#1489,#1252,#1253);
#1001=AXIS2_PLACEMENT_3D('',#1490,#1254,#1255);
#1002=AXIS2_PLACEMENT_3D('',#1491,#1256,#1257);
#1003=AXIS2_PLACEMENT_3D('',#1492,#1258,#1259);
#1004=AXIS2_PLACEMENT_3D('',#1493,#1260,#1261);
#1005=AXIS2_PLACEMENT_3D('',#1494,#1262,#1263);
#1006=AXIS2_PLACEMENT_3D('',#1495,#1264,#1265);
#1007=AXIS2_PLACEMENT_3D('',#1496,#1266,#1267);
#1008=AXIS2_PLACEMENT_3D('',#1497,#1268,#1269);
#1009=AXIS2_PLACEMENT_3D('',#1498,#1270,#1271);
#1010=AXIS2_PLACEMENT_3D('',#1499,#1272,#1273);
#1011=AXIS2_PLACEMENT_3D('',#1500,#1274,#1275);
#1012=AXIS2_PLACEMENT_3D('',#1501,#1276,#1277);
#1013=AXIS2_PLACEMENT_3D('',#1502,#1278,#1279);
#1014=AXIS2_PLACEMENT_3D('',#1503,#1280,#1281);
#1015=AXIS2_PLACEMENT_3D('',#1504,#1282,#1283);
#1016=AXIS2_PLACEMENT_3D('',#1505,#1284,#1285);
#1017=AXIS2_PLACEMENT_3D('',#1506,#1286,#1287);
#1018=DIRECTION('',(0.,0.,1.));
#1019=DIRECTION('',(1.,0.,0.));
#1020=DIRECTION('',(0.,1.,0.));
#1021=DIRECTION('',(0.,0.,1.));
#1022=DIRECTION('',(1.,0.,0.));
#1023=DIRECTION('',(0.,0.,-1.));
#1024=DIRECTION('',(1.,0.,0.));
#1025=DIRECTION('',(0.,0.,-1.));
#1026=DIRECTION('',(-1.,0.,0.));
#1027=DIRECTION('',(0.,0.,1.));
#1028=DIRECTION('',(0.,1.,0.));
#1029=DIRECTION('',(0.,0.,-1.));
#1030=DIRECTION('',(0.,1.,0.));
#1031=DIRECTION('',(0.,0.,-1.));
#1032=DIRECTION('',(0.,-1.,0.));
#1033=DIRECTION('',(0.,0.,-1.));
#1034=DIRECTION('',(-1.,0.,0.));
#1035=DIRECTION('',(0.,0.,-1.));
#1036=DIRECTION('',(-1.,0.,0.));
#1037=DIRECTION('',(0.,0.,-1.));
#1038=DIRECTION('',(1.,0.,0.));
#1039=DIRECTION('',(0.,0.,-1.));
#1040=DIRECTION('',(0.,-1.,0.));
#1041=DIRECTION('',(0.,0.,-1.));
#1042=DIRECTION('',(0.,-1.,0.));
#1043=DIRECTION('',(0.,0.,-1.));
#1044=DIRECTION('',(0.,0.,1.));
#1045=DIRECTION('',(1.,0.,0.));
#1046=DIRECTION('',(0.,0.,1.));
#1047=DIRECTION('',(1.,0.,0.));
#1048=DIRECTION('',(0.,0.,1.));
#1049=DIRECTION('',(1.,0.,0.));
#1050=DIRECTION('',(0.,0.,1.));
#1051=DIRECTION('',(1.,0.,0.));
#1052=DIRECTION('',(0.,0.,1.));
#1053=DIRECTION('',(1.,0.,0.));
#1054=DIRECTION('',(0.,0.,1.));
#1055=DIRECTION('',(1.,0.,0.));
#1056=DIRECTION('',(0.,0.,1.));
#1057=DIRECTION('',(1.,0.,0.));
#1058=DIRECTION('',(0.,0.,1.));
#1059=DIRECTION('',(1.,0.,0.));
#1060=DIRECTION('',(0.,0.,1.));
#1061=DIRECTION('',(1.,0.,0.));
#1062=DIRECTION('',(0.,0.,1.));
#1063=DIRECTION('',(1.,0.,0.));
#1064=DIRECTION('',(0.,0.,1.));
#1065=DIRECTION('',(1.,0.,0.));
#1066=DIRECTION('',(0.,0.,1.));
#1067=DIRECTION('',(1.,0.,0.));
#1068=DIRECTION('',(0.,0.,-1.));
#1069=DIRECTION('',(-1.,0.,0.));
#1070=DIRECTION('',(0.,0.,-1.));
#1071=DIRECTION('',(-1.,0.,0.));
#1072=DIRECTION('',(0.,0.,-1.));
#1073=DIRECTION('',(-1.,0.,0.));
#1074=DIRECTION('',(0.,0.,-1.));
#1075=DIRECTION('',(-1.,0.,0.));
#1076=DIRECTION('',(0.,0.,-1.));
#1077=DIRECTION('',(-1.,0.,0.));
#1078=DIRECTION('',(0.,0.,-1.));
#1079=DIRECTION('',(-1.,0.,0.));
#1080=DIRECTION('',(0.,0.,1.));
#1081=DIRECTION('',(1.,0.,0.));
#1082=DIRECTION('',(0.,-1.,0.));
#1083=DIRECTION('',(0.,0.,-1.));
#1084=DIRECTION('',(-1.,0.,0.));
#1085=DIRECTION('',(0.,0.,-1.));
#1086=DIRECTION('',(-1.,0.,0.));
#1087=DIRECTION('',(0.,0.,-1.));
#1088=DIRECTION('',(0.,0.,-1.));
#1089=DIRECTION('',(-1.,0.,0.));
#1090=DIRECTION('',(0.,0.,-1.));
#1091=DIRECTION('',(1.,0.,0.));
#1092=DIRECTION('',(0.,0.,-1.));
#1093=DIRECTION('',(1.,0.,0.));
#1094=DIRECTION('',(0.,0.,-1.));
#1095=DIRECTION('',(-1.,0.,0.));
#1096=DIRECTION('',(0.,0.,1.));
#1097=DIRECTION('',(0.,1.,0.));
#1098=DIRECTION('',(0.,1.,0.));
#1099=DIRECTION('',(0.,0.,-1.));
#1100=DIRECTION('',(-0.707106781186547,0.707106781186547,0.));
#1101=DIRECTION('',(-0.707106781186548,-0.707106781186548,0.));
#1102=DIRECTION('',(0.707106781186548,0.707106781186548,0.));
#1103=DIRECTION('',(0.707106781186548,0.707106781186548,0.));
#1104=DIRECTION('',(0.,0.,-1.));
#1105=DIRECTION('',(0.,1.,0.));
#1106=DIRECTION('',(0.,0.,1.));
#1107=DIRECTION('',(1.,0.,0.));
#1108=DIRECTION('',(1.,0.,0.));
#1109=DIRECTION('',(0.,0.,-1.));
#1110=DIRECTION('',(0.,0.,-1.));
#1111=DIRECTION('',(-1.,0.,0.));
#1112=DIRECTION('',(0.,0.,-1.));
#1113=DIRECTION('',(-1.,0.,0.));
#1114=DIRECTION('',(0.,0.,-1.));
#1115=DIRECTION('',(-1.,0.,0.));
#1116=DIRECTION('',(0.,0.,-1.));
#1117=DIRECTION('',(1.,9.42784497813482E-17,0.));
#1118=DIRECTION('',(-9.42784497813482E-17,1.,0.));
#1119=DIRECTION('',(9.42784497813482E-17,-1.,0.));
#1120=DIRECTION('',(9.42784497813482E-17,-1.,0.));
#1121=DIRECTION('',(0.,0.,-1.));
#1122=DIRECTION('',(0.,0.,-1.));
#1123=DIRECTION('',(-1.,0.,0.));
#1124=DIRECTION('',(0.,0.,-1.));
#1125=DIRECTION('',(-1.,0.,0.));
#1126=DIRECTION('',(0.,0.,-1.));
#1127=DIRECTION('',(-1.,0.,0.));
#1128=DIRECTION('',(0.,0.,-1.));
#1129=DIRECTION('',(-1.,0.,0.));
#1130=DIRECTION('',(0.,0.,-1.));
#1131=DIRECTION('',(-1.,0.,0.));
#1132=DIRECTION('',(0.,0.,1.));
#1133=DIRECTION('',(1.,0.,0.));
#1134=DIRECTION('',(-1.,0.,0.));
#1135=DIRECTION('',(0.,0.,1.));
#1136=DIRECTION('',(0.,1.,0.));
#1137=DIRECTION('',(0.,0.,-1.));
#1138=DIRECTION('',(0.,1.,0.));
#1139=DIRECTION('',(0.,0.,-1.));
#1140=DIRECTION('',(0.,1.,0.));
#1141=DIRECTION('',(0.,0.,1.));
#1142=DIRECTION('',(1.,0.,0.));
#1143=DIRECTION('',(1.,0.,0.));
#1144=DIRECTION('',(0.,0.,-1.));
#1145=DIRECTION('',(-0.707106781186547,0.707106781186547,0.));
#1146=DIRECTION('',(-0.707106781186548,-0.707106781186548,0.));
#1147=DIRECTION('',(0.707106781186548,0.707106781186548,0.));
#1148=DIRECTION('',(0.707106781186548,0.707106781186548,0.));
#1149=DIRECTION('',(0.,0.,-1.));
#1150=DIRECTION('',(9.18815400411444E-17,1.,0.));
#1151=DIRECTION('',(-1.,9.18815400411444E-17,0.));
#1152=DIRECTION('',(1.,-9.18815400411444E-17,0.));
#1153=DIRECTION('',(1.,-9.18815400411444E-17,0.));
#1154=DIRECTION('',(0.,0.,-1.));
#1155=DIRECTION('',(0.,0.,-1.));
#1156=DIRECTION('',(-1.,0.,0.));
#1157=DIRECTION('',(0.,0.,-1.));
#1158=DIRECTION('',(-1.,0.,0.));
#1159=DIRECTION('',(0.,0.,-1.));
#1160=DIRECTION('',(-1.,0.,0.));
#1161=DIRECTION('',(0.,0.,1.));
#1162=DIRECTION('',(1.,0.,0.));
#1163=DIRECTION('',(0.,0.,-1.));
#1164=DIRECTION('',(0.,-1.,0.));
#1165=DIRECTION('',(0.,-1.,0.));
#1166=DIRECTION('',(0.,0.,-1.));
#1167=DIRECTION('',(0.,0.,-1.));
#1168=DIRECTION('',(-1.,0.,0.));
#1169=DIRECTION('',(0.,0.,-1.));
#1170=DIRECTION('',(-1.,0.,0.));
#1171=DIRECTION('',(0.,0.,-1.));
#1172=DIRECTION('',(-1.,0.,0.));
#1173=DIRECTION('',(0.,0.,1.));
#1174=DIRECTION('',(9.18815400411444E-17,-1.,0.));
#1175=DIRECTION('',(1.,9.18815400411444E-17,0.));
#1176=DIRECTION('',(-1.,-9.18815400411444E-17,0.));
#1177=DIRECTION('',(-1.,-9.18815400411444E-17,0.));
#1178=DIRECTION('',(0.,0.,-1.));
#1179=DIRECTION('',(-0.707106781186547,-0.707106781186547,0.));
#1180=DIRECTION('',(0.707106781186548,-0.707106781186548,0.));
#1181=DIRECTION('',(-0.707106781186548,0.707106781186548,0.));
#1182=DIRECTION('',(-0.707106781186548,0.707106781186548,0.));
#1183=DIRECTION('',(0.,0.,-1.));
#1184=DIRECTION('',(0.,-1.,0.));
#1185=DIRECTION('',(0.,0.,-1.));
#1186=DIRECTION('',(-1.,0.,0.));
#1187=DIRECTION('',(-1.,0.,0.));
#1188=DIRECTION('',(0.,0.,-1.));
#1189=DIRECTION('',(-1.,0.,0.));
#1190=DIRECTION('',(0.,0.,-1.));
#1191=DIRECTION('',(-1.,0.,0.));
#1192=DIRECTION('',(0.,0.,1.));
#1193=DIRECTION('',(1.,0.,0.));
#1194=DIRECTION('',(0.,0.,1.));
#1195=DIRECTION('',(1.,0.,0.));
#1196=DIRECTION('',(0.,0.,1.));
#1197=DIRECTION('',(1.,0.,0.));
#1198=DIRECTION('',(0.,0.,1.));
#1199=DIRECTION('',(1.,0.,0.));
#1200=DIRECTION('',(0.,0.,1.));
#1201=DIRECTION('',(1.,0.,0.));
#1202=DIRECTION('',(0.,0.,1.));
#1203=DIRECTION('',(1.,0.,0.));
#1204=DIRECTION('',(0.,0.,1.));
#1205=DIRECTION('',(1.,0.,0.));
#1206=DIRECTION('',(0.,0.,1.));
#1207=DIRECTION('',(1.,0.,0.));
#1208=DIRECTION('',(0.,0.,1.));
#1209=DIRECTION('',(1.,0.,0.));
#1210=DIRECTION('',(0.,0.,1.));
#1211=DIRECTION('',(1.,0.,0.));
#1212=DIRECTION('',(0.,0.,1.));
#1213=DIRECTION('',(1.,0.,0.));
#1214=DIRECTION('',(0.,0.,1.));
#1215=DIRECTION('',(1.,0.,0.));
#1216=DIRECTION('',(0.,0.,1.));
#1217=DIRECTION('',(6.12323399573677E-17,1.,0.));
#1218=DIRECTION('',(0.,0.,1.));
#1219=DIRECTION('',(6.12323399573677E-17,1.,0.));
#1220=DIRECTION('',(0.,0.,1.));
#1221=DIRECTION('',(6.12323399573677E-17,1.,0.));
#1222=DIRECTION('',(0.,0.,1.));
#1223=DIRECTION('',(6.12323399573677E-17,1.,0.));
#1224=DIRECTION('',(0.,0.,1.));
#1225=DIRECTION('',(6.12323399573677E-17,1.,0.));
#1226=DIRECTION('',(0.,0.,1.));
#1227=DIRECTION('',(6.12323399573677E-17,1.,0.));
#1228=DIRECTION('',(0.,0.,1.));
#1229=DIRECTION('',(6.12323399573677E-17,1.,0.));
#1230=DIRECTION('',(0.,0.,1.));
#1231=DIRECTION('',(6.12323399573677E-17,1.,0.));
#1232=DIRECTION('',(0.,0.,1.));
#1233=DIRECTION('',(6.12323399573677E-17,1.,0.));
#1234=DIRECTION('',(0.,0.,1.));
#1235=DIRECTION('',(6.12323399573677E-17,1.,0.));
#1236=DIRECTION('',(0.,0.,1.));
#1237=DIRECTION('',(6.12323399573677E-17,1.,0.));
#1238=DIRECTION('',(0.,0.,1.));
#1239=DIRECTION('',(6.12323399573677E-17,1.,0.));
#1240=DIRECTION('',(0.,0.,1.));
#1241=DIRECTION('',(-1.,1.22464679914735E-16,0.));
#1242=DIRECTION('',(0.,0.,1.));
#1243=DIRECTION('',(-1.,1.22464679914735E-16,0.));
#1244=DIRECTION('',(0.,0.,1.));
#1245=DIRECTION('',(-1.,1.22464679914735E-16,0.));
#1246=DIRECTION('',(0.,0.,1.));
#1247=DIRECTION('',(-1.,1.22464679914735E-16,0.));
#1248=DIRECTION('',(0.,0.,1.));
#1249=DIRECTION('',(-1.,1.22464679914735E-16,0.));
#1250=DIRECTION('',(0.,0.,1.));
#1251=DIRECTION('',(-1.,1.22464679914735E-16,0.));
#1252=DIRECTION('',(0.,0.,1.));
#1253=DIRECTION('',(-1.,1.22464679914735E-16,0.));
#1254=DIRECTION('',(0.,0.,1.));
#1255=DIRECTION('',(-1.,1.22464679914735E-16,0.));
#1256=DIRECTION('',(0.,0.,1.));
#1257=DIRECTION('',(-1.,1.22464679914735E-16,0.));
#1258=DIRECTION('',(0.,0.,1.));
#1259=DIRECTION('',(-1.,1.22464679914735E-16,0.));
#1260=DIRECTION('',(0.,0.,1.));
#1261=DIRECTION('',(-1.,1.22464679914735E-16,0.));
#1262=DIRECTION('',(0.,0.,1.));
#1263=DIRECTION('',(-1.,1.22464679914735E-16,0.));
#1264=DIRECTION('',(0.,0.,1.));
#1265=DIRECTION('',(6.12323399573677E-17,-1.,0.));
#1266=DIRECTION('',(0.,0.,1.));
#1267=DIRECTION('',(6.12323399573677E-17,-1.,0.));
#1268=DIRECTION('',(0.,0.,1.));
#1269=DIRECTION('',(6.12323399573677E-17,-1.,0.));
#1270=DIRECTION('',(0.,0.,1.));
#1271=DIRECTION('',(6.12323399573677E-17,-1.,0.));
#1272=DIRECTION('',(0.,0.,1.));
#1273=DIRECTION('',(6.12323399573677E-17,-1.,0.));
#1274=DIRECTION('',(0.,0.,1.));
#1275=DIRECTION('',(6.12323399573677E-17,-1.,0.));
#1276=DIRECTION('',(0.,0.,1.));
#1277=DIRECTION('',(6.12323399573677E-17,-1.,0.));
#1278=DIRECTION('',(0.,0.,1.));
#1279=DIRECTION('',(6.12323399573677E-17,-1.,0.));
#1280=DIRECTION('',(0.,0.,1.));
#1281=DIRECTION('',(6.12323399573677E-17,-1.,0.));
#1282=DIRECTION('',(0.,0.,1.));
#1283=DIRECTION('',(6.12323399573677E-17,-1.,0.));
#1284=DIRECTION('',(0.,0.,1.));
#1285=DIRECTION('',(6.12323399573677E-17,-1.,0.));
#1286=DIRECTION('',(0.,0.,1.));
#1287=DIRECTION('',(6.12323399573677E-17,-1.,0.));
#1288=CARTESIAN_POINT('',(0.,0.,0.));
#1289=CARTESIAN_POINT('',(-3.,-3.,0.85));
#1290=CARTESIAN_POINT('',(-3.,-3.,0.));
#1291=CARTESIAN_POINT('',(-2.95,-3.,0.));
#1292=CARTESIAN_POINT('',(2.95,-3.,0.));
#1293=CARTESIAN_POINT('',(2.95,-3.,0.85));
#1294=CARTESIAN_POINT('',(2.95,-3.,0.85));
#1295=CARTESIAN_POINT('',(-3.,-3.,0.85));
#1296=CARTESIAN_POINT('',(-2.95,-3.,0.85));
#1297=CARTESIAN_POINT('',(-2.95,-3.,0.85));
#1298=CARTESIAN_POINT('',(3.,-3.,0.85));
#1299=CARTESIAN_POINT('',(3.,-3.,0.));
#1300=CARTESIAN_POINT('',(3.,-2.95,0.));
#1301=CARTESIAN_POINT('',(3.,2.95,0.));
#1302=CARTESIAN_POINT('',(3.,2.95,0.85));
#1303=CARTESIAN_POINT('',(3.,2.95,0.85));
#1304=CARTESIAN_POINT('',(3.,-3.,0.85));
#1305=CARTESIAN_POINT('',(3.,-2.95,0.85));
#1306=CARTESIAN_POINT('',(3.,-2.95,0.85));
#1307=CARTESIAN_POINT('',(3.,3.,0.85));
#1308=CARTESIAN_POINT('',(3.,3.,0.85));
#1309=CARTESIAN_POINT('',(2.95,3.,0.85));
#1310=CARTESIAN_POINT('',(-2.95,3.,0.85));
#1311=CARTESIAN_POINT('',(2.95,3.,0.85));
#1312=CARTESIAN_POINT('',(2.95,3.,0.));
#1313=CARTESIAN_POINT('',(3.,3.,0.));
#1314=CARTESIAN_POINT('',(-2.95,3.,0.));
#1315=CARTESIAN_POINT('',(-2.95,3.,0.85));
#1316=CARTESIAN_POINT('',(-3.,3.,0.85));
#1317=CARTESIAN_POINT('',(-3.,3.,0.));
#1318=CARTESIAN_POINT('',(-3.,2.95,0.));
#1319=CARTESIAN_POINT('',(-3.,-2.95,0.));
#1320=CARTESIAN_POINT('',(-3.,-2.95,0.85));
#1321=CARTESIAN_POINT('',(-3.,-2.95,0.85));
#1322=CARTESIAN_POINT('',(-3.,3.,0.85));
#1323=CARTESIAN_POINT('',(-3.,2.95,0.85));
#1324=CARTESIAN_POINT('',(-3.,2.95,0.85));
#1325=CARTESIAN_POINT('',(0.,0.,0.85));
#1326=CARTESIAN_POINT('',(-2.25,2.25,0.85));
#1327=CARTESIAN_POINT('',(-1.98236730192915,2.25,0.85));
#1328=CARTESIAN_POINT('',(2.95,2.95,0.85));
#1329=CARTESIAN_POINT('',(-2.95,2.95,0.85));
#1330=CARTESIAN_POINT('',(-2.95,-2.95,0.85));
#1331=CARTESIAN_POINT('',(2.95,-2.95,0.85));
#1332=CARTESIAN_POINT('',(0.,0.,0.));
#1333=CARTESIAN_POINT('',(2.95,2.95,0.));
#1334=CARTESIAN_POINT('',(2.95,-2.95,0.));
#1335=CARTESIAN_POINT('',(-2.95,-2.95,0.));
#1336=CARTESIAN_POINT('',(-2.95,2.95,0.));
#1337=CARTESIAN_POINT('',(-2.25,2.25,0.75));
#1338=CARTESIAN_POINT('',(-2.25,2.25,0.75));
#1339=CARTESIAN_POINT('',(-2.5,2.25,0.75));
#1340=CARTESIAN_POINT('',(-2.25,2.25,0.75));
#1341=CARTESIAN_POINT('',(-2.95,2.95,0.85));
#1342=CARTESIAN_POINT('',(-2.95,-2.95,0.85));
#1343=CARTESIAN_POINT('',(2.95,-2.95,0.85));
#1344=CARTESIAN_POINT('',(2.95,2.95,0.85));
#1345=CARTESIAN_POINT('',(0.,0.,0.02));
#1346=CARTESIAN_POINT('',(-2.3,-2.35,0.205));
#1347=CARTESIAN_POINT('',(-2.3,-2.35,0.));
#1348=CARTESIAN_POINT('',(2.3,-2.35,0.));
#1349=CARTESIAN_POINT('',(-2.3,-2.35,0.));
#1350=CARTESIAN_POINT('',(2.3,-2.35,0.205));
#1351=CARTESIAN_POINT('',(2.3,-2.35,0.205));
#1352=CARTESIAN_POINT('',(-2.3,-2.35,0.205));
#1353=CARTESIAN_POINT('',(-2.3,-2.35,0.205));
#1354=CARTESIAN_POINT('',(-2.3,-2.35,0.205));
#1355=CARTESIAN_POINT('',(-2.3,-2.3,0.205));
#1356=CARTESIAN_POINT('',(-2.3,-2.3,0.));
#1357=CARTESIAN_POINT('',(-2.35,-2.3,0.));
#1358=CARTESIAN_POINT('',(-2.3,-2.3,0.205));
#1359=CARTESIAN_POINT('',(-2.35,-2.3,0.205));
#1360=CARTESIAN_POINT('',(-2.35,-2.3,0.205));
#1361=CARTESIAN_POINT('',(-2.35,1.95,0.205));
#1362=CARTESIAN_POINT('',(-2.35,1.95,0.));
#1363=CARTESIAN_POINT('',(-2.35,1.95,0.));
#1364=CARTESIAN_POINT('',(-2.35,1.95,0.205));
#1365=CARTESIAN_POINT('',(-2.35,1.95,0.205));
#1366=CARTESIAN_POINT('',(-2.35,1.95,0.205));
#1367=CARTESIAN_POINT('',(-1.95,2.35,0.205));
#1368=CARTESIAN_POINT('',(-1.95,2.35,0.));
#1369=CARTESIAN_POINT('',(-1.95,2.35,0.));
#1370=CARTESIAN_POINT('',(-1.95,2.35,0.205));
#1371=CARTESIAN_POINT('',(-1.95,2.35,0.205));
#1372=CARTESIAN_POINT('',(-1.95,2.35,0.205));
#1373=CARTESIAN_POINT('',(2.3,2.35,0.205));
#1374=CARTESIAN_POINT('',(2.3,2.35,0.));
#1375=CARTESIAN_POINT('',(2.3,2.35,0.));
#1376=CARTESIAN_POINT('',(2.3,2.35,0.205));
#1377=CARTESIAN_POINT('',(2.3,2.35,0.205));
#1378=CARTESIAN_POINT('',(2.3,2.35,0.205));
#1379=CARTESIAN_POINT('',(2.3,2.3,0.205));
#1380=CARTESIAN_POINT('',(2.3,2.3,0.));
#1381=CARTESIAN_POINT('',(2.35,2.3,0.));
#1382=CARTESIAN_POINT('',(2.3,2.3,0.205));
#1383=CARTESIAN_POINT('',(2.35,2.3,0.205));
#1384=CARTESIAN_POINT('',(2.35,2.3,0.205));
#1385=CARTESIAN_POINT('',(2.35,-2.3,0.205));
#1386=CARTESIAN_POINT('',(2.35,-2.3,0.));
#1387=CARTESIAN_POINT('',(2.35,-2.3,0.));
#1388=CARTESIAN_POINT('',(2.35,-2.3,0.205));
#1389=CARTESIAN_POINT('',(2.35,-2.3,0.205));
#1390=CARTESIAN_POINT('',(2.35,-2.3,0.205));
#1391=CARTESIAN_POINT('',(2.3,-2.3,0.205));
#1392=CARTESIAN_POINT('',(2.3,-2.3,0.));
#1393=CARTESIAN_POINT('',(2.3,-2.3,0.205));
#1394=CARTESIAN_POINT('',(-2.3,-2.3,0.205));
#1395=CARTESIAN_POINT('',(-2.3,-2.3,0.));
#1396=CARTESIAN_POINT('',(0.,0.,0.));
#1397=CARTESIAN_POINT('',(-0.02,0.09,0.205));
#1398=CARTESIAN_POINT('',(-0.02,0.09,0.));
#1399=CARTESIAN_POINT('',(-0.02,-0.09,0.));
#1400=CARTESIAN_POINT('',(-0.02,0.09,0.));
#1401=CARTESIAN_POINT('',(-0.02,-0.09,0.205));
#1402=CARTESIAN_POINT('',(-0.02,-0.09,0.205));
#1403=CARTESIAN_POINT('',(-0.02,0.09,0.205));
#1404=CARTESIAN_POINT('',(-0.02,0.09,0.205));
#1405=CARTESIAN_POINT('',(-0.02,0.09,0.205));
#1406=CARTESIAN_POINT('',(0.,0.09,0.205));
#1407=CARTESIAN_POINT('',(0.,0.09,0.));
#1408=CARTESIAN_POINT('',(0.02,0.09,0.));
#1409=CARTESIAN_POINT('',(0.,0.09,0.205));
#1410=CARTESIAN_POINT('',(0.02,0.09,0.205));
#1411=CARTESIAN_POINT('',(0.02,0.09,0.205));
#1412=CARTESIAN_POINT('',(0.02,0.09,0.205));
#1413=CARTESIAN_POINT('',(0.02,0.09,0.));
#1414=CARTESIAN_POINT('',(0.03,0.1,0.));
#1415=CARTESIAN_POINT('',(0.02,0.09,0.205));
#1416=CARTESIAN_POINT('',(0.03,0.1,0.205));
#1417=CARTESIAN_POINT('',(0.03,0.1,0.205));
#1418=CARTESIAN_POINT('',(0.325,0.1,0.205));
#1419=CARTESIAN_POINT('',(0.325,0.1,0.));
#1420=CARTESIAN_POINT('',(0.3,0.1,0.));
#1421=CARTESIAN_POINT('',(0.325,0.1,0.205));
#1422=CARTESIAN_POINT('',(0.3,0.1,0.205));
#1423=CARTESIAN_POINT('',(0.3,0.1,0.205));
#1424=CARTESIAN_POINT('',(0.3,0.05,0.205));
#1425=CARTESIAN_POINT('',(0.3,0.05,0.));
#1426=CARTESIAN_POINT('',(0.35,0.05,0.));
#1427=CARTESIAN_POINT('',(0.3,0.05,0.205));
#1428=CARTESIAN_POINT('',(0.35,0.05,0.205));
#1429=CARTESIAN_POINT('',(0.35,0.05,0.205));
#1430=CARTESIAN_POINT('',(0.35,-0.075,0.205));
#1431=CARTESIAN_POINT('',(0.35,-0.075,0.));
#1432=CARTESIAN_POINT('',(0.35,-0.05,0.));
#1433=CARTESIAN_POINT('',(0.35,-0.075,0.205));
#1434=CARTESIAN_POINT('',(0.35,-0.05,0.205));
#1435=CARTESIAN_POINT('',(0.35,-0.05,0.205));
#1436=CARTESIAN_POINT('',(0.3,-0.05,0.205));
#1437=CARTESIAN_POINT('',(0.3,-0.05,0.));
#1438=CARTESIAN_POINT('',(0.3,-0.1,0.));
#1439=CARTESIAN_POINT('',(0.3,-0.05,0.205));
#1440=CARTESIAN_POINT('',(0.3,-0.1,0.205));
#1441=CARTESIAN_POINT('',(0.3,-0.1,0.205));
#1442=CARTESIAN_POINT('',(0.03,-0.1,0.205));
#1443=CARTESIAN_POINT('',(0.03,-0.1,0.));
#1444=CARTESIAN_POINT('',(0.03,-0.1,0.));
#1445=CARTESIAN_POINT('',(0.03,-0.1,0.205));
#1446=CARTESIAN_POINT('',(0.03,-0.1,0.205));
#1447=CARTESIAN_POINT('',(0.03,-0.1,0.205));
#1448=CARTESIAN_POINT('',(0.02,-0.09,0.205));
#1449=CARTESIAN_POINT('',(0.02,-0.09,0.));
#1450=CARTESIAN_POINT('',(0.02,-0.09,0.));
#1451=CARTESIAN_POINT('',(0.02,-0.09,0.205));
#1452=CARTESIAN_POINT('',(0.02,-0.09,0.205));
#1453=CARTESIAN_POINT('',(0.02,-0.09,0.205));
#1454=CARTESIAN_POINT('',(0.,-0.09,0.205));
#1455=CARTESIAN_POINT('',(0.,-0.09,0.));
#1456=CARTESIAN_POINT('',(0.,-0.09,0.205));
#1457=CARTESIAN_POINT('',(0.325,0.075,0.205));
#1458=CARTESIAN_POINT('',(0.325,0.075,0.));
#1459=CARTESIAN_POINT('',(-3.,2.2,0.));
#1460=CARTESIAN_POINT('',(-3.,1.8,0.));
#1461=CARTESIAN_POINT('',(-3.,1.4,0.));
#1462=CARTESIAN_POINT('',(-3.,1.,0.));
#1463=CARTESIAN_POINT('',(-3.,0.6,0.));
#1464=CARTESIAN_POINT('',(-3.,0.2,0.));
#1465=CARTESIAN_POINT('',(-3.,-0.2,0.));
#1466=CARTESIAN_POINT('',(-3.,-0.6,0.));
#1467=CARTESIAN_POINT('',(-3.,-1.,0.));
#1468=CARTESIAN_POINT('',(-3.,-1.4,0.));
#1469=CARTESIAN_POINT('',(-3.,-1.8,0.));
#1470=CARTESIAN_POINT('',(-3.,-2.2,0.));
#1471=CARTESIAN_POINT('',(-2.2,-3.,0.));
#1472=CARTESIAN_POINT('',(-1.8,-3.,0.));
#1473=CARTESIAN_POINT('',(-1.4,-3.,0.));
#1474=CARTESIAN_POINT('',(-1.,-3.,0.));
#1475=CARTESIAN_POINT('',(-0.6,-3.,0.));
#1476=CARTESIAN_POINT('',(-0.2,-3.,0.));
#1477=CARTESIAN_POINT('',(0.2,-3.,0.));
#1478=CARTESIAN_POINT('',(0.6,-3.,0.));
#1479=CARTESIAN_POINT('',(1.,-3.,0.));
#1480=CARTESIAN_POINT('',(1.4,-3.,0.));
#1481=CARTESIAN_POINT('',(1.8,-3.,0.));
#1482=CARTESIAN_POINT('',(2.2,-3.,0.));
#1483=CARTESIAN_POINT('',(3.,-2.2,0.));
#1484=CARTESIAN_POINT('',(3.,-1.8,0.));
#1485=CARTESIAN_POINT('',(3.,-1.4,0.));
#1486=CARTESIAN_POINT('',(3.,-1.,0.));
#1487=CARTESIAN_POINT('',(3.,-0.6,0.));
#1488=CARTESIAN_POINT('',(3.,-0.2,0.));
#1489=CARTESIAN_POINT('',(3.,0.2,0.));
#1490=CARTESIAN_POINT('',(3.,0.6,0.));
#1491=CARTESIAN_POINT('',(3.,1.,0.));
#1492=CARTESIAN_POINT('',(3.,1.4,0.));
#1493=CARTESIAN_POINT('',(3.,1.8,0.));
#1494=CARTESIAN_POINT('',(3.,2.2,0.));
#1495=CARTESIAN_POINT('',(2.2,3.,0.));
#1496=CARTESIAN_POINT('',(1.8,3.,0.));
#1497=CARTESIAN_POINT('',(1.4,3.,0.));
#1498=CARTESIAN_POINT('',(1.,3.,0.));
#1499=CARTESIAN_POINT('',(0.6,3.,0.));
#1500=CARTESIAN_POINT('',(0.2,3.,0.));
#1501=CARTESIAN_POINT('',(-0.2,3.,0.));
#1502=CARTESIAN_POINT('',(-0.6,3.,0.));
#1503=CARTESIAN_POINT('',(-1.,3.,0.));
#1504=CARTESIAN_POINT('',(-1.4,3.,0.));
#1505=CARTESIAN_POINT('',(-1.8,3.,0.));
#1506=CARTESIAN_POINT('',(-2.2,3.,0.));
#1507=MECHANICAL_DESIGN_GEOMETRIC_PRESENTATION_REPRESENTATION('',(#764,
#765,#766,#767,#768,#769,#770,#771,#772,#773,#774,#775,#776,#777),#1508);
#1508=(
GEOMETRIC_REPRESENTATION_CONTEXT(3)
GLOBAL_UNCERTAINTY_ASSIGNED_CONTEXT((#1512))
GLOBAL_UNIT_ASSIGNED_CONTEXT((#1518,#1517,#1516))
REPRESENTATION_CONTEXT('QFN48_P040_H085','TOP_LEVEL_ASSEMBLY_PART')
);
#1509=(
GEOMETRIC_REPRESENTATION_CONTEXT(3)
GLOBAL_UNCERTAINTY_ASSIGNED_CONTEXT((#1513))
GLOBAL_UNIT_ASSIGNED_CONTEXT((#1518,#1517,#1516))
REPRESENTATION_CONTEXT('QFN48P040_body','COMPONENT_PART')
);
#1510=(
GEOMETRIC_REPRESENTATION_CONTEXT(3)
GLOBAL_UNCERTAINTY_ASSIGNED_CONTEXT((#1514))
GLOBAL_UNIT_ASSIGNED_CONTEXT((#1518,#1517,#1516))
REPRESENTATION_CONTEXT('QFN48P040_pad','COMPONENT_PART')
);
#1511=(
GEOMETRIC_REPRESENTATION_CONTEXT(3)
GLOBAL_UNCERTAINTY_ASSIGNED_CONTEXT((#1515))
GLOBAL_UNIT_ASSIGNED_CONTEXT((#1518,#1517,#1516))
REPRESENTATION_CONTEXT('QFN48P040_pin','COMPONENT_PART')
);
#1512=UNCERTAINTY_MEASURE_WITH_UNIT(LENGTH_MEASURE(0.005),#1518,
'DISTANCE_ACCURACY_VALUE','Maximum Tolerance applied to model');
#1513=UNCERTAINTY_MEASURE_WITH_UNIT(LENGTH_MEASURE(0.005),#1518,
'DISTANCE_ACCURACY_VALUE','Maximum Tolerance applied to model');
#1514=UNCERTAINTY_MEASURE_WITH_UNIT(LENGTH_MEASURE(0.005),#1518,
'DISTANCE_ACCURACY_VALUE','Maximum Tolerance applied to model');
#1515=UNCERTAINTY_MEASURE_WITH_UNIT(LENGTH_MEASURE(0.005),#1518,
'DISTANCE_ACCURACY_VALUE','Maximum Tolerance applied to model');
#1516=(
NAMED_UNIT(*)
SI_UNIT($,.STERADIAN.)
SOLID_ANGLE_UNIT()
);
#1517=(
NAMED_UNIT(*)
PLANE_ANGLE_UNIT()
SI_UNIT($,.RADIAN.)
);
#1518=(
LENGTH_UNIT()
NAMED_UNIT(*)
SI_UNIT(.MILLI.,.METRE.)
);
#1519=PRODUCT_DEFINITION_SHAPE('','',#1573);
#1520=PRODUCT_DEFINITION_SHAPE('','',#1574);
#1521=PRODUCT_DEFINITION_SHAPE(' ','NAUO PRDDFN',#68);
#1522=PRODUCT_DEFINITION_SHAPE('','',#1575);
#1523=PRODUCT_DEFINITION_SHAPE(' ','NAUO PRDDFN',#69);
#1524=PRODUCT_DEFINITION_SHAPE('','',#1576);
#1525=PRODUCT_DEFINITION_SHAPE(' ','NAUO PRDDFN',#70);
#1526=PRODUCT_DEFINITION_SHAPE(' ','NAUO PRDDFN',#71);
#1527=PRODUCT_DEFINITION_SHAPE(' ','NAUO PRDDFN',#72);
#1528=PRODUCT_DEFINITION_SHAPE(' ','NAUO PRDDFN',#73);
#1529=PRODUCT_DEFINITION_SHAPE(' ','NAUO PRDDFN',#74);
#1530=PRODUCT_DEFINITION_SHAPE(' ','NAUO PRDDFN',#75);
#1531=PRODUCT_DEFINITION_SHAPE(' ','NAUO PRDDFN',#76);
#1532=PRODUCT_DEFINITION_SHAPE(' ','NAUO PRDDFN',#77);
#1533=PRODUCT_DEFINITION_SHAPE(' ','NAUO PRDDFN',#78);
#1534=PRODUCT_DEFINITION_SHAPE(' ','NAUO PRDDFN',#79);
#1535=PRODUCT_DEFINITION_SHAPE(' ','NAUO PRDDFN',#80);
#1536=PRODUCT_DEFINITION_SHAPE(' ','NAUO PRDDFN',#81);
#1537=PRODUCT_DEFINITION_SHAPE(' ','NAUO PRDDFN',#82);
#1538=PRODUCT_DEFINITION_SHAPE(' ','NAUO PRDDFN',#83);
#1539=PRODUCT_DEFINITION_SHAPE(' ','NAUO PRDDFN',#84);
#1540=PRODUCT_DEFINITION_SHAPE(' ','NAUO PRDDFN',#85);
#1541=PRODUCT_DEFINITION_SHAPE(' ','NAUO PRDDFN',#86);
#1542=PRODUCT_DEFINITION_SHAPE(' ','NAUO PRDDFN',#87);
#1543=PRODUCT_DEFINITION_SHAPE(' ','NAUO PRDDFN',#88);
#1544=PRODUCT_DEFINITION_SHAPE(' ','NAUO PRDDFN',#89);
#1545=PRODUCT_DEFINITION_SHAPE(' ','NAUO PRDDFN',#90);
#1546=PRODUCT_DEFINITION_SHAPE(' ','NAUO PRDDFN',#91);
#1547=PRODUCT_DEFINITION_SHAPE(' ','NAUO PRDDFN',#92);
#1548=PRODUCT_DEFINITION_SHAPE(' ','NAUO PRDDFN',#93);
#1549=PRODUCT_DEFINITION_SHAPE(' ','NAUO PRDDFN',#94);
#1550=PRODUCT_DEFINITION_SHAPE(' ','NAUO PRDDFN',#95);
#1551=PRODUCT_DEFINITION_SHAPE(' ','NAUO PRDDFN',#96);
#1552=PRODUCT_DEFINITION_SHAPE(' ','NAUO PRDDFN',#97);
#1553=PRODUCT_DEFINITION_SHAPE(' ','NAUO PRDDFN',#98);
#1554=PRODUCT_DEFINITION_SHAPE(' ','NAUO PRDDFN',#99);
#1555=PRODUCT_DEFINITION_SHAPE(' ','NAUO PRDDFN',#100);
#1556=PRODUCT_DEFINITION_SHAPE(' ','NAUO PRDDFN',#101);
#1557=PRODUCT_DEFINITION_SHAPE(' ','NAUO PRDDFN',#102);
#1558=PRODUCT_DEFINITION_SHAPE(' ','NAUO PRDDFN',#103);
#1559=PRODUCT_DEFINITION_SHAPE(' ','NAUO PRDDFN',#104);
#1560=PRODUCT_DEFINITION_SHAPE(' ','NAUO PRDDFN',#105);
#1561=PRODUCT_DEFINITION_SHAPE(' ','NAUO PRDDFN',#106);
#1562=PRODUCT_DEFINITION_SHAPE(' ','NAUO PRDDFN',#107);
#1563=PRODUCT_DEFINITION_SHAPE(' ','NAUO PRDDFN',#108);
#1564=PRODUCT_DEFINITION_SHAPE(' ','NAUO PRDDFN',#109);
#1565=PRODUCT_DEFINITION_SHAPE(' ','NAUO PRDDFN',#110);
#1566=PRODUCT_DEFINITION_SHAPE(' ','NAUO PRDDFN',#111);
#1567=PRODUCT_DEFINITION_SHAPE(' ','NAUO PRDDFN',#112);
#1568=PRODUCT_DEFINITION_SHAPE(' ','NAUO PRDDFN',#113);
#1569=PRODUCT_DEFINITION_SHAPE(' ','NAUO PRDDFN',#114);
#1570=PRODUCT_DEFINITION_SHAPE(' ','NAUO PRDDFN',#115);
#1571=PRODUCT_DEFINITION_SHAPE(' ','NAUO PRDDFN',#116);
#1572=PRODUCT_DEFINITION_SHAPE(' ','NAUO PRDDFN',#117);
#1573=PRODUCT_DEFINITION('','',#1581,#1577);
#1574=PRODUCT_DEFINITION('','',#1582,#1578);
#1575=PRODUCT_DEFINITION('','',#1583,#1579);
#1576=PRODUCT_DEFINITION('','',#1584,#1580);
#1577=PRODUCT_DEFINITION_CONTEXT('',#1602,'design');
#1578=PRODUCT_DEFINITION_CONTEXT('',#1602,'design');
#1579=PRODUCT_DEFINITION_CONTEXT('',#1602,'design');
#1580=PRODUCT_DEFINITION_CONTEXT('',#1602,'design');
#1581=PRODUCT_DEFINITION_FORMATION_WITH_SPECIFIED_SOURCE('','',#1589,
 .NOT_KNOWN.);
#1582=PRODUCT_DEFINITION_FORMATION_WITH_SPECIFIED_SOURCE('','',#1590,
 .NOT_KNOWN.);
#1583=PRODUCT_DEFINITION_FORMATION_WITH_SPECIFIED_SOURCE('','',#1591,
 .NOT_KNOWN.);
#1584=PRODUCT_DEFINITION_FORMATION_WITH_SPECIFIED_SOURCE('','',#1592,
 .NOT_KNOWN.);
#1585=PRODUCT_RELATED_PRODUCT_CATEGORY('','',(#1589));
#1586=PRODUCT_RELATED_PRODUCT_CATEGORY('','',(#1590));
#1587=PRODUCT_RELATED_PRODUCT_CATEGORY('','',(#1591));
#1588=PRODUCT_RELATED_PRODUCT_CATEGORY('','',(#1592));
#1589=PRODUCT('QFN48_P040_H085','QFN48_P040_H085','QFN48_P040_H085',(#1597));
#1590=PRODUCT('QFN48P040_body','QFN48P040_body','QFN48P040_body',(#1598));
#1591=PRODUCT('QFN48P040_pad','QFN48P040_pad','QFN48P040_pad',(#1599));
#1592=PRODUCT('QFN48P040_pin','QFN48P040_pin','QFN48P040_pin',(#1600));
#1593=PRODUCT_CATEGORY('','');
#1594=PRODUCT_CATEGORY('','');
#1595=PRODUCT_CATEGORY('','');
#1596=PRODUCT_CATEGORY('','');
#1597=PRODUCT_CONTEXT('',#1602,'mechanical');
#1598=PRODUCT_CONTEXT('',#1602,'mechanical');
#1599=PRODUCT_CONTEXT('',#1602,'mechanical');
#1600=PRODUCT_CONTEXT('',#1602,'mechanical');
#1601=APPLICATION_PROTOCOL_DEFINITION('international standard',
'automotive_design',2010,#1602);
#1602=APPLICATION_CONTEXT(
'core data for automotive mechanical design processes');
ENDSEC;
END-ISO-10303-21;
