ISO-10303-21;
HEADER;
FILE_DESCRIPTION(('convert3d faceted mesh'),'2;1');
FILE_NAME('Untitled.stp','2024-01-01',(''),(''),'','convert3d','');
FILE_SCHEMA(('AUTOMOTIVE_DESIGN { 1 0 10303 214 1 1 1 1 }'));
ENDSEC;
DATA;
#1=APPLICATION_PROTOCOL_DEFINITION('international standard','automotive_design',2000,#2);
#2=APPLICATION_CONTEXT('core data for automotive mechanical design processes');
#3=SHAPE_DEFINITION_REPRESENTATION(#4,#319);
#4=PRODUCT_DEFINITION_SHAPE('','',#5);
#5=PRODUCT_DEFINITION('design','',#6,#9);
#6=PRODUCT_DEFINITION_FORMATION('','',#7);
#7=PRODUCT('Untitled','Untitled','',(#8));
#8=PRODUCT_CONTEXT('',#2,'mechanical');
#9=PRODUCT_DEFINITION_CONTEXT('part definition',#2,'design');
#310=CARTESIAN_POINT('',(0.,0.,0.));
#311=DIRECTION('',(0.,0.,1.));
#312=DIRECTION('',(1.,0.,0.));
#313=AXIS2_PLACEMENT_3D('',#310,#311,#312);
#314=(LENGTH_UNIT() NAMED_UNIT(*) SI_UNIT($,.METRE.));
#315=(NAMED_UNIT(*) PLANE_ANGLE_UNIT() SI_UNIT($,.RADIAN.));
#316=(NAMED_UNIT(*) SI_UNIT($,.STERADIAN.) SOLID_ANGLE_UNIT());
#317=UNCERTAINTY_MEASURE_WITH_UNIT(LENGTH_MEASURE(1.E-07),#314,'distance_accuracy_value','confusion accuracy');
#318=(GEOMETRIC_REPRESENTATION_CONTEXT(3) GLOBAL_UNCERTAINTY_ASSIGNED_CONTEXT((#317)) GLOBAL_UNIT_ASSIGNED_CONTEXT((#314,#315,#316)) REPRESENTATION_CONTEXT('','3D'));
#20=CARTESIAN_POINT('',(-0.0016,-0.00024,-0.000625));
#21=CARTESIAN_POINT('',(0.,-0.00024,0.000625));
#22=CARTESIAN_POINT('',(-0.0016,-0.00024,0.000625));
#23=CARTESIAN_POINT('',(-0.0016,-0.00024,-0.000625));
#24=CARTESIAN_POINT('',(0.,-0.00024,-0.000625));
#25=CARTESIAN_POINT('',(0.,-0.00024,0.000625));
#26=CARTESIAN_POINT('',(0.0016,0.00004,-0.000625));
#27=CARTESIAN_POINT('',(0.0007,0.00004,0.000625));
#28=CARTESIAN_POINT('',(0.0016,0.00004,0.000625));
#29=CARTESIAN_POINT('',(0.,-0.00024,-0.000625));
#30=CARTESIAN_POINT('',(-0.0016,-0.00024,-0.000625));
#31=CARTESIAN_POINT('',(-0.0007,0.00004,-0.000625));
#32=CARTESIAN_POINT('',(0.,-0.00024,0.000625));
#33=CARTESIAN_POINT('',(0.0007,0.00004,0.000625));
#34=CARTESIAN_POINT('',(0.000626,0.000819,0.000625));
#35=CARTESIAN_POINT('',(0.,-0.00024,0.000625));
#36=CARTESIAN_POINT('',(-0.000626,0.000819,0.000625));
#37=CARTESIAN_POINT('',(-0.0007,0.00004,0.000625));
#38=CARTESIAN_POINT('',(0.0016,-0.00024,-0.000625));
#39=CARTESIAN_POINT('',(0.0016,0.00004,0.000625));
#40=CARTESIAN_POINT('',(0.0016,-0.00024,0.000625));
#41=CARTESIAN_POINT('',(-0.0016,0.00004,0.000625));
#42=CARTESIAN_POINT('',(-0.0016,-0.00024,0.000625));
#43=CARTESIAN_POINT('',(-0.0007,0.00004,0.000625));
#44=CARTESIAN_POINT('',(0.0007,0.00004,-0.000625));
#45=CARTESIAN_POINT('',(0.,-0.00024,-0.000625));
#46=CARTESIAN_POINT('',(0.000626,0.000819,-0.000625));
#47=CARTESIAN_POINT('',(0.0007,0.00004,0.000625));
#48=CARTESIAN_POINT('',(0.000626,0.000819,-0.000625));
#49=CARTESIAN_POINT('',(0.000626,0.000819,0.000625));
#50=CARTESIAN_POINT('',(-0.0016,-0.00024,-0.000625));
#51=CARTESIAN_POINT('',(-0.0016,0.00004,0.000625));
#52=CARTESIAN_POINT('',(-0.0016,0.00004,-0.000625));
#53=CARTESIAN_POINT('',(-0.0007,0.00004,-0.000625));
#54=CARTESIAN_POINT('',(-0.000626,0.000819,0.000625));
#55=CARTESIAN_POINT('',(-0.000626,0.000819,-0.000625));
#56=CARTESIAN_POINT('',(0.,-0.00024,-0.000625));
#57=CARTESIAN_POINT('',(0.0007,0.00004,-0.000625));
#58=CARTESIAN_POINT('',(0.0016,-0.00024,-0.000625));
#59=CARTESIAN_POINT('',(0.,-0.00024,-0.000625));
#60=CARTESIAN_POINT('',(-0.000626,0.000819,-0.000625));
#61=CARTESIAN_POINT('',(0.000626,0.000819,-0.000625));
#62=CARTESIAN_POINT('',(-0.0016,0.00004,-0.000625));
#63=CARTESIAN_POINT('',(-0.0007,0.00004,0.000625));
#64=CARTESIAN_POINT('',(-0.0007,0.00004,-0.000625));
#65=CARTESIAN_POINT('',(0.,-0.00024,0.000625));
#66=CARTESIAN_POINT('',(0.0016,-0.00024,0.000625));
#67=CARTESIAN_POINT('',(0.0007,0.00004,0.000625));
#68=CARTESIAN_POINT('',(-0.000626,0.000819,-0.000625));
#69=CARTESIAN_POINT('',(0.000626,0.000819,0.000625));
#70=CARTESIAN_POINT('',(0.000626,0.000819,-0.000625));
#71=CARTESIAN_POINT('',(-0.0007,0.00004,-0.000625));
#72=CARTESIAN_POINT('',(-0.0016,-0.00024,-0.000625));
#73=CARTESIAN_POINT('',(-0.0016,0.00004,-0.000625));
#74=CARTESIAN_POINT('',(-0.0016,-0.00024,0.000625));
#75=CARTESIAN_POINT('',(0.,-0.00024,0.000625));
#76=CARTESIAN_POINT('',(-0.0007,0.00004,0.000625));
#77=CARTESIAN_POINT('',(0.0016,-0.00024,-0.000625));
#78=CARTESIAN_POINT('',(0.0007,0.00004,-0.000625));
#79=CARTESIAN_POINT('',(0.0016,0.00004,-0.000625));
#80=CARTESIAN_POINT('',(0.0007,0.00004,0.000625));
#81=CARTESIAN_POINT('',(0.0016,-0.00024,0.000625));
#82=CARTESIAN_POINT('',(0.0016,0.00004,0.000625));
#83=CARTESIAN_POINT('',(0.,-0.00024,-0.000625));
#84=CARTESIAN_POINT('',(0.0016,-0.00024,0.000625));
#85=CARTESIAN_POINT('',(0.,-0.00024,0.000625));
#86=CARTESIAN_POINT('',(0.0016,0.00004,-0.000625));
#87=CARTESIAN_POINT('',(0.0007,0.00004,-0.000625));
#88=CARTESIAN_POINT('',(0.0007,0.00004,0.000625));
#89=CARTESIAN_POINT('',(0.,-0.00024,0.000625));
#90=CARTESIAN_POINT('',(0.000626,0.000819,0.000625));
#91=CARTESIAN_POINT('',(-0.000626,0.000819,0.000625));
#92=CARTESIAN_POINT('',(0.0016,-0.00024,-0.000625));
#93=CARTESIAN_POINT('',(0.0016,0.00004,-0.000625));
#94=CARTESIAN_POINT('',(0.0016,0.00004,0.000625));
#95=CARTESIAN_POINT('',(0.0007,0.00004,0.000625));
#96=CARTESIAN_POINT('',(0.0007,0.00004,-0.000625));
#97=CARTESIAN_POINT('',(0.000626,0.000819,-0.000625));
#98=CARTESIAN_POINT('',(-0.0016,-0.00024,-0.000625));
#99=CARTESIAN_POINT('',(-0.0016,-0.00024,0.000625));
#100=CARTESIAN_POINT('',(-0.0016,0.00004,0.000625));
#101=CARTESIAN_POINT('',(-0.0007,0.00004,-0.000625));
#102=CARTESIAN_POINT('',(-0.0007,0.00004,0.000625));
#103=CARTESIAN_POINT('',(-0.000626,0.000819,0.000625));
#104=CARTESIAN_POINT('',(0.,-0.00024,-0.000625));
#105=CARTESIAN_POINT('',(-0.0007,0.00004,-0.000625));
#106=CARTESIAN_POINT('',(-0.000626,0.000819,-0.000625));
#107=CARTESIAN_POINT('',(-0.0016,0.00004,-0.000625));
#108=CARTESIAN_POINT('',(-0.0016,0.00004,0.000625));
#109=CARTESIAN_POINT('',(-0.0007,0.00004,0.000625));
#110=CARTESIAN_POINT('',(-0.000626,0.000819,-0.000625));
#111=CARTESIAN_POINT('',(-0.000626,0.000819,0.000625));
#112=CARTESIAN_POINT('',(0.000626,0.000819,0.000625));
#113=CARTESIAN_POINT('',(0.,-0.00024,-0.000625));
#114=CARTESIAN_POINT('',(0.0016,-0.00024,-0.000625));
#115=CARTESIAN_POINT('',(0.0016,-0.00024,0.000625));
#116=DIRECTION('',(0.,-1.,0.));
#148=AXIS2_PLACEMENT_3D('',#20,#116,$);
#180=PLANE('',#148);
#212=POLY_LOOP('',(#20,#21,#22));
#244=FACE_OUTER_BOUND('',#212,.T.);
#276=FACE_SURFACE('',(#244),#180,.T.);
#117=DIRECTION('',(0.,-1.,0.));
#149=AXIS2_PLACEMENT_3D('',#23,#117,$);
#181=PLANE('',#149);
#213=POLY_LOOP('',(#23,#24,#25));
#245=FACE_OUTER_BOUND('',#213,.T.);
#277=FACE_SURFACE('',(#245),#181,.T.);
#118=DIRECTION('',(0.,1.,0.));
#150=AXIS2_PLACEMENT_3D('',#26,#118,$);
#182=PLANE('',#150);
#214=POLY_LOOP('',(#26,#27,#28));
#246=FACE_OUTER_BOUND('',#214,.T.);
#278=FACE_SURFACE('',(#246),#182,.T.);
#119=DIRECTION('',(0.,0.,-1.));
#151=AXIS2_PLACEMENT_3D('',#29,#119,$);
#183=PLANE('',#151);
#215=POLY_LOOP('',(#29,#30,#31));
#247=FACE_OUTER_BOUND('',#215,.T.);
#279=FACE_SURFACE('',(#247),#183,.T.);
#120=DIRECTION('',(0.,0.,1.));
#152=AXIS2_PLACEMENT_3D('',#32,#120,$);
#184=PLANE('',#152);
#216=POLY_LOOP('',(#32,#33,#34));
#248=FACE_OUTER_BOUND('',#216,.T.);
#280=FACE_SURFACE('',(#248),#184,.T.);
#121=DIRECTION('',(0.,0.,1.));
#153=AXIS2_PLACEMENT_3D('',#35,#121,$);
#185=PLANE('',#153);
#217=POLY_LOOP('',(#35,#36,#37));
#249=FACE_OUTER_BOUND('',#217,.T.);
#281=FACE_SURFACE('',(#249),#185,.T.);
#122=DIRECTION('',(1.,0.,0.));
#154=AXIS2_PLACEMENT_3D('',#38,#122,$);
#186=PLANE('',#154);
#218=POLY_LOOP('',(#38,#39,#40));
#250=FACE_OUTER_BOUND('',#218,.T.);
#282=FACE_SURFACE('',(#250),#186,.T.);
#123=DIRECTION('',(0.,0.,1.));
#155=AXIS2_PLACEMENT_3D('',#41,#123,$);
#187=PLANE('',#155);
#219=POLY_LOOP('',(#41,#42,#43));
#251=FACE_OUTER_BOUND('',#219,.T.);
#283=FACE_SURFACE('',(#251),#187,.T.);
#124=DIRECTION('',(0.,0.,-1.));
#156=AXIS2_PLACEMENT_3D('',#44,#124,$);
#188=PLANE('',#156);
#220=POLY_LOOP('',(#44,#45,#46));
#252=FACE_OUTER_BOUND('',#220,.T.);
#284=FACE_SURFACE('',(#252),#188,.T.);
#125=DIRECTION('',(0.9955184,0.09456784,0.));
#157=AXIS2_PLACEMENT_3D('',#47,#125,$);
#189=PLANE('',#157);
#221=POLY_LOOP('',(#47,#48,#49));
#253=FACE_OUTER_BOUND('',#221,.T.);
#285=FACE_SURFACE('',(#253),#189,.T.);
#126=DIRECTION('',(-1.,0.,0.));
#158=AXIS2_PLACEMENT_3D('',#50,#126,$);
#190=PLANE('',#158);
#222=POLY_LOOP('',(#50,#51,#52));
#254=FACE_OUTER_BOUND('',#222,.T.);
#286=FACE_SURFACE('',(#254),#190,.T.);
#127=DIRECTION('',(-0.9955184,0.09456784,0.));
#159=AXIS2_PLACEMENT_3D('',#53,#127,$);
#191=PLANE('',#159);
#223=POLY_LOOP('',(#53,#54,#55));
#255=FACE_OUTER_BOUND('',#223,.T.);
#287=FACE_SURFACE('',(#255),#191,.T.);
#128=DIRECTION('',(0.,0.,-1.));
#160=AXIS2_PLACEMENT_3D('',#56,#128,$);
#192=PLANE('',#160);
#224=POLY_LOOP('',(#56,#57,#58));
#256=FACE_OUTER_BOUND('',#224,.T.);
#288=FACE_SURFACE('',(#256),#192,.T.);
#129=DIRECTION('',(0.,0.,-1.));
#161=AXIS2_PLACEMENT_3D('',#59,#129,$);
#193=PLANE('',#161);
#225=POLY_LOOP('',(#59,#60,#61));
#257=FACE_OUTER_BOUND('',#225,.T.);
#289=FACE_SURFACE('',(#257),#193,.T.);
#130=DIRECTION('',(0.,1.,0.));
#162=AXIS2_PLACEMENT_3D('',#62,#130,$);
#194=PLANE('',#162);
#226=POLY_LOOP('',(#62,#63,#64));
#258=FACE_OUTER_BOUND('',#226,.T.);
#290=FACE_SURFACE('',(#258),#194,.T.);
#131=DIRECTION('',(0.,0.,1.));
#163=AXIS2_PLACEMENT_3D('',#65,#131,$);
#195=PLANE('',#163);
#227=POLY_LOOP('',(#65,#66,#67));
#259=FACE_OUTER_BOUND('',#227,.T.);
#291=FACE_SURFACE('',(#259),#195,.T.);
#132=DIRECTION('',(0.,1.,0.));
#164=AXIS2_PLACEMENT_3D('',#68,#132,$);
#196=PLANE('',#164);
#228=POLY_LOOP('',(#68,#69,#70));
#260=FACE_OUTER_BOUND('',#228,.T.);
#292=FACE_SURFACE('',(#260),#196,.T.);
#133=DIRECTION('',(0.,0.,-1.));
#165=AXIS2_PLACEMENT_3D('',#71,#133,$);
#197=PLANE('',#165);
#229=POLY_LOOP('',(#71,#72,#73));
#261=FACE_OUTER_BOUND('',#229,.T.);
#293=FACE_SURFACE('',(#261),#197,.T.);
#134=DIRECTION('',(0.,0.,1.));
#166=AXIS2_PLACEMENT_3D('',#74,#134,$);
#198=PLANE('',#166);
#230=POLY_LOOP('',(#74,#75,#76));
#262=FACE_OUTER_BOUND('',#230,.T.);
#294=FACE_SURFACE('',(#262),#198,.T.);
#135=DIRECTION('',(0.,0.,-1.));
#167=AXIS2_PLACEMENT_3D('',#77,#135,$);
#199=PLANE('',#167);
#231=POLY_LOOP('',(#77,#78,#79));
#263=FACE_OUTER_BOUND('',#231,.T.);
#295=FACE_SURFACE('',(#263),#199,.T.);
#136=DIRECTION('',(0.,0.,1.));
#168=AXIS2_PLACEMENT_3D('',#80,#136,$);
#200=PLANE('',#168);
#232=POLY_LOOP('',(#80,#81,#82));
#264=FACE_OUTER_BOUND('',#232,.T.);
#296=FACE_SURFACE('',(#264),#200,.T.);
#137=DIRECTION('',(0.,-1.,0.));
#169=AXIS2_PLACEMENT_3D('',#83,#137,$);
#201=PLANE('',#169);
#233=POLY_LOOP('',(#83,#84,#85));
#265=FACE_OUTER_BOUND('',#233,.T.);
#297=FACE_SURFACE('',(#265),#201,.T.);
#138=DIRECTION('',(0.,1.,0.));
#170=AXIS2_PLACEMENT_3D('',#86,#138,$);
#202=PLANE('',#170);
#234=POLY_LOOP('',(#86,#87,#88));
#266=FACE_OUTER_BOUND('',#234,.T.);
#298=FACE_SURFACE('',(#266),#202,.T.);
#139=DIRECTION('',(0.,0.,1.));
#171=AXIS2_PLACEMENT_3D('',#89,#139,$);
#203=PLANE('',#171);
#235=POLY_LOOP('',(#89,#90,#91));
#267=FACE_OUTER_BOUND('',#235,.T.);
#299=FACE_SURFACE('',(#267),#203,.T.);
#140=DIRECTION('',(1.,0.,0.));
#172=AXIS2_PLACEMENT_3D('',#92,#140,$);
#204=PLANE('',#172);
#236=POLY_LOOP('',(#92,#93,#94));
#268=FACE_OUTER_BOUND('',#236,.T.);
#300=FACE_SURFACE('',(#268),#204,.T.);
#141=DIRECTION('',(0.9955184,0.09456784,0.));
#173=AXIS2_PLACEMENT_3D('',#95,#141,$);
#205=PLANE('',#173);
#237=POLY_LOOP('',(#95,#96,#97));
#269=FACE_OUTER_BOUND('',#237,.T.);
#301=FACE_SURFACE('',(#269),#205,.T.);
#142=DIRECTION('',(-1.,0.,0.));
#174=AXIS2_PLACEMENT_3D('',#98,#142,$);
#206=PLANE('',#174);
#238=POLY_LOOP('',(#98,#99,#100));
#270=FACE_OUTER_BOUND('',#238,.T.);
#302=FACE_SURFACE('',(#270),#206,.T.);
#143=DIRECTION('',(-0.9955184,0.09456784,0.));
#175=AXIS2_PLACEMENT_3D('',#101,#143,$);
#207=PLANE('',#175);
#239=POLY_LOOP('',(#101,#102,#103));
#271=FACE_OUTER_BOUND('',#239,.T.);
#303=FACE_SURFACE('',(#271),#207,.T.);
#144=DIRECTION('',(0.,0.,-1.));
#176=AXIS2_PLACEMENT_3D('',#104,#144,$);
#208=PLANE('',#176);
#240=POLY_LOOP('',(#104,#105,#106));
#272=FACE_OUTER_BOUND('',#240,.T.);
#304=FACE_SURFACE('',(#272),#208,.T.);
#145=DIRECTION('',(0.,1.,0.));
#177=AXIS2_PLACEMENT_3D('',#107,#145,$);
#209=PLANE('',#177);
#241=POLY_LOOP('',(#107,#108,#109));
#273=FACE_OUTER_BOUND('',#241,.T.);
#305=FACE_SURFACE('',(#273),#209,.T.);
#146=DIRECTION('',(0.,1.,0.));
#178=AXIS2_PLACEMENT_3D('',#110,#146,$);
#210=PLANE('',#178);
#242=POLY_LOOP('',(#110,#111,#112));
#274=FACE_OUTER_BOUND('',#242,.T.);
#306=FACE_SURFACE('',(#274),#210,.T.);
#147=DIRECTION('',(0.,-1.,0.));
#179=AXIS2_PLACEMENT_3D('',#113,#147,$);
#211=PLANE('',#179);
#243=POLY_LOOP('',(#113,#114,#115));
#275=FACE_OUTER_BOUND('',#243,.T.);
#307=FACE_SURFACE('',(#275),#211,.T.);
#308=CLOSED_SHELL('',(#276,#277,#278,#279,#280,#281,#282,#283,#284,#285,#286,#287,#288,#289,#290,#291,#292,#293,#294,#295,#296,#297,#298,#299,#300,#301,#302,#303,#304,#305,#306,#307));
#309=FACETED_BREP('',#308);
#319=ADVANCED_BREP_SHAPE_REPRESENTATION('',(#313,#309),#318);
ENDSEC;
END-ISO-10303-21;
